<svg width="99" height="99" xmlns="http://www.w3.org/2000/svg"><g fill="none" fill-rule="evenodd"><path d="M11 0v10h6.53A19.5 19.5 0 0019.99.94L20 .5V0h5v1h-4a20.5 20.5 0 01-2.33 9H25v1h-6.9a20.48 20.48 0 01-7.1 7.1V25h-1v-6.33a20.5 20.5 0 01-9 2.32V25H0v-5h.5c3.36 0 6.62-.86 9.5-2.47V11H0V0h11zm5.93 11H11v5.93A19.49 19.49 0 0016.93 11zM10 1H1v9h9V1zM11 99V89h6.53a19.5 19.5 0 012.46 9.06l.01.44v.5h5v-1h-4a20.5 20.5 0 00-2.33-9H25v-1h-6.9a20.48 20.48 0 00-7.1-7.1V74h-1v6.33a20.5 20.5 0 00-9-2.32V74H0v5h.5c3.36 0 6.62.86 9.5 2.47V88H0v11h11zm5.93-11H11v-5.93A19.49 19.49 0 0116.93 88zM10 98H1v-9h9v9zM88 99V89h-6.53a19.5 19.5 0 00-2.46 9.06l-.01.44v.5h-5v-1h4a20.5 20.5 0 012.33-9H74v-1h6.9a20.48 20.48 0 017.1-7.1V74h1v6.33a20.5 20.5 0 019-2.32V74h1v5h-.5c-3.36 0-6.62.86-9.5 2.47V88h10v11H88zm-5.93-11H88v-5.93A19.49 19.49 0 0082.07 88zM89 98h9v-9h-9v9zM88 0v10h-6.53A19.5 19.5 0 0179.01.94L79 .5V0h-5v1h4a20.5 20.5 0 002.33 9H74v1h6.9a20.48 20.48 0 007.1 7.1V25h1v-6.33a20.5 20.5 0 009 2.32V25h1v-5h-.5a19.5 19.5 0 01-9.5-2.47V11h10V0H88zm-5.93 11H88v5.93A19.49 19.49 0 0182.07 11zM89 1h9v9h-9V1z" fill="#000" stroke="none"/><path fill="#000" fill-rule="nonzero" d="M21 11h57v-1H21zM0 22v56h1V22zM10 22v56h1V22zM88 22v56h1V22zM21 89h57v-1H21zM21 1h57V0H21zM98 22v56h1V22zM21 99h57v-1H21z"/></g></svg>
