<svg width="99px" height="99px" viewBox="0 0 99 99" version="1.1" xmlns="http://www.w3.org/2000/svg" xmlns:xlink="http://www.w3.org/1999/xlink">
  <defs>
    <path d="M11,0 L10.9996,10 L17.5287424,10.0007058 C19.0640602,7.24857892 19.9219905,4.14230946 19.9945787,0.94276326 L19.9996,0.5 L19.9996,0 L25,0 L25,1 L20.9935087,1 C20.916398,4.16396172 20.1088304,7.24029495 18.6653221,10.0006106 L25,10 L25,11 L18.1059632,11.0010743 C17.2452502,12.4442494 16.2034063,13.7876226 14.9952005,14.9955063 C13.7872021,16.2038268 12.4438362,17.2457241 11.0007048,18.1064559 L11,25 L10,25 L10.0002755,18.6658226 C7.24006321,20.1093392 4.16389125,20.9168169 0.9996,20.9939107 L0.9996,20.9939107 L0.9996,25 L-0.0004,25 L-0.0004,20 L0.4996,20 C3.85536356,20 7.12156884,19.1353004 10.0003663,17.529233 L9.9996,11 L-1.38555833e-13,11 L-1.38555833e-13,0 L11,0 Z M16.9305553,11.0014205 L11,11 L11.0010461,16.9310331 C12.1800844,16.1774505 13.2833133,15.2934479 14.2880937,14.2883995 C15.2930442,13.283717 16.1769955,12.1804918 16.9305553,11.0014205 Z M10,1 L1,1 L1,10 L10,10 L10,1 Z"
          id="A" stroke="none" fill="#000"/>
  </defs>
  <g><use xlink:href="#A"/></g>
  <g transform="translate(12.5, 86.5) scale(1, -1) translate(-12.5, -86.5) translate(0.0, 74.0)">
    <use xlink:href="#A"/>
  </g>
  <g transform="translate(86.5, 86.5) scale(-1, -1) translate(-86.5, -86.5) translate(74.0, 74.0)">
    <use xlink:href="#A"/>
  </g>
  <g transform="translate(86.5, 12.5) scale(-1, 1) translate(-86.5, -12.5) translate(74.0, 0.0)">
    <use xlink:href="#A"/>
  </g>
  <g stroke="none" fill="#000" fill-rule="nonzero">
    <polygon points="21 11 78 11 78 10 21 10"/>
    <polygon points="0 22 0 78 1 78 1 22"/>
    <polygon points="10 22 10 78 11 78 11 22"/>
    <polygon points="88 22 88 78 89 78 89 22"/>
    <polygon points="21 89 78 89 78 88 21 88"/>
    <polygon points="21 1 78 1 78 0 21 0"/>
    <polygon points="98 22 98 78 99 78 99 22"/>
    <polygon points="21 99 78 99 78 98 21 98"/>
  </g>
</svg>
