<svg xmlns="http://www.w3.org/2000/svg" viewBox="41 37 252 86">
<g>
  <path d="M69.9,111l3.3-23.1h0.4l9.4,18.9l9.3-18.9h0.4l3.3,23.1h-2.3l-2.3-16.5L83.1,111h-0.6l-8.2-16.7L72.1,111H69.9z M273.8,111
    V87.9h0.5l15.3,17.6V87.9h2.3V111h-0.6l-15.2-17.5V111H273.8z M237.8,111V87.9h0.5l15.3,17.6V87.9h2.3V111h-0.5l-15.2-17.5V111
    H237.8z M206.7,87.9h13.3v2.3H209v7.2h10.8v2.3H209v9h10.8v2.3h-13.1V87.9z M173.2,87.9h2.5l7.7,17.8l7.7-17.8h2.6L183.5,111H183
    L173.2,87.9z M144.1,87.9h2.7l5.9,9.4l5.8-9.4h2.7l-7.3,12V111h-2.3V99.9L144.1,87.9z M122.8,87.9l10.8,23.1h-2.5l-3.6-7.6h-9.9
    l-3.6,7.6h-2.6l10.9-23.1H122.8z M122.5,92.7l-4,8.4h8L122.5,92.7z"/>
  <path fill="#4427c1" d="M43,93.2c-0.6-7.7,3.2-14.3,8.2-19.5c7.3-7.5,17.4-14.5,20.6-19.6C58.1,65.7,37.1,68.8,43,93.2L43,93.2z
     M76.4,37.7c9.4,6.1,8.9,15.4,2.5,24C71.7,71.3,61,78.8,55.3,89.4c-6.7,12.6-6.8,33.3,13.6,32.9c-7.2-0.1-11.2-4.3-12.9-8.6
    c-7.4-19.4,19.8-37,27.3-51.5C88.2,52.6,89.7,44.6,76.4,37.7L76.4,37.7z M78.2,44C82,65.1,27.8,75.5,50,114.2
    C37,77,89.6,64,78.2,44L78.2,44z"/>
</g>
</svg>
