<svg width="115" height="29" xmlns="http://www.w3.org/2000/svg"><path d="M92.193 0v14.76a108.757 108.757 0 00-1.867-3.24C88.011 7.607 86.372 4.228 86.05 0h-4.043v29h4.398V12.77c.16.273.321.545.482.816 2.601 4.396 4.983 8.941 5.307 15.414h4.397V0h-4.397zM19.355 0H15.27c-.327 2.019-1.426 5.844-2.965 9.895-.884 2.326-1.812 4.77-2.623 7.239-.811-2.47-1.74-4.913-2.623-7.24C5.52 5.845 4.422 2.02 4.095 0H0v29h4.454V14.554C6.194 19.466 7.692 24.648 7.96 29h3.446c.268-4.352 1.765-9.534 3.506-14.446V29h4.454V0h-.011zm11.009 17.975l-1.196-7.43-1.195 7.43h2.39zM36.58 29h-4.326l-1.17-6.711h-4.07L25.844 29h-4.326l5.104-29h4.853l5.105 29zm42.079 0v-4.073h-6.284v-8.685H78v-4.369h-5.625v-7.8h6.284V0H67.661v29H78.66zM61.422 0l-3.205 18.386L55.012 0h-4.326l5.105 29h4.853l5.104-29h-4.326zm-20.98 29h4.708V18.812L49.97 0h-4.414l-2.759 12.014L40.038 0h-4.414l4.818 18.817V29zM115 0v29h-4.398c-.323-6.473-2.706-11.018-5.306-15.414a389.7 389.7 0 01-.482-.816V29h-4.398V0h4.043c.323 4.228 1.961 7.607 4.277 11.52a107.511 107.511 0 011.866 3.24V0H115z" fill="#000" fill-rule="evenodd"/></svg>