<svg version="1" xmlns="http://www.w3.org/2000/svg" width="346.667" height="346.667" viewBox="0 0 260.000000 260.000000"><path d="M0 130v130h260V0H0v130zm178.3-97.1c13.1 12.5 13.8 26.5 2.6 49.6-4.9 10.2-11.5 18.9-31.6 41.8-18.1 20.6-27.2 32.2-33.3 42.6-11.6 20-13.7 38.8-6 54.1 3.9 7.7 8.8 12.5 16.4 16.1 5.6 2.7 5.8 2.9 2.9 2.9-9.6 0-23.4-9.8-28.5-20.2-7.5-15.3-6-39.4 3.7-60.6 6.3-13.6 14.4-23.7 40-50.2 22.8-23.5 29.6-32.8 33.5-45.9 4.2-13.8.9-25.5-10.2-36.3l-6.3-6.1 6 3.8c3.3 2 8.2 5.8 10.8 8.4zm-7.9 19.6c.1 13.8-5.5 22.3-34 51.6-28.2 29-38.1 42.5-44.2 60.4-5.5 16-5.4 38.1.4 52.9 1.5 4-1.6.4-3.7-4.2-11.8-25.9-13.1-46.1-4.4-65.8 6.7-15.1 17.5-27.7 47.1-54.8 10-9.1 19.9-18.7 22.1-21.3 8.7-10.4 12.5-19.1 12.5-28.3l-.1-5.5 2.1 4c1.6 3 2.2 5.8 2.2 11zm-23.2 15.2c-2.7 3.8-11.9 12.4-29.7 28-8.2 7.1-18.2 16.4-22.1 20.5-12 12.7-19 26.5-20.1 40-1.1 13.3-3.3 5.2-3.3-12.1 0-7.5.6-11.1 2.4-16.4 5.9-16.7 15.9-26.2 47.5-45.3 6.3-3.8 14.6-9.2 18.5-12.1 8.1-5.9 9.6-6.4 6.8-2.6z"/></svg>