<svg xmlns="http://www.w3.org/2000/svg">
  <symbol id="circled-check" viewBox="0 0 14 14">
    <g fill="none" stroke-linecap="round">
      <path d="M9.61 5.17L5.7 8.83 4.39 7.52"></path>
      <circle r="6" cx="7" cy="7"></circle>
    </g>
  </symbol>
  <symbol id="check" viewBox="0 0 14 14">
    <g fill="none" stroke-linecap="round">
      <path d="M9.61 5.17L5.7 8.83 4.39 7.52"></path>
    </g>
  </symbol>
  <symbol id="phone" viewBox="0 0 8 14">
    <path d="M5.792.926H1.394c-.734 0-1.32.59-1.32 1.326v10.311c0 .737.586 1.326 1.32 1.326h4.398c.733 0 1.32-.59 1.32-1.326V2.252c0-.737-.587-1.326-1.32-1.326zm-2.42 1.178h.44a.294.294 0 010 .59h-.44a.294.294 0 010-.59zm.954 10.606H2.86a.294.294 0 010-.589h1.466a.294.294 0 010 .59zm1.905-1.473H.954v-7.66H6.23v7.66z" fill="#931280" fill-rule="evenodd"/>
  </symbol>
  <symbol id="phone-ringing" viewBox="0 0 29 29">
    <g fill="none">
      <path stroke-width="1.2" d="M18.754 18.161a.582.582 0 0 0-.807-.014s-1.652 1.605-1.762 1.705a.353.353 0 0 1-.09.065c-1.718.864-7.918-5.728-6.736-6.968l1.768-1.72a.572.572 0 0 0 .008-.812L5.35 4.559a.578.578 0 0 0-.818-.007c-2.897 2.824-7.54 5.664 3.308 16.652 10.706 10.843 13.775 6.734 16.73 3.578a.573.573 0 0 0-.01-.796l-5.806-5.825zM23.778 13.878c.157-4.717-3.706-8.545-8.448-8.39M27.874 13.878c.154-6.96-5.53-12.61-12.544-12.458M15.33 9.555c2.477-.162 4.516 1.864 4.353 4.323"></path>
    </g>
  </symbol>
  <symbol id="closed-mail-envelope" viewBox="0 0 30 24">
    <g fill="none" stroke-width="1.25">
      <path d="M26.114 4.393l-9.909 8.91a2.037 2.037 0 0 1-2.687 0l-9.909-8.91M19.476 14.225l6.638 5.521M10.247 14.225L3.61 19.746"></path>
      <path d="M.625 4.306v15.527c0 1.58 1.281 2.86 2.928 2.86h22.885c1.646 0 2.937-1.28 2.937-2.86V4.306c0-1.58-1.29-2.863-2.937-2.863H3.553C1.906 1.443.625 2.726.625 4.306z"></path>
    </g>
  </symbol>
  <symbol id="message-bubble" viewBox="0 0 28 30">
    <g fill="none" transform="translate(0 .268)" stroke-width="1.184">
      <path d="M7.717 21.018C4.287 20.19.803 16.09.803 10.828c0-5.494 4.113-10.23 8.9-10.23h8.775c4.788 0 8.67 4.705 8.67 10.2 0 5.437-3.882 10.2-8.67 10.2h-2.764l-7.997 6.936v-6.916z"></path>
      <circle cx="7.915" cy="10.69" r="1.85"></circle>
      <circle cx="13.726" cy="10.69" r="1.85"></circle>
      <circle cx="19.537" cy="10.69" r="1.85"></circle>
    </g>
  </symbol>
  <symbol id="bag" viewBox="0 0 24 28">
    <path d="M17.31 9.772c.26 0 .498.216.498.498a.504.504 0 0 1-.498.498.49.49 0 0 1-.498-.498.49.49 0 0 1 .498-.498m-10.357 0a.49.49 0 0 1 .499.498.49.49 0 0 1-.499.498.504.504 0 0 1-.498-.498c0-.282.238-.498.498-.498M5.025 6.717h1.647V9.23c-.455.13-.78.542-.78 1.04 0 .585.476 1.083 1.061 1.083.607 0 1.084-.498 1.084-1.083 0-.498-.325-.91-.78-1.04V6.717h9.75V9.23c-.455.13-.78.542-.78 1.04 0 .585.476 1.083 1.083 1.083.585 0 1.062-.498 1.062-1.083 0-.498-.325-.91-.78-1.04V6.717h1.646c1.409 0 2.687 1.17 2.839 2.556l1.581 13.65c.173 1.408-.78 2.492-2.188 2.492H2.793c-1.408 0-2.361-1.084-2.21-2.492l1.582-13.65c.173-1.386 1.452-2.556 2.86-2.556M12.132.585a4.873 4.873 0 0 1 4.875 4.897v.671h-9.75v-.671A4.873 4.873 0 0 1 12.132.585m0-.585c-3.012 0-5.46 2.448-5.46 5.482v.671H5.025c-1.712 0-3.228 1.344-3.423 3.055L.02 22.858C-.175 24.57 1.082 26 2.793 26H21.47c1.711 0 2.968-1.43 2.773-3.142l-1.581-13.65c-.195-1.711-1.712-3.055-3.424-3.055h-1.646v-.671c0-3.034-2.449-5.482-5.46-5.482"></path>
  </symbol>
  <symbol id="simple-x" viewBox="0 0 17 17">
    <path d="M8.6 6.603L2.612.615A1.411 1.411 0 1 0 .615 2.612L6.603 8.6.615 14.588a1.411 1.411 0 1 0 1.997 1.997L8.6 10.597l5.988 5.988a1.411 1.411 0 1 0 1.997-1.997L10.597 8.6l5.988-5.988A1.411 1.411 0 1 0 14.588.615L8.6 6.603z" fill="currentColor" fill-rule="evenodd"/>
  </symbol>
  <symbol id="counter-inc" viewBox="0 0 49 49">
    <circle stroke="none" r="24" cy="24" cx="24"></circle>
    <path stroke-width="4" d="M24 8v32M8 24h32"></path>
  </symbol>
  <symbol id="counter-dec" viewBox="0 0 49 49">
    <g>
      <circle r="24" cy="24" cx="24"></circle>
      <path stroke-width="4" d="M9 24h30"></path>
    </g>
  </symbol>
  <symbol id="instagram" viewBox="0 0 21 21">
    <path d="M10.37 6.894c-2.016 0-3.656 1.62-3.656 3.61 0 1.99 1.64 3.61 3.655 3.61 2.016 0 3.656-1.62 3.656-3.61 0-1.99-1.64-3.61-3.656-3.61zm0 8.79c-2.893 0-5.246-2.324-5.246-5.18s2.353-5.18 5.245-5.18c2.893 0 5.246 2.324 5.246 5.18s-2.353 5.18-5.246 5.18zM6.35 1.798c-2.645 0-4.797 2.124-4.797 4.736v7.938c0 2.611 2.152 4.736 4.796 4.736h8.04c2.645 0 4.797-2.125 4.797-4.736V6.535c0-2.612-2.152-4.736-4.797-4.736h-8.04zm8.039 18.943h-8.04c-3.5 0-6.35-2.813-6.35-6.27V6.536C0 3.078 2.85.265 6.35.265h8.04c3.501 0 6.35 2.813 6.35 6.27v7.938c0 3.456-2.849 6.269-6.35 6.269zM17.552 4.76c0 .745-.612 1.348-1.366 1.348a1.357 1.357 0 01-1.366-1.348c0-.745.611-1.349 1.366-1.349.754 0 1.366.604 1.366 1.349z" fill-rule="evenodd"/>
  </symbol>
  <symbol id="styleseat" viewBox="0 0 102 91">
    <path d="M49.586 90.024C44.198 67.636 24.042 51 0 51 0 22.833 22.833 0 51 0s51 22.833 51 51c-24.042 0-44.198 16.636-49.586 39.024a41.787 41.787 0 0 0-2.828 0z" fill-rule="evenodd"></path>
  </symbol>
  <symbol id="facebook-f" viewBox="0 0 11 23">
    <path d="M2.355 7.962H0v4h2.355v10.974h4.837V11.962h3.246l.452-4.015H7.21V5.213c0-.408.53-.957 1.05-.957h2.636V.09H7.31c-5.076 0-4.956 4.004-4.956 4.6l.001 3.272z" fill-rule="evenodd"/>
  </symbol>
  <symbol id="twitter" viewBox="0 0 25 21">
    <path d="M22.088 3.258A5.064 5.064 0 0 0 24.305.46a10.087 10.087 0 0 1-3.203 1.227A5.038 5.038 0 0 0 17.42.091 5.053 5.053 0 0 0 12.505 6.3a14.319 14.319 0 0 1-10.4-5.283 5.048 5.048 0 0 0-.684 2.542c0 1.754.892 3.3 2.246 4.209a5.017 5.017 0 0 1-2.286-.633v.063c0 2.45 1.74 4.493 4.048 4.959a5.05 5.05 0 0 1-2.28.085 5.054 5.054 0 0 0 4.714 3.512 10.118 10.118 0 0 1-6.266 2.164c-.407 0-.81-.024-1.204-.07a14.268 14.268 0 0 0 7.734 2.271c9.28 0 14.355-7.703 14.355-14.385 0-.219-.004-.438-.014-.654a10.252 10.252 0 0 0 2.517-2.619 9.999 9.999 0 0 1-2.897.797z" fill-rule="evenodd"></path>
  </symbol>
  <symbol id="pinterest" viewBox="0 0 18 23">
    <path d="M9.402.068C3.198.068.068 4.526.068 8.242c0 2.251.85 4.253 2.674 5 .3.123.568.004.654-.328.06-.23.204-.81.267-1.05.088-.328.054-.443-.188-.73-.526-.62-.862-1.427-.862-2.566 0-3.307 2.468-6.267 6.43-6.267 3.506 0 5.433 2.147 5.433 5.015 0 3.774-1.665 6.958-4.14 6.958-1.366 0-2.387-1.132-2.06-2.521.392-1.658 1.15-3.447 1.15-4.644 0-1.071-.571-1.964-1.758-1.964-1.398 0-2.52 1.447-2.52 3.388 0 1.233.417 2.07.417 2.07l-1.68 7.13c-.498 2.117-.075 4.711-.039 4.974.021.155.22.19.31.074.13-.168 1.791-2.226 2.359-4.282.159-.582.917-3.597.917-3.597.455.867 1.78 1.631 3.191 1.631 4.198 0 7.046-3.836 7.046-8.969 0-3.881-3.28-7.496-8.267-7.496" fill-rule="evenodd"></path>
  </symbol>
  <symbol id="mayvenn-wave" viewBox="0 0 96 96">
    <g fill-rule="evenodd">
      <circle cx="48" cy="48" r="48" fill="#EBEBEB"></circle>
      <path d="M60.536 15.412c3.41 18.953-45.664 28.4-25.533 63.116-11.835-33.441 35.824-45.056 25.533-63.116m-1.672-5.616c8.554 5.425 8.104 13.847 2.25 21.506-6.495 8.615-16.207 15.444-21.352 24.953-6.11 11.296-6.174 29.93 12.285 29.612-6.56-.128-10.162-3.893-11.705-7.786-6.69-17.358 17.943-33.185 24.76-46.27 4.503-8.677 5.789-15.888-6.238-22.015M28.636 59.638c-.58-6.957 2.894-12.827 7.396-17.421 6.626-6.831 15.757-13.021 18.651-17.679-12.412 10.401-31.384 13.21-26.047 35.1" fill="#40CBAC"></path>
    </g>
  </symbol>
  <symbol id="play-video" viewBox="0 0 64 64">
    <g fill-rule="evenodd">
      <circle cx="32" cy="32" r="32"></circle>
      <path d="M22 44V20l24 12z" fill="#FFFFFF"></path>
    </g>
  </symbol>
  <symbol id="interlocked-hearts" viewBox="0 0 135 80">
    <g fill="none">
      <path d="M42.848 10.036l-2.022-2.203c-9.111-9.11-23.883-9.11-32.993 0-9.11 9.112-9.11 23.882 0 32.993l38.492 38.49 38.491-38.49c9.112-9.11 9.112-23.882.001-32.993"/>
      <path d="M91.85 10.04l1.974-2.051c9.111-9.112 23.883-9.112 32.993 0 9.111 9.11 9.111 23.881 0 32.992l-38.492 38.49-38.49-38.49c-9.113-9.11-9.113-23.882-.002-32.993 9.111-9.111 24.938-9.578 35.147.17"/>
    </g>
  </symbol>
  <symbol id="faqs" viewBox="0 0 46 52">
    <g fill-rule="evenodd">
      <path fill="none" stroke-width="2" d="M36 37h8V1H1v36h26v11z"/>
      <text font-family="Avenir-Light, Avenir" font-size="28" transform="translate(1 -14)">
        <tspan x="14" y="44">?</tspan>
      </text>
    </g>
  </symbol>
  <symbol id="circled-exclamation" viewBox="0 0 18 18">
    <circle stroke="currentColor" fill="none" r="8" cx="9" cy="9"/>
    <path stroke="currentColor" fill="none" d="M9 4v7"/>
    <circle stroke="none" fill="currentColor" r="1" cx="9" cy="13"/>
  </symbol>
  <symbol id="dropdown-arrow" viewBox="0 0 18 18" fill="none">
    <path d="M0 4 l9 9l9 -9"></path>
  </symbol>
  <symbol id="left-caret" viewBox="0 0 50 100" fill="none" stroke-width="7">
    <path d="M 45,90 L 10,50 L45,10"></path>
  </symbol>
  <symbol id="thick-left-arrow" viewBox="0 0 22 19">
    <path d="M21.284 9.577c0-.352-.139-.688-.385-.936a1.308 1.308 0 0 0-.929-.387H5.565l5.34-5.016a1.328 1.328 0 0 0 .097-1.902 1.314 1.314 0 0 0-.939-.42c-.356-.006-.7.135-.952.39L1.332 8.608a1.332 1.332 0 0 0 0 1.936l7.78 7.304c.53.499 1.362.47 1.857-.065a1.332 1.332 0 0 0-.064-1.87L5.565 10.9H19.97c.35 0 .683-.14.929-.387.246-.248.385-.584.385-.936z" fill="#FFF" fill-rule="evenodd"/>
  </symbol>
 
  <symbol id="minus-sign" viewBox="0 0 30 28">
    <g>
      <rect width="28" height="26" x="1" y="1" fill="none" stroke="#CCC" shape-rendering="geometricPrecision" rx="5"/>
      <path d="M 11,14 L 19,14" stroke-linecap="square" stroke="black" />
    </g>
  </symbol>

  <symbol id="plus-sign" viewBox="0 0 30 28">
    <g>
      <rect width="28" height="26" x="1" y="1" fill="none" stroke="#CCC" shape-rendering="geometricPrecision" rx="5"/>
      <path d="M 15,9 L 15,19
               M 10,14 L 20,14"
            stroke-linecap="square"
            stroke="black" />
    </g>
  </symbol>

  <symbol id="consolidated-trash-can" viewBox="0 0 13 15" >
    <path d="M.667 5.296V4.194c0-.608.47-1.101 1.05-1.101h2.101V1.99c0-.609.47-1.102 1.05-1.102H8.02c.279 0 .546.116.743.323.197.206.308.487.308.779v1.102h2.1c.28 0 .546.116.743.322.197.207.308.487.308.78v1.101c0 .292-.11.573-.308.78a1.026 1.026 0 0 1-.742.322v5.51a2.26 2.26 0 0 1-.616 1.557 2.053 2.053 0 0 1-1.485.646H3.818a2.053 2.053 0 0 1-1.485-.646 2.26 2.26 0 0 1-.616-1.558V6.398c-.278 0-.545-.116-.742-.323a1.13 1.13 0 0 1-.308-.779zm9.454 6.611V6.398H2.768v5.51c0 .608.47 1.101 1.05 1.101h5.253c.278 0 .546-.116.743-.322a1.13 1.13 0 0 0 .307-.78zM4.87 1.991v1.102H8.02V1.99H4.87zM1.717 4.194v1.102h9.455V4.194H1.717zm2.505 7.556a.41.41 0 0 1-.314-.156.588.588 0 0 1-.13-.375V8.03c0-.293.199-.531.444-.531.246 0 .445.238.445.531v3.188a.588.588 0 0 1-.13.375.41.41 0 0 1-.315.156zm2.222 0a.41.41 0 0 1-.314-.156.588.588 0 0 1-.13-.375V8.03c0-.293.199-.531.444-.531.246 0 .445.238.445.531v3.188a.588.588 0 0 1-.13.375.41.41 0 0 1-.315.156zm2.223 0a.41.41 0 0 1-.315-.156.588.588 0 0 1-.13-.375V8.03c0-.293.199-.531.445-.531.245 0 .444.238.444.531v3.188a.588.588 0 0 1-.13.375.41.41 0 0 1-.314.156z" fill="#AAA" fill-rule="evenodd"/>
  </symbol>

  <symbol id="trash-can" viewBox="0 0 30 30">
    <path fill="#666" fill-rule="nonzero" d="M28.17 3.508h-7.42V1.735C20.75.775 19.827 0 18.682 0H10.56C9.378 0 8.492.775 8.492 1.735v1.773H1.07a1.071 1.071 0 0 0 0 2.14h1.735l1.625 19.865c0 2.178 1.809 3.987 4.024 3.987h12.332c2.215 0 4.024-1.772 4.024-3.95l1.625-19.938h1.735c.59 0 1.07-.48 1.07-1.07 0-.591-.48-1.034-1.07-1.034zm-17.574.036V2.141h8.05v1.403h-8.05zm13.698 2.068l-1.587 19.79v.074c0 1.033-.887 1.92-1.92 1.92H8.418c-1.034 0-1.92-.887-1.92-1.957L4.874 5.612h19.42z"/>
  </symbol>

  <symbol id="discount-tag" viewBox="0 0 104 104">
    <path fill-rule="evenodd" d="M48.113 28.003a1.995 1.995 0 0 1 1.526.583l24.973 24.973a2 2 0 0 1 0 2.829L56.388 74.612a2 2 0 0 1-2.829 0L28.586 49.64a1.999 1.999 0 0 1-.528-1.892V30a2 2 0 0 1 2-2H48c.038 0 .075.001.113.003zm-6.555 18.208a4.5 4.5 0 1 0 0-9 4.5 4.5 0 0 0 0 9z"/>
  </symbol>

  <symbol id="share-arrow" viewBox="0 0 54 45">
    <path d="M.914 44.88a1.501 1.501 0 0 0 1.628-.301C9.92 37.454 19.622 33.384 30 33.026V43.5a1.5 1.5 0 0 0 2.56 1.06l21-21a1.499 1.499 0 0 0 0-2.12l-21-21A1.499 1.499 0 1 0 30 1.5v10.535C13.324 12.82 0 26.633 0 43.5a1.5 1.5 0 0 0 .914 1.38zM31.5 15a1.5 1.5 0 0 0 1.5-1.5V5.122L50.38 22.5 33 39.878V31.5a1.5 1.5 0 0 0-1.5-1.5c-10.466 0-20.375 3.516-28.283 9.97C4.961 25.914 16.98 15 31.5 15z"/>
  </symbol>

  <symbol id="celebration-horn" viewBox="0 0 45 44">
    <path stroke-width="2" d="M26.777 34.106c.14-.077.274-.166.388-.28v-.001c.192-.192.33-.427.414-.675.084-.248.118-.507.118-.773-.003-.614-.175-1.272-.467-1.997-.44-1.085-1.163-2.318-2.117-3.628a34.776 34.776 0 0 0-3.5-4.057c-1.819-1.818-3.673-3.318-5.34-4.376-.835-.53-1.622-.949-2.346-1.242-.725-.292-1.384-.464-1.998-.467-.265 0-.524.035-.773.119a1.734 1.734 0 0 0-.673.414c-.117.115-.207.25-.283.392a.653.653 0 0 0-.067.123L1.563 38.45a3.32 3.32 0 0 0-.255 1.267c0 .9.378 1.72.971 2.312.592.593 1.412.97 2.312.97.416 0 .847-.081 1.267-.255l20.794-8.57a.703.703 0 0 0 .125-.068zM11.43 18.089a.393.393 0 0 1 .159-.093c.078-.026.191-.047.341-.047.346-.002.873.115 1.496.37.937.378 2.097 1.05 3.342 1.958a33.479 33.479 0 0 1 3.899 3.365c1.755 1.755 3.2 3.545 4.191 5.11.497.78.88 1.506 1.132 2.13.254.624.371 1.15.368 1.496 0 .15-.02.263-.047.342a.395.395 0 0 1-.093.159.396.396 0 0 1-.156.091h-.003a1.075 1.075 0 0 1-.341.048c-.346.002-.873-.115-1.496-.369-.937-.379-2.097-1.051-3.342-1.958a33.435 33.435 0 0 1-3.899-3.366c-1.755-1.755-3.2-3.545-4.191-5.11-.497-.781-.88-1.506-1.132-2.13-.254-.624-.371-1.15-.368-1.496 0-.145.02-.255.044-.333l.019-.044a.396.396 0 0 1 .077-.123zM5.348 41.507a1.971 1.971 0 0 1-.757.154c-.52 0-1.005-.22-1.365-.579a1.936 1.936 0 0 1-.578-1.365c0-.242.046-.494.154-.756l7.596-18.43.02.056c.44 1.085 1.163 2.317 2.117 3.628a34.776 34.776 0 0 0 3.5 4.057c1.819 1.818 3.673 3.317 5.34 4.376.834.53 1.622.948 2.346 1.242l.057.02-18.43 7.597zM25.564 18.924a.67.67 0 0 0 .822-.469c.195-.723.704-1.532 1.365-2.19.658-.662 1.467-1.17 2.191-1.365 1.022-.283 1.986-.914 2.784-1.71.795-.798 1.427-1.762 1.71-2.784a.67.67 0 1 0-1.292-.353c-.195.723-.703 1.532-1.365 2.19-.658.662-1.467 1.17-2.19 1.366-1.022.282-1.986.914-2.785 1.71-.795.797-1.426 1.761-1.71 2.783a.669.669 0 0 0 .47.822zM32.822 21.273a.67.67 0 0 0 .81 1.066c.448-.343 1.085-.537 1.73-.536.644 0 1.28.193 1.729.536.73.553 1.639.807 2.54.809.9-.002 1.808-.256 2.539-.809a.67.67 0 0 0-.81-1.066c-.448.343-1.085.537-1.73.536-.645.001-1.28-.193-1.729-.536-.731-.552-1.64-.807-2.54-.808-.9 0-1.808.255-2.539.808zM21.396 11.1a.67.67 0 0 0 .947-.005c.783-.8 1.165-1.914 1.168-3.012 0-.7-.16-1.406-.513-2.024-.22-.38-.336-.86-.335-1.358-.003-.783.294-1.584.782-2.071a.67.67 0 1 0-.953-.941c-.783.799-1.165 1.913-1.169 3.012 0 .701.16 1.405.513 2.024.22.38.336.86.336 1.358.003.782-.294 1.584-.782 2.071a.67.67 0 0 0 .006.947zM12.815 8.775h.136c.264 0 .523-.107.71-.294.187-.187.294-.446.294-.71v-.137c0-.264-.107-.523-.294-.71a1.011 1.011 0 0 0-.71-.294h-.136c-.265 0-.524.107-.71.294a1.011 1.011 0 0 0-.295.71v.136c0 .265.107.523.294.71.187.188.446.295.71.295zM35.615 28.422c-.264 0-.523.107-.71.294a1.011 1.011 0 0 0-.294.71v.136c0 .265.107.523.294.71.187.188.445.294.71.294h.136c.265 0 .523-.107.71-.293.187-.187.295-.446.295-.71v-.137c0-.264-.107-.523-.294-.71a1.011 1.011 0 0 0-.71-.295h-.137zM41.985 11.302h.136c.264 0 .523-.107.71-.294.187-.187.294-.446.294-.71v-.136c0-.264-.107-.523-.294-.71a1.011 1.011 0 0 0-.71-.295h-.136c-.264 0-.523.107-.71.295a1.011 1.011 0 0 0-.295.71v.136c0 .264.107.523.295.71.187.187.446.294.71.294zM10.483 17.142z"/>
  </symbol>
  <symbol id="coin-in-slot" viewBox="0 0 41 26">
    <path fill="#000" fill-rule="nonzero" d="M37.522 19.962h-2.71c.488-1.467.755-3.067.755-4.667 0-8.4-6.845-15.244-15.245-15.244-8.4 0-15.244 6.8-15.244 15.244 0 1.644.266 3.2.755 4.667h-2.71c-1.556 0-2.8 1.244-2.8 2.755 0 1.556 1.244 2.756 2.8 2.756h34.443a2.74 2.74 0 0 0 2.756-2.756c0-1.51-1.244-2.755-2.8-2.755zM21.3 22.717v-.8c1.556-.266 2.667-1.022 3.289-2 .4-.622.578-1.289.578-2.044 0-1.956-1.067-3.156-3.645-4.09-1.866-.71-2.622-1.155-2.622-1.866 0-.622.444-1.2 1.867-1.2.755 0 1.422.134 1.91.267.667.222 1.379-.222 1.556-.889A1.272 1.272 0 0 0 23.3 8.54a7.992 7.992 0 0 0-1.956-.266v-.845c0-.577-.488-1.066-1.066-1.066-.578 0-1.067.489-1.067 1.066v1.023c-2.311.444-3.689 1.955-3.689 3.866 0 2.09 1.6 3.2 3.911 4 1.6.534 2.311 1.067 2.311 1.911 0 .89-.844 1.334-2.088 1.334-.845 0-1.645-.178-2.356-.4a1.26 1.26 0 0 0-1.6.8v.044l-.044.09c-.178.621.177 1.288.8 1.51.755.267 1.688.445 2.622.49v.666H10.01c-.622-.845-1.155-1.778-1.511-2.8a12.632 12.632 0 0 1-.889-4.667C7.611 8.273 13.3 2.54 20.322 2.54s12.711 5.69 12.711 12.712a12.46 12.46 0 0 1-.889 4.666c-.4.978-.888 1.911-1.51 2.8H21.3z"/>
  </symbol>
  <symbol id="stack-o-cash" viewBox="0 0 38 31" >
    <path fill="#000" fill-rule="nonzero" stroke="#000" stroke-width=".2" d="M37.584 19.396l-1.44-1.022 1.273-.463a.665.665 0 0 0 .438-.521.633.633 0 0 0-.271-.613l-1.44-1.022 1.273-.463a.66.66 0 0 0 .438-.521.633.633 0 0 0-.271-.614l-1.44-1.022 1.273-.462a.66.66 0 0 0 .438-.522.633.633 0 0 0-.271-.613l-1.44-1.022 1.273-.463a.66.66 0 0 0 .438-.521.633.633 0 0 0-.271-.613L26.58 1.13a.73.73 0 0 0-.643-.096L18.226 3.58l-.212-.171a.72.72 0 0 0-.672-.117L9.659 5.84a.667.667 0 0 0-.455.5.512.512 0 0 0 .005.226L1.092 9.211a.669.669 0 0 0-.45.48.625.625 0 0 0 .204.612l1.322 1.177-1.076.35a.669.669 0 0 0-.45.48.625.625 0 0 0 .204.613l1.322 1.176-1.076.35a.669.669 0 0 0-.45.48.625.625 0 0 0 .204.613l1.322 1.176-1.076.35a.667.667 0 0 0-.45.485.625.625 0 0 0 .204.613l1.322 1.176-1.076.35a.667.667 0 0 0-.45.484.625.625 0 0 0 .204.613L10.98 29.8c.13.116.3.179.476.179a.75.75 0 0 0 .25-.042l8.58-3.12v.213c0 .217.112.421.304.547a.723.723 0 0 0 .647.066l7.065-2.653a.658.658 0 0 0 .434-.608v-.618l8.68-3.232a.665.665 0 0 0 .438-.522.64.64 0 0 0-.271-.613zM10.25 7.613l9.427 7.537-8.067 2.932-8.984-7.987 7.624-2.482zm10.036 17.794l-8.676 3.157-8.984-7.987.675-.221 7.675 6.823c.13.117.3.18.476.18a.75.75 0 0 0 .25-.042l8.592-3.124-.008 1.214zm.008-2.624l-8.688 3.157-8.98-7.983.675-.22 7.675 6.823c.13.117.3.18.476.18a.75.75 0 0 0 .25-.042l8.6-3.129-.008 1.214zm.013-2.624l-8.697 3.162-8.984-7.983.675-.221 7.675 6.82c.13.116.3.179.476.179a.75.75 0 0 0 .25-.042l8.609-3.132-.004 1.217zm.008-2.623l-8.71 3.166-8.98-7.988.676-.22 7.675 6.823c.13.117.3.18.476.18a.75.75 0 0 0 .25-.042l8.617-3.141-.004 1.222zm6.924 6.377l-5.43 2.065.012-10.615a.63.63 0 0 0-.246-.5l-10.34-8.238 6.156-2.053 9.752 7.725.092.188v11.428h.004zM19.46 4.564l6.583-2.177 9.71 6.865-6.966 2.553-9.326-7.24zm9.277 9.935v-1.218l5.881-2.214 1.13.805-7.01 2.627zm7.016-.008l-7.016 2.628V15.9l5.881-2.215 1.135.805zm-7.016 7.87v-1.217l5.881-2.215 1.135.805-7.016 2.628zm0-2.619v-1.218l5.881-2.214 1.135.805-7.016 2.627z"/>
  </symbol>
  <symbol id="icon-sms" viewBox="0 0 112 102">
    <g fill-rule="evenodd" transform="translate(.055 .107)">
      <path fill="#FFF" d="M4 4h105v71H54.33L23.863 98.214 25.163 75H4z"/>
      <ellipse cx="77.012" cy="39.51" fill="#000" fill-rule="nonzero" rx="6.188" ry="6.131"/>
      <ellipse cx="56.613" cy="39.51" fill="#000" fill-rule="nonzero" rx="6.188" ry="6.131"/>
      <ellipse cx="36.328" cy="39.51" fill="#000" fill-rule="nonzero" rx="6.188" ry="6.131"/>
      <path fill="#000" fill-rule="nonzero" d="M23.15 100.932c-.459 0-.803-.114-1.147-.227-.916-.455-1.49-1.476-1.375-2.498l1.146-19.982H3.21c-1.49 0-2.636-1.135-2.636-2.611V2.838c0-1.476 1.146-2.61 2.636-2.61h105.547c1.49 0 2.636 1.134 2.636 2.61v72.776c0 1.476-1.146 2.61-2.636 2.61H51.57l-26.816 22.14c-.459.34-1.032.568-1.605.568zM5.844 73.002h18.794c.688 0 1.375.34 1.948.795.459.568.803 1.249.688 1.93l-1.031 16.69L49.049 73.57a2.832 2.832 0 0 1 1.72-.568h55.58V5.45H5.846v67.552z"/>
    </g>
  </symbol>
  <symbol id="icon-call" viewBox="0 0 116 115">
    <g fill-rule="evenodd" transform="translate(1 .457)">
      <circle cx="56.5" cy="54.606" r="54.5" fill="#FFF" stroke="#979797"/>
      <path fill="#000" fill-rule="nonzero" stroke="#000" stroke-width="2" d="M56.91 1.053C25.833 1.053.605 26.045.605 56.833c0 30.789 25.228 55.744 56.305 55.744 31.078 0 56.305-24.955 56.305-55.743 0-30.789-25.227-55.781-56.305-55.781zm0 3.111c29.376 0 53.164 23.567 53.164 52.67 0 29.102-23.788 52.669-53.164 52.669S3.746 85.936 3.746 56.833c0-29.102 23.788-52.669 53.164-52.669zm-18.2 24.704c-.288.003-.56.04-.833.113a3.669 3.669 0 0 0-1.438.787c-.806.702-1.38 1.65-1.778 2.811-4.155 12.1-2.036 25.985 6.66 36.813 8.695 10.828 22.032 16.201 35.114 15.257 1.25-.09 2.323-.384 3.217-.975.893-.59 1.611-1.652 1.551-2.811l-.53-10.047c-.063-1.21-.725-2.166-1.475-2.849a5.583 5.583 0 0 0-2.611-1.35l-7.266-1.574c-.026-.012-.05.012-.075 0-1.425-.364-2.783-.342-3.822.3-1.058.654-1.522 1.61-2.043 2.55a1.554 1.554 0 0 0-.076.15l-1.022 2.398-1.324-.6a1.58 1.58 0 0 0-.076-.037c-4.234-1.691-7.03-3.78-10.254-7.422-2.922-3.992-4.373-7.147-5.033-11.584v-.037l-.265-1.387 2.65-.337c.063-.009.126-.022.188-.038 1.07-.26 2.115-.467 3.028-1.312.896-.83 1.263-2.12 1.248-3.561v-.075l.227-7.198v-.037c.024-.98-.26-1.943-.757-2.812-.503-.88-1.292-1.714-2.46-2.061L39.58 28.98a3.005 3.005 0 0 0-.87-.112zm-.038 3.112l9.876 2.924c.124.037.423.253.643.637.22.384.35.907.34 1.2l-.226 7.272v.075c.02 1.028-.14 1.195-.265 1.312-.115.106-.648.345-1.476.562h-.076c-.046.012-.027.026-.075.038l-4.087.525c-.425.051-.81.272-1.068.612-.257.34-.363.768-.294 1.187l.53 2.924c.002.013-.003.025 0 .037.73 4.87 2.457 8.691 5.562 12.933.023.04.049.077.076.113 3.48 3.96 6.863 6.486 11.54 8.36h.038l2.8 1.237c.386.167.824.174 1.215.019.391-.155.703-.46.867-.844l1.551-3.711c.015-.028.023-.012.038-.037l.038-.113c.413-.712.77-1.153.908-1.237.151-.094.329-.199 1.362.074h.076l7.378 1.575c.32.068.805.337 1.135.637.33.3.45.577.454.675l.53 10.046c-.001-.029.1-.09-.151.075-.252.166-.842.387-1.703.45-12.064.87-24.392-4.089-32.428-14.096-8.036-10.007-9.944-22.744-6.13-33.85.27-.788.644-1.303.87-1.5.226-.196.152-.112.152-.112z"/>
    </g>
  </symbol>
  <symbol id="icon-email" viewBox="0 0 113 79">
    <g fill-rule="evenodd">
      <path fill="#FFF" d="M1.598 3.21h108v72h-108z"/>
      <path fill="#000" fill-rule="nonzero" d="M106.893.904H6.193C3.161.904.597 3.444.597 6.446v66.047c0 3.002 2.564 5.543 5.594 5.543H106.66c3.03 0 5.595-2.54 5.595-5.543V6.446c.233-3.002-2.331-5.542-5.362-5.542zM56.543 51.94L8.523 5.522h96.04L56.542 51.94zM37.195 39.7L5.26 70.416V8.755l31.935 30.946zm3.263 3.234L54.911 56.79c.932.923 2.331.923 3.263 0l14.453-14.087 31.702 30.714H8.756l31.702-30.483zM75.89 39.7l31.936-30.946v61.66L75.89 39.7z"/>
    </g>
  </symbol>
  <symbol id="box-package" viewBox="0 0 32 38">
    <path fill="#000" fill-rule="nonzero" d="M16.03.298L.413 9.668v18.743l15.615 9.37 15.615-9.37V9.67L16.03.299zm0 3.07l4.382 2.63L8.368 12.86l-4.101-2.433 11.762-7.06zm-1.165 30.645L2.972 26.876V12.719l3.949 2.343v3.978l2.345 1.365v-3.95l5.6 3.322v14.236zm-4.057-19.705L22.716 7.38l5.12 3.073-11.677 7.031-5.351-3.176zm18.28 12.568l-11.666 7v-14.08l11.665-7.025v14.105z"/>
  </symbol>
  <symbol id="quadpay-logo" viewBox="0 0 86 16">
    <g fill-rule="nonzero" fill="none">
      <path d="M14.343 11.373l-1.359-1.68a.349.349 0 0 0-.271-.129H5.76C3.866 9.377 2.436 7.857 2.436 6.03c0-1.96 1.666-3.554 3.713-3.554a3.79 3.79 0 0 1 2.501.928c.685.597.935 1.41 1.02 2.289l.004.06v1.904c0 .193.156.35.349.35h1.834a.349.349 0 0 0 .35-.35 295.4 295.4 0 0 0-.006-1.97C12.007 2.579 9.33.147 6.106.147 2.739.147 0 2.792 0 6.044c0 3.058 2.375 5.582 5.524 5.87.02.002.119.008.571.026l3.086.001h.494v1.843c0 .117.059.226.156.29l1.84 1.217a.349.349 0 0 0 .54-.291V11.94H14.071a.349.349 0 0 0 .27-.568z" fill="#1D73EC"/>
      <path d="M16.038 7.713c0 2.534 2.217 4.434 4.958 4.434 2.758 0 4.993-1.9 4.993-4.434V.63c0-.167-.157-.317-.332-.317H23.51a.324.324 0 0 0-.332.317v6.95c0 1.217-.925 1.9-2.182 1.9-1.24 0-2.147-.683-2.147-1.9V.63a.324.324 0 0 0-.332-.317h-2.148c-.174 0-.331.15-.331.317v7.083zm11.819 4.267c-.262 0-.402-.217-.297-.433L33.025.33a.356.356 0 0 1 .296-.183h.175c.122 0 .244.083.297.183l5.464 11.217c.105.216-.035.433-.297.433h-1.938c-.314 0-.453-.1-.61-.417l-.63-1.316h-4.748l-.628 1.333a.65.65 0 0 1-.629.4h-1.92zm4.225-4h2.653L33.41 5.23h-.018l-1.31 2.75zm9.253 3.683V.63a.32.32 0 0 1 .314-.317h4.26c3.37 0 6.128 2.617 6.128 5.817 0 3.233-2.759 5.85-6.128 5.85h-4.26a.32.32 0 0 1-.314-.317zm2.723-2.15h1.833c1.973 0 3.247-1.483 3.247-3.383 0-1.883-1.274-3.367-3.247-3.367h-1.833v6.75zm10.754 2.15V.63c0-.167.14-.317.332-.317h4.208c2.304 0 3.91 1.667 3.91 3.684 0 2.066-1.606 3.75-3.893 3.75h-1.833v3.916c0 .167-.157.317-.332.317h-2.06a.324.324 0 0 1-.332-.317zm2.724-6.35h1.763c.75 0 1.275-.566 1.275-1.316 0-.7-.524-1.234-1.275-1.234h-1.763v2.55zm6.005 6.667c-.261 0-.401-.217-.296-.433L68.709.33a.356.356 0 0 1 .297-.183h.174c.123 0 .245.083.297.183l5.465 11.217c.104.216-.035.433-.297.433h-1.938c-.314 0-.454-.1-.611-.417l-.629-1.316H66.72l-.629 1.333a.65.65 0 0 1-.628.4h-1.92zm4.225-4h2.654l-1.327-2.75h-.017l-1.31 2.75zm10.528 3.683v-5.3L74.435.797c-.14-.217 0-.484.28-.484h2.27a.35.35 0 0 1 .279.15L79.69 3.88 82.117.463c.052-.066.122-.15.28-.15h2.269c.28 0 .419.267.28.484l-3.911 5.55v5.316c0 .167-.158.317-.332.317h-2.078a.324.324 0 0 1-.331-.317z" fill="#13131F"/>
    </g>
  </symbol>
  <symbol id="position" viewBox="0 0 30 41">
    <g fill="none" fill-rule="evenodd">
      <path d="m15.127 0C7.063 0 .5 6.363.5 14.188c0 5.734 3.527
               10.873 8.986 13.09.387.158.688.468.826.854L14.747 40.5l4.903-12.307a1.47 1.47 0
               01.837-.819c5.627-2.155 9.263-7.331 9.263-13.187C29.754 6.365 23.192 0 15.128
               0h-.001zm-.002 21.1a6.273 6.273 0 01-6.268-6.265 6.275 6.275 0 016.268-6.268
               6.274 6.274 0 016.268 6.268 6.272 6.272 0 01-6.268 6.265z" fill="#7E006D"/>
      <path d="m15.125 21.1a6.273 6.273 0 01-6.268-6.265 6.275 6.275 0 016.268-6.268 6.274 6.274 0 016.268 6.268 6.272 6.272 0 01-6.268 6.265z" fill="#FFF"/>
    </g>
  </symbol>
  <symbol id="info" viewBox="0 0 14 14">
    <path d="M7.926 4.29a.926.926 0 11-1.851-.001.926.926 0 011.851 0zM7.77 6.824v3.053a.77.77 0 11-1.54 0V6.825a.77.77 0 011.54 0zM7 .333a6.667 6.667 0 110 13.334A6.667 6.667 0 017 .333zm3.876 10.543a5.484 5.484 0 00.033-7.785 5.48 5.48 0 00-7.785.033 5.484 5.484 0 00-.033 7.785 5.48 5.48 0 007.785-.033z" fill="#FFF" fill-rule="evenodd"/>
  </symbol>
  <symbol id="angle-arrow" viewBox="0 0 18 18">
    <path fill="#4427c1" d="M3 11.125v.813h8.125V16L16 11.125 11.125 6.25v4.063h-6.5V3H3z" fill-rule="evenodd"/>
  </symbol>
  <symbol id="lock" viewBox="0 0 17 23">
    <path d="M14.75 8.167V5.944c0-1.473-.548-2.886-1.526-3.928C12.248.974 10.923.39 9.542.39H7.458c-1.38 0-2.705.585-3.682 1.627C2.799 3.058 2.25 4.471 2.25 5.944v2.223c-1.15 0-2.083.994-2.083 2.222v10c0 .59.22 1.154.61 1.571.39.417.92.651 1.473.651h12.5a2.02 2.02 0 0 0 1.473-.65 2.3 2.3 0 0 0 .61-1.572v-10a2.3 2.3 0 0 0-.61-1.571 2.02 2.02 0 0 0-1.473-.651zm-5.208 7.477v3.634H7.458v-3.634c-.816-.503-1.215-1.528-.97-2.5.244-.97 1.069-1.647 2.012-1.647.943 0 1.768.677 2.013 1.648.244.971-.155 1.996-.971 2.499zm2.083-7.477h-6.25V5.944c0-1.227.933-2.222 2.083-2.222h2.084a2.02 2.02 0 0 1 1.473.651c.39.417.61.982.61 1.571v2.223z" fill="#000" fill-rule="evenodd"/>
  </symbol>
  <symbol id="forward-arrow" viewBox="0 0 15 13">
    <path fill-rule="evenodd" clip-rule="evenodd" d="M0 6.21a.97.97 0 00.269.674.9.9 0 00.648.28h10.059l-3.729 3.61a.976.976 0 00-.068 1.37c.17.188.407.297.656.301a.902.902 0 00.664-.28l5.432-5.257a.973.973 0 00.291-.696.973.973 0 00-.29-.697L8.498.257a.893.893 0 00-1.297.047.98.98 0 00.045 1.347l3.729 3.607H.917a.9.9 0 00-.648.28.97.97 0 00-.27.673z" fill="#fff"/>
  </symbol>
  <symbol id="empty-star" viewBox="0 0 80 77">
    <path fill-rule="evenodd" clip-rule="evenodd" d="M40 0a4 4 0 013.605 2.267l9.956 20.718 22.218 3.316a4 4 0 012.24 6.783L61.88 49.242l3.814 22.842a4 4 0 01-5.845 4.178L40 65.546 20.152 76.262a4 4 0 01-5.845-4.178l3.814-22.842-16.14-16.158a4 4 0 012.24-6.783l22.218-3.316 9.956-20.718A4 4 0 0140 0zm0 13.235l-7.269 15.126a4 4 0 01-3.015 2.224l-16.47 2.458 11.99 12.002a4 4 0 011.115 3.485l-2.807 16.81L38.1 57.48a4 4 0 013.8 0l14.556 7.86-2.807-16.81a4 4 0 011.116-3.486l11.988-12.001-16.47-2.458a4 4 0 01-3.014-2.224L40 13.235z" fill="#FFC520"/>
  </symbol>
  <symbol id="half-star" viewBox="0 0 80 77">
    <path d="M18.252 72.743L40 61V4L29.126 26.629 4.811 30.257l17.595 17.614-4.154 24.872z" fill="#FFC520"/>
    <path fill-rule="evenodd" clip-rule="evenodd" d="M40 0a4 4 0 013.605 2.267l9.956 20.718 22.218 3.316a4 4 0 012.24 6.783L61.88 49.242l3.814 22.842a4 4 0 01-5.845 4.178L40 65.546 20.152 76.262a4 4 0 01-5.845-4.178l3.814-22.842-16.14-16.158a4 4 0 012.24-6.783l22.218-3.316 9.956-20.718A4 4 0 0140 0zm0 13.235l-7.269 15.126a4 4 0 01-3.015 2.224l-16.47 2.458 11.99 12.002a4 4 0 011.115 3.485l-2.807 16.81L38.1 57.48a4 4 0 013.8 0l14.556 7.86-2.807-16.81a4 4 0 011.116-3.486l11.988-12.001-16.47-2.458a4 4 0 01-3.014-2.224L40 13.235z" fill="#FFC520"/>
  </symbol>
  <symbol id="three-quarter-star" viewBox="0 0 80 77">
    <path d="M18.252 72.743L40 61l10.874 5.871V26.63L40 4 29.126 26.629 4.811 30.257l17.595 17.614-4.154 24.872z" fill="#FFC520"/>
    <path fill-rule="evenodd" clip-rule="evenodd" d="M40 0a4 4 0 013.605 2.267l9.956 20.718 22.218 3.316a4 4 0 012.24 6.783L61.88 49.242l3.814 22.842a4 4 0 01-5.845 4.178L40 65.546 20.152 76.262a4 4 0 01-5.845-4.178l3.814-22.842-16.14-16.158a4 4 0 012.24-6.783l22.218-3.316 9.956-20.718A4 4 0 0140 0zm0 13.235l-7.269 15.126a4 4 0 01-3.015 2.224l-16.47 2.458 11.99 12.002a4 4 0 011.115 3.485l-2.807 16.81L38.1 57.48a4 4 0 013.8 0l14.556 7.86-2.807-16.81a4 4 0 011.116-3.486l11.988-12.001-16.47-2.458a4 4 0 01-3.014-2.224L40 13.235z" fill="#FFC520"/>
  </symbol>
  <symbol id="whole-star" viewBox="0 0 80 77">
    <path fill-rule="evenodd" clip-rule="evenodd" d="M40 61L18.252 72.743l4.154-24.872L4.81 30.257l24.315-3.628L40 4l10.874 22.629 24.315 3.628-17.594 17.614 4.153 24.872L40 61z" fill="#FFC520"/>
    <path fill-rule="evenodd" clip-rule="evenodd" d="M40 0a4 4 0 013.605 2.267l9.956 20.718 22.218 3.316a4 4 0 012.24 6.783L61.88 49.242l3.814 22.842a4 4 0 01-5.845 4.178L40 65.546 20.152 76.262a4 4 0 01-5.845-4.178l3.814-22.842-16.14-16.158a4 4 0 012.24-6.783l22.218-3.316 9.956-20.718A4 4 0 0140 0zm0 13.235l-7.269 15.126a4 4 0 01-3.015 2.224l-16.47 2.458 11.99 12.002a4 4 0 011.115 3.485l-2.807 16.81L38.1 57.48a4 4 0 013.8 0l14.556 7.86-2.807-16.81a4 4 0 011.116-3.486l11.988-12.001-16.47-2.458a4 4 0 01-3.014-2.224L40 13.235z" fill="#FFC520"/>
  </symbol>
  <symbol id="chat-bubble" viewBox="0 0 15 14">
    <path d="M7.093.002c3.919 0 7.094 2.578 7.094 5.76 0 1.845-1.068 3.334-2.729 4.388l1.364 3.292-4.092-2.195c-.518.098-1.084.274-1.637.274C3.175 11.521 0 8.943 0 5.761 0 2.578 3.175 0 7.093 0v.002z"
          fill="#931280"
          fill-rule="evenodd"/>
  </symbol>
  <symbol id="swap-person" viewBox="0 0 21 22">
    <path d="M5.54 5.06A2.169 2.169 0 007.711 2.9c0-1.19-.975-2.159-2.173-2.159a2.168 2.168 0 00-2.172 2.16c0 1.19.974 2.159 2.172 2.159zm0 .553c-2.656 0-4.715 1.57-4.715 2.92 0 1.529 2.266 1.74 4.714 1.74 2.449 0 4.715-.211 4.715-1.74 0-1.35-2.06-2.92-4.715-2.92zm8.798 2.467h-.805a.28.28 0 00-.2.48l1.84 1.83a.283.283 0 00.4 0l1.841-1.83a.28.28 0 00-.2-.48h-.793c-.149-3.244-2.851-5.838-6.152-5.838a.282.282 0 00-.283.281v1.504c0 .156.127.281.283.281 2.154 0 3.923 1.668 4.07 3.772zm1.123 3.771a2.168 2.168 0 00-2.173 2.16c0 1.19.975 2.159 2.173 2.159a2.169 2.169 0 002.173-2.16c0-1.19-.975-2.159-2.173-2.159zm0 4.873c-2.655 0-4.714 1.57-4.714 2.92 0 1.528 2.265 1.739 4.714 1.739 2.448 0 4.714-.21 4.714-1.739 0-1.35-2.06-2.92-4.714-2.92zm-6.978 1.02c-2.154 0-3.923-1.667-4.07-3.771h.806a.283.283 0 00.261-.174.28.28 0 00-.061-.306l-1.84-1.83a.293.293 0 00-.4 0l-1.841 1.83a.28.28 0 00-.062.306.283.283 0 00.262.174h.793c.149 3.244 2.851 5.838 6.152 5.838a.282.282 0 00.283-.281v-1.504a.282.282 0 00-.283-.281z" fill="#AAA"/>
  </symbol>
  <symbol id="share-icon" viewBox="0 0 18 19" fill="none">
    <path d="M13.24 1.06a2.8 2.8 0 0 0-2.65 3.6L6.47 7.3a2.72 2.72 0 0 0-1.7-.61A2.8 2.8 0 0 0 2 9.5a2.8 2.8 0 0 0 2.76 2.81c.65 0 1.25-.23 1.72-.61l4.1 2.64c-.06.25-.1.51-.1.79a2.8 2.8 0 0 0 2.76 2.81A2.8 2.8 0 0 0 16 15.13a2.8 2.8 0 0 0-2.76-2.82c-.86 0-1.63.4-2.13 1.03l-3.91-2.5a2.83 2.83 0 0 0 0-2.67l3.9-2.51c.51.63 1.28 1.03 2.14 1.03A2.8 2.8 0 0 0 16 3.87a2.8 2.8 0 0 0-2.76-2.81zm0 1.12c.92 0 1.65.75 1.65 1.69s-.73 1.69-1.65 1.69c-.93 0-1.66-.75-1.66-1.69s.73-1.69 1.66-1.69zM4.76 7.81c.93 0 1.66.75 1.66 1.69s-.73 1.69-1.66 1.69c-.92 0-1.65-.75-1.65-1.69s.73-1.69 1.65-1.69zm8.48 5.63c.92 0 1.65.75 1.65 1.69s-.73 1.69-1.65 1.69c-.93 0-1.66-.75-1.66-1.69s.73-1.69 1.66-1.69z" fill="#175674"/>
    <path fill-rule="evenodd" clip-rule="evenodd" d="M9.97 3.87A3.3 3.3 0 0 1 13.24.56a3.3 3.3 0 0 1 3.26 3.31 3.3 3.3 0 0 1-3.26 3.32c-.86 0-1.63-.34-2.21-.89a7472.93 7472.93 0 0 1-3.2 2.06 3.3 3.3 0 0 1 0 2.28l3.2 2.06a3.22 3.22 0 0 1 2.2-.89 3.3 3.3 0 0 1 3.27 3.32 3.3 3.3 0 0 1-3.26 3.31 3.3 3.3 0 0 1-3.22-3.87L6.5 12.3c-.5.33-1.09.51-1.73.51A3.3 3.3 0 0 1 1.5 9.5a3.3 3.3 0 0 1 3.26-3.31c.64 0 1.23.18 1.73.5l3.53-2.26a3.2 3.2 0 0 1-.05-.56zm3.27-2.31a2.3 2.3 0 0 0-2.17 2.96l.1.36L6.44 7.9l-.28-.23c-.39-.3-.87-.5-1.4-.5A2.3 2.3 0 0 0 2.5 9.5a2.3 2.3 0 0 0 2.26 2.31c.53 0 1.01-.18 1.4-.5l.28-.23 4.73 3.04-.1.36a2.3 2.3 0 0 0 2.17 2.97 2.3 2.3 0 0 0 2.26-2.32 2.3 2.3 0 0 0-2.26-2.32c-.7 0-1.33.33-1.74.85l-.29.34-4.67-3 .22-.4a2.33 2.33 0 0 0 0-2.2L6.53 8l.38-.25 2.94-1.88.98-.63.37-.24.29.34c.41.52 1.04.85 1.74.85a2.3 2.3 0 0 0 2.26-2.32 2.3 2.3 0 0 0-2.26-2.31zm0 1.12c-.64 0-1.16.52-1.16 1.19 0 .67.52 1.19 1.16 1.19.63 0 1.15-.52 1.15-1.19 0-.67-.52-1.19-1.15-1.19zm-2.16 1.19c0-1.2.95-2.19 2.16-2.19 1.2 0 2.15.98 2.15 2.19 0 1.2-.95 2.19-2.15 2.19-1.21 0-2.16-.98-2.16-2.19zM4.76 8.31c-.63 0-1.15.52-1.15 1.19 0 .67.52 1.19 1.15 1.19.64 0 1.16-.52 1.16-1.19 0-.67-.52-1.19-1.16-1.19zM2.61 9.5c0-1.2.95-2.19 2.15-2.19 1.21 0 2.16.98 2.16 2.19 0 1.2-.95 2.19-2.16 2.19-1.2 0-2.15-.98-2.15-2.19zm10.63 4.44c-.64 0-1.16.52-1.16 1.19 0 .67.52 1.19 1.16 1.19.63 0 1.15-.52 1.15-1.19 0-.67-.52-1.19-1.15-1.19zm-2.16 1.19c0-1.2.95-2.19 2.16-2.19 1.2 0 2.15.98 2.15 2.19 0 1.2-.95 2.19-2.15 2.19-1.21 0-2.16-.98-2.16-2.19z" fill="#175674"/>
</symbol>
</svg>
