<svg xmlns="http://www.w3.org/2000/svg">
  <symbol id="circled-check" viewBox="0 0 14 14">
    <g fill="none" stroke-width=".5" stroke-linecap="round">
      <path d="M9.61 5.17L5.7 8.83 4.39 7.52"></path>
      <circle r="6" cx="7" cy="7"></circle>
    </g>
  </symbol>
  <symbol id="check" viewBox="0 0 14 14">
    <g fill="none" stroke-width=".5" stroke-linecap="round">
      <path d="M9.61 5.17L5.7 8.83 4.39 7.52"></path>
    </g>
  </symbol>
  <symbol id="phone" viewBox="0 0 8 14">
    <path d="M5.792.926H1.394c-.734 0-1.32.59-1.32 1.326v10.311c0 .737.586 1.326 1.32 1.326h4.398c.733 0 1.32-.59 1.32-1.326V2.252c0-.737-.587-1.326-1.32-1.326zm-2.42 1.178h.44a.294.294 0 010 .59h-.44a.294.294 0 010-.59zm.954 10.606H2.86a.294.294 0 010-.589h1.466a.294.294 0 010 .59zm1.905-1.473H.954v-7.66H6.23v7.66z" fill="#931280" fill-rule="evenodd"/>
  </symbol>
  <symbol id="phone-ringing" viewBox="0 0 29 29">
    <g fill="none">
      <path stroke-width="1.2" d="M18.754 18.161a.582.582 0 0 0-.807-.014s-1.652 1.605-1.762 1.705a.353.353 0 0 1-.09.065c-1.718.864-7.918-5.728-6.736-6.968l1.768-1.72a.572.572 0 0 0 .008-.812L5.35 4.559a.578.578 0 0 0-.818-.007c-2.897 2.824-7.54 5.664 3.308 16.652 10.706 10.843 13.775 6.734 16.73 3.578a.573.573 0 0 0-.01-.796l-5.806-5.825zM23.778 13.878c.157-4.717-3.706-8.545-8.448-8.39M27.874 13.878c.154-6.96-5.53-12.61-12.544-12.458M15.33 9.555c2.477-.162 4.516 1.864 4.353 4.323"></path>
    </g>
  </symbol>
  <symbol id="closed-mail-envelope" viewBox="0 0 30 24">
    <g fill="none" stroke-width="1.25">
      <path d="M26.114 4.393l-9.909 8.91a2.037 2.037 0 0 1-2.687 0l-9.909-8.91M19.476 14.225l6.638 5.521M10.247 14.225L3.61 19.746"></path>
      <path d="M.625 4.306v15.527c0 1.58 1.281 2.86 2.928 2.86h22.885c1.646 0 2.937-1.28 2.937-2.86V4.306c0-1.58-1.29-2.863-2.937-2.863H3.553C1.906 1.443.625 2.726.625 4.306z"></path>
    </g>
  </symbol>
  <symbol id="message-bubble" viewBox="0 0 28 30">
    <g fill="none" transform="translate(0 .268)" stroke-width="1.184">
      <path d="M7.717 21.018C4.287 20.19.803 16.09.803 10.828c0-5.494 4.113-10.23 8.9-10.23h8.775c4.788 0 8.67 4.705 8.67 10.2 0 5.437-3.882 10.2-8.67 10.2h-2.764l-7.997 6.936v-6.916z"></path>
      <circle cx="7.915" cy="10.69" r="1.85"></circle>
      <circle cx="13.726" cy="10.69" r="1.85"></circle>
      <circle cx="19.537" cy="10.69" r="1.85"></circle>
    </g>
  </symbol>
  <symbol id="bag" viewBox="0 0 24 28">
    <path d="M17.31 9.772c.26 0 .498.216.498.498a.504.504 0 0 1-.498.498.49.49 0 0 1-.498-.498.49.49 0 0 1 .498-.498m-10.357 0a.49.49 0 0 1 .499.498.49.49 0 0 1-.499.498.504.504 0 0 1-.498-.498c0-.282.238-.498.498-.498M5.025 6.717h1.647V9.23c-.455.13-.78.542-.78 1.04 0 .585.476 1.083 1.061 1.083.607 0 1.084-.498 1.084-1.083 0-.498-.325-.91-.78-1.04V6.717h9.75V9.23c-.455.13-.78.542-.78 1.04 0 .585.476 1.083 1.083 1.083.585 0 1.062-.498 1.062-1.083 0-.498-.325-.91-.78-1.04V6.717h1.646c1.409 0 2.687 1.17 2.839 2.556l1.581 13.65c.173 1.408-.78 2.492-2.188 2.492H2.793c-1.408 0-2.361-1.084-2.21-2.492l1.582-13.65c.173-1.386 1.452-2.556 2.86-2.556M12.132.585a4.873 4.873 0 0 1 4.875 4.897v.671h-9.75v-.671A4.873 4.873 0 0 1 12.132.585m0-.585c-3.012 0-5.46 2.448-5.46 5.482v.671H5.025c-1.712 0-3.228 1.344-3.423 3.055L.02 22.858C-.175 24.57 1.082 26 2.793 26H21.47c1.711 0 2.968-1.43 2.773-3.142l-1.581-13.65c-.195-1.711-1.712-3.055-3.424-3.055h-1.646v-.671c0-3.034-2.449-5.482-5.46-5.482"></path>
  </symbol>
  <symbol id="simple-x" viewBox="0 0 17 17">
    <path d="M8.6 6.603L2.612.615A1.411 1.411 0 1 0 .615 2.612L6.603 8.6.615 14.588a1.411 1.411 0 1 0 1.997 1.997L8.6 10.597l5.988 5.988a1.411 1.411 0 1 0 1.997-1.997L10.597 8.6l5.988-5.988A1.411 1.411 0 1 0 14.588.615L8.6 6.603z" fill="currentColor" fill-rule="evenodd"/>
  </symbol>
  <symbol id="counter-inc" viewBox="0 0 49 49">
    <circle stroke="none" r="24" cy="24" cx="24"></circle>
    <path stroke-width="4" d="M24 8v32M8 24h32"></path>
  </symbol>
  <symbol id="counter-dec" viewBox="0 0 49 49">
    <g>
      <circle r="24" cy="24" cx="24"></circle>
      <path stroke-width="4" d="M9 24h30"></path>
    </g>
  </symbol>
  <symbol id="instagram" viewBox="0 0 21 21">
    <path d="M10.37 6.894c-2.016 0-3.656 1.62-3.656 3.61 0 1.99 1.64 3.61 3.655 3.61 2.016 0 3.656-1.62 3.656-3.61 0-1.99-1.64-3.61-3.656-3.61zm0 8.79c-2.893 0-5.246-2.324-5.246-5.18s2.353-5.18 5.245-5.18c2.893 0 5.246 2.324 5.246 5.18s-2.353 5.18-5.246 5.18zM6.35 1.798c-2.645 0-4.797 2.124-4.797 4.736v7.938c0 2.611 2.152 4.736 4.796 4.736h8.04c2.645 0 4.797-2.125 4.797-4.736V6.535c0-2.612-2.152-4.736-4.797-4.736h-8.04zm8.039 18.943h-8.04c-3.5 0-6.35-2.813-6.35-6.27V6.536C0 3.078 2.85.265 6.35.265h8.04c3.501 0 6.35 2.813 6.35 6.27v7.938c0 3.456-2.849 6.269-6.35 6.269zM17.552 4.76c0 .745-.612 1.348-1.366 1.348a1.357 1.357 0 01-1.366-1.348c0-.745.611-1.349 1.366-1.349.754 0 1.366.604 1.366 1.349z" fill="#666" fill-rule="evenodd"/>
  </symbol>
  <symbol id="styleseat" viewBox="0 0 102 91">
    <path d="M49.586 90.024C44.198 67.636 24.042 51 0 51 0 22.833 22.833 0 51 0s51 22.833 51 51c-24.042 0-44.198 16.636-49.586 39.024a41.787 41.787 0 0 0-2.828 0z" fill-rule="evenodd"></path>
  </symbol>
  <symbol id="facebook-f" viewBox="0 0 11 23">
    <path d="M2.355 7.962H0v4h2.355v10.974h4.837V11.962h3.246l.452-4.015H7.21V5.213c0-.408.53-.957 1.05-.957h2.636V.09H7.31c-5.076 0-4.956 4.004-4.956 4.6l.001 3.272z" fill-rule="evenodd"/>
  </symbol>
  <symbol id="twitter" viewBox="0 0 25 21">
    <path d="M22.088 3.258A5.064 5.064 0 0 0 24.305.46a10.087 10.087 0 0 1-3.203 1.227A5.038 5.038 0 0 0 17.42.091 5.053 5.053 0 0 0 12.505 6.3a14.319 14.319 0 0 1-10.4-5.283 5.048 5.048 0 0 0-.684 2.542c0 1.754.892 3.3 2.246 4.209a5.017 5.017 0 0 1-2.286-.633v.063c0 2.45 1.74 4.493 4.048 4.959a5.05 5.05 0 0 1-2.28.085 5.054 5.054 0 0 0 4.714 3.512 10.118 10.118 0 0 1-6.266 2.164c-.407 0-.81-.024-1.204-.07a14.268 14.268 0 0 0 7.734 2.271c9.28 0 14.355-7.703 14.355-14.385 0-.219-.004-.438-.014-.654a10.252 10.252 0 0 0 2.517-2.619 9.999 9.999 0 0 1-2.897.797z" fill-rule="evenodd"></path>
  </symbol>
  <symbol id="pinterest" viewBox="0 0 18 23">
    <path d="M9.402.068C3.198.068.068 4.526.068 8.242c0 2.251.85 4.253 2.674 5 .3.123.568.004.654-.328.06-.23.204-.81.267-1.05.088-.328.054-.443-.188-.73-.526-.62-.862-1.427-.862-2.566 0-3.307 2.468-6.267 6.43-6.267 3.506 0 5.433 2.147 5.433 5.015 0 3.774-1.665 6.958-4.14 6.958-1.366 0-2.387-1.132-2.06-2.521.392-1.658 1.15-3.447 1.15-4.644 0-1.071-.571-1.964-1.758-1.964-1.398 0-2.52 1.447-2.52 3.388 0 1.233.417 2.07.417 2.07l-1.68 7.13c-.498 2.117-.075 4.711-.039 4.974.021.155.22.19.31.074.13-.168 1.791-2.226 2.359-4.282.159-.582.917-3.597.917-3.597.455.867 1.78 1.631 3.191 1.631 4.198 0 7.046-3.836 7.046-8.969 0-3.881-3.28-7.496-8.267-7.496" fill-rule="evenodd"></path>
  </symbol>
  <symbol id="mayvenn-wave" viewBox="0 0 96 96">
    <g fill-rule="evenodd">
      <circle cx="48" cy="48" r="48" fill="#EBEBEB"></circle>
      <path d="M60.536 15.412c3.41 18.953-45.664 28.4-25.533 63.116-11.835-33.441 35.824-45.056 25.533-63.116m-1.672-5.616c8.554 5.425 8.104 13.847 2.25 21.506-6.495 8.615-16.207 15.444-21.352 24.953-6.11 11.296-6.174 29.93 12.285 29.612-6.56-.128-10.162-3.893-11.705-7.786-6.69-17.358 17.943-33.185 24.76-46.27 4.503-8.677 5.789-15.888-6.238-22.015M28.636 59.638c-.58-6.957 2.894-12.827 7.396-17.421 6.626-6.831 15.757-13.021 18.651-17.679-12.412 10.401-31.384 13.21-26.047 35.1" fill="#40CBAC"></path>
    </g>
  </symbol>
  <symbol id="play-video" viewBox="0 0 64 64">
    <g fill-rule="evenodd">
      <circle cx="32" cy="32" r="32"></circle>
      <path d="M22 44V20l24 12z" fill="#FFFFFF"></path>
    </g>
  </symbol>
  <symbol id="guarantee" viewBox="0 0 154 155">
    <g fill-rule="evenodd">
      <path d="M76.516 25.11c-28.92 0-52.446 23.634-52.446 52.684 0 29.05 23.527 52.683 52.446 52.683 28.921 0 52.449-23.633 52.449-52.683S105.437 25.11 76.515 25.11m0 107.092c-29.866 0-54.162-24.407-54.162-54.408 0-30 24.296-54.409 54.163-54.409 29.867 0 54.165 24.408 54.165 54.409 0 30.001-24.298 54.408-54.165 54.408"/>
      <path d="M76.72 2.756c-41.118 0-74.57 33.601-74.57 74.903 0 41.302 33.452 74.904 74.57 74.904 41.117 0 74.57-33.602 74.57-74.904S117.836 2.756 76.719 2.756m0 151.612c-42.108 0-76.366-34.411-76.366-76.709C.353 35.362 34.611.951 76.72.951c42.108 0 76.366 34.411 76.366 76.708 0 42.298-34.258 76.709-76.366 76.709"/>
      <path d="M24.36 114.793l.087-.073c2.309-1.96 5.312-1.745 7.226.532 1.4 1.666 1.887 3.79.206 5.57l-1.218-1.449c.884-1.047.742-2.121-.108-3.135-1.283-1.524-3.152-1.45-4.854-.006l-.087.073c-1.66 1.407-2.148 3.146-.775 4.78 1.227 1.46 2.61 1.314 3.72.447l-1.649-1.961 1.085-.92 2.847 3.388-.715.607c-2.149 1.82-4.584 1.573-6.434-.627-2.097-2.494-1.62-5.286.668-7.226m10.947 13.693l3.703-5.101 1.537 1.125-3.62 4.987c-1.096 1.508-1.065 2.483.15 3.373 1.181.865 2.161.772 3.4-.932l3.544-4.883 1.536 1.124-3.637 5.01c-1.563 2.153-3.583 2.492-5.749.904-2.052-1.502-2.403-3.488-.864-5.607m14.354 8.522l2.752 1.194.502-4.943-3.253 3.75zm2.836-5.623l2.27.985-.95 10.699-1.8-.78.254-2.641-3.56-1.545-1.726 2.002-1.631-.707 7.143-8.013zm12.203 9.264c1.241.233 1.996-.178 2.193-1.242l.01-.056c.214-1.149-.425-1.674-1.61-1.897l-1.493-.28-.593 3.195 1.493.28zm-2.487-5.264l3.347.626c2.19.41 3.558 1.594 3.18 3.64l-.012.056c-.291 1.57-1.415 2.184-2.717 2.275l2.001 4.854-2.008-.377-1.858-4.536-1.186-.223-.751 4.05-1.855-.348 1.859-10.017zm15.013 7.38l2.992-.104-1.652-4.677-1.34 4.78zm.167-6.294l2.466-.086 3.698 10.067-1.957.068-.895-2.493-3.872.134-.706 2.55-1.773.061 3.039-10.301zm10.961-.887l2.177-.601 6.069 5.969-1.949-7.109 1.656-.458 2.696 9.831-1.89.522-6.474-6.315 2.066 7.534-1.656.459zm16.195-3.654l-2.498 1.328-.697-1.323 6.677-3.55.696 1.324-2.497 1.327 4.053 7.689-1.683.894zm6.805-6.525l4.925-4.02.94 1.162-3.46 2.823 1.755 2.17 2.777-2.266.895 1.106-2.776 2.266 1.87 2.313 3.648-2.977.94 1.163-5.112 4.172zm9-8.119l4.053-4.901 1.146.956-2.847 3.443 2.14 1.785 2.285-2.763 1.091.91-2.284 2.764 2.281 1.903 3.001-3.629 1.147.957-4.207 5.087zM24.634 43.485l1.089-1.461c.895.512 1.823.694 2.852-.687.672-.902.65-1.917-.101-2.481-.75-.564-1.316-.401-2.518.761-1.715 1.755-2.996 2.236-4.518 1.09-1.33-.998-1.48-2.892-.212-4.592 1.31-1.758 2.887-2.21 4.564-1.2l-1.038 1.393c-.964-.493-1.692-.275-2.39.661-.689.924-.603 1.737.022 2.207.659.495 1.193.469 2.452-.792 1.69-1.722 2.975-2.305 4.601-1.083 1.41 1.06 1.619 3.086.275 4.89-1.66 2.225-3.458 2.333-5.078 1.294m8.699-11.545l2.192-2.047-4.298-2.448 2.106 4.496zm-3.98-4.867l1.809-1.688 9.361 5.176-1.435 1.34-2.303-1.296-2.838 2.65 1.128 2.39-1.3 1.214-4.422-9.786zm9.176-5.826l-2.355 1.562-.821-1.25 6.3-4.174.82 1.249-2.357 1.562 4.766 7.254-1.587 1.051zm7.824-6.036l1.715-.826 4.387 9.188-1.714.826zm8.109 4.426l1.734-.548c.428.941 1.077 1.633 2.715 1.115 1.07-.337 1.642-1.176 1.361-2.074-.28-.897-.835-1.097-2.487-.858-2.414.418-3.733.058-4.304-1.765-.498-1.592.482-3.218 2.5-3.855 2.086-.66 3.63-.1 4.404 1.704l-1.653.521c-.496-.964-1.214-1.215-2.325-.865-1.097.347-1.5 1.057-1.266 1.805.248.79.696 1.081 2.453.796 2.372-.406 3.755-.125 4.365 1.82.528 1.687-.481 3.456-2.622 4.132-2.641.834-4.165-.135-4.875-1.928M64.353 9.22l6.23-.835.2 1.498-4.36.585.4 3.008 3.43-.46.194 1.455-3.432.46.55 4.14-1.87.25zm13.132 5.44l2.995.095-1.341-4.78-1.654 4.685zm.58-6.275l2.47.078 3.03 10.3-1.959-.062-.729-2.55-3.876-.122-.874 2.499-1.774-.056 3.713-10.087zm8.468 5.233l.025-.111c.67-2.99 3.188-4.613 5.944-3.99 2.271.514 3.774 2.052 3.472 4.44l-1.87-.424c.09-1.369-.493-2.216-1.919-2.539-1.745-.394-3.186.711-3.685 2.937l-.025.112c-.502 2.24.268 3.802 2.096 4.215 1.37.31 2.496-.166 3.004-1.527l1.801.407c-.827 2.326-2.789 3.154-5.142 2.622-3.102-.702-4.388-3.083-3.7-6.142m16.245 1.265l-2.595-1.123.59-1.375 6.937 3.002-.59 1.375-2.594-1.123-3.427 7.989-1.747-.756zm8.82 2.502l1.63.988-5.246 8.731-1.63-.988zm8.41 13.37l.073-.087c1.353-1.597 1.468-3.539-.046-4.832-1.514-1.294-3.36-.941-4.776.732l-.074.086c-1.434 1.695-1.336 3.67.07 4.87 1.46 1.248 3.327.914 4.753-.77m-6.334-5.374l.072-.086c1.923-2.27 4.972-2.568 7.265-.61 2.303 1.968 2.504 4.966.572 7.247l-.073.088c-1.923 2.27-4.913 2.655-7.261.65-2.369-2.024-2.471-5.05-.575-7.289m15.732 7.005l1.373 1.798-3.224 7.89 5.823-4.484 1.045 1.369-8.053 6.2-1.193-1.56 3.393-8.396-6.172 4.753-1.046-1.369zM53.297 48.564c-1.716.473-3.3 1.17-4.75 2.093a14.717 14.717 0 0 0-3.77 3.449c-1.062 1.375-1.859 2.985-2.39 4.831l9.561 2.217c.328-1.478 1.032-2.658 2.115-3.54 1.083-.882 2.36-1.324 3.831-1.324 1.43 0 2.697.413 3.8 1.238 1.104.827 1.655 2.025 1.655 3.593 0 1.074-.215 1.942-.642 2.602a4.72 4.72 0 0 1-1.718 1.58c-.715.393-1.522.66-2.42.806-.9.144-1.84.215-2.82.215h-3.003v7.51h2.758c1.062 0 2.124.094 3.187.278 1.062.184 2.012.492 2.85.923a5.453 5.453 0 0 1 2.023 1.755c.51.739.766 1.662.766 2.77 0 1.026-.194 1.888-.582 2.586a5.178 5.178 0 0 1-1.471 1.693 6.116 6.116 0 0 1-2.023.953 8.47 8.47 0 0 1-2.238.309c-1.961 0-3.575-.544-4.841-1.632-1.267-1.088-2.105-2.349-2.513-3.785L41.1 82.206c.572 2.053 1.43 3.807 2.574 5.263a14.788 14.788 0 0 0 4.016 3.571c1.532.923 3.227 1.61 5.086 2.062 1.859.45 3.77.678 5.732.678 2.001 0 3.972-.278 5.913-.83 1.94-.553 3.688-1.393 5.241-2.52 1.553-1.128 2.81-2.562 3.77-4.304.96-1.742 1.44-3.8 1.44-6.178 0-1.23-.205-2.388-.613-3.473a10.15 10.15 0 0 0-1.716-2.951 10.915 10.915 0 0 0-2.635-2.275 11.164 11.164 0 0 0-3.371-1.384v-.184c2.123-.575 3.87-1.696 5.24-3.36 1.368-1.665 2.052-3.71 2.052-6.135 0-2.096-.439-3.915-1.316-5.455a12.033 12.033 0 0 0-3.464-3.854c-1.429-1.027-3.056-1.787-4.873-2.281a21.323 21.323 0 0 0-5.608-.74 19.83 19.83 0 0 0-5.271.708zM88.15 49.703a15.364 15.364 0 0 0-5.303 4.956c-1.369 2.073-2.358 4.494-2.971 7.265-.614 2.77-.92 5.692-.92 8.77 0 3.08.306 6.014.92 8.804.613 2.791 1.602 5.243 2.971 7.356a15.424 15.424 0 0 0 5.303 5.049c2.165 1.251 4.78 1.878 7.845 1.878 3.065 0 5.67-.627 7.815-1.878a15.241 15.241 0 0 0 5.24-5.049c1.35-2.113 2.33-4.565 2.943-7.356.612-2.79.919-5.724.919-8.803 0-3.078-.307-6.002-.919-8.771-.613-2.771-1.594-5.192-2.942-7.265a15.177 15.177 0 0 0-5.241-4.956c-2.146-1.231-4.75-1.847-7.815-1.847-3.065 0-5.68.616-7.845 1.847zm4.536 33.766c-.858-.963-1.524-2.155-1.993-3.57-.47-1.417-.787-2.955-.95-4.618a46.737 46.737 0 0 1-.244-4.586c0-1.354.08-2.852.245-4.493.162-1.642.48-3.171.949-4.587.47-1.416 1.135-2.606 1.993-3.57.857-.964 1.96-1.447 3.31-1.447 1.348 0 2.44.483 3.279 1.447.836.964 1.48 2.154 1.93 3.57.45 1.416.755 2.945.92 4.587.162 1.641.245 3.14.245 4.493a47.35 47.35 0 0 1-.246 4.586c-.164 1.663-.47 3.201-.919 4.618-.45 1.415-1.094 2.607-1.93 3.57-.839.965-1.931 1.446-3.28 1.446-1.348 0-2.452-.481-3.309-1.446zM60.28 110.642c3.178 0 4.767-1.909 4.767-4.944v-.139c0-2.862-1.382-4.874-4.785-4.874h-1.674v9.957h1.692zM57.085 99.47h3.264c4.248 0 6.253 2.637 6.253 6.09v.155c0 3.434-1.97 6.159-6.288 6.159h-3.23V99.47zm18.022 7.633h4.283l-2.142-6.384-2.141 6.384zm1.226-7.633h1.969l4.18 12.404h-1.485l-1.21-3.574h-5.094l-1.192 3.574h-1.416l4.248-12.404zm15.879 6.99l-4.127-6.99h1.692l3.23 5.759 3.108-5.759h1.503l-3.903 7.008v5.395h-1.503zM6.085 79.204l4.134-.838 1.656-3.896 2.071 3.69 4.201.379-2.854 3.118.94 4.13-3.835-1.763-3.62 2.174.484-4.208zm142.062 0l-4.133-.838-1.658-3.896-2.07 3.69-4.201.379 2.854 3.118-.94 4.13 3.835-1.763 3.62 2.174-.484-4.208z"/>
    </g>
  </symbol>
  <symbol id="interlocked-hearts" viewBox="0 0 135 80">
    <g fill="none">
      <path d="M42.848 10.036l-2.022-2.203c-9.111-9.11-23.883-9.11-32.993 0-9.11 9.112-9.11 23.882 0 32.993l38.492 38.49 38.491-38.49c9.112-9.11 9.112-23.882.001-32.993"/>
      <path d="M91.85 10.04l1.974-2.051c9.111-9.112 23.883-9.112 32.993 0 9.111 9.11 9.111 23.881 0 32.992l-38.492 38.49-38.49-38.49c-9.113-9.11-9.113-23.882-.002-32.993 9.111-9.111 24.938-9.578 35.147.17"/>
    </g>
  </symbol>
  <symbol id="faqs" viewBox="0 0 46 52">
    <g fill-rule="evenodd">
      <path fill="none" stroke-width="2" d="M36 37h8V1H1v36h26v11z"/>
      <text font-family="Avenir-Light, Avenir" font-size="28" transform="translate(1 -14)">
        <tspan x="14" y="44">?</tspan>
      </text>
    </g>
  </symbol>
  <symbol id="circled-exclamation" viewBox="0 0 18 18">
    <circle stroke="currentColor" fill="none" r="8" cx="9" cy="9"/>
    <path stroke="currentColor" fill="none" d="M9 4v7"/>
    <circle stroke="none" fill="currentColor" r="1" cx="9" cy="13"/>
  </symbol>
  <symbol id="dropdown-arrow" viewBox="0 0 18 18" fill="none">
    <path d="M0 4 l9 9l9 -9"></path>
  </symbol>
  <symbol id="left-caret" viewBox="0 0 50 100" fill="none" stroke-width="7">
    <path d="M 45,90 L 10,50 L45,10"></path>
  </symbol>

  <symbol id="minus-sign" viewBox="0 0 30 28">
    <g>
      <rect width="28"
            height="26"
            x="1"
            y="1"
            fill="none"
            stroke="#CCC"
            shape-rendering="geometricPrecision"
            rx="5"/>
      <path d="M 11,14 L 19,14"
            stroke-linecap="square"
            stroke="black" >
      </path>
    </g>
  </symbol>

  <symbol id="plus-sign" viewBox="0 0 30 28">
    <g>
      <rect width="28"
            height="26"
            x="1"
            y="1"
            fill="none"
            stroke="#CCC"
            shape-rendering="geometricPrecision"
            rx="5"/>
      <path d="M 15,9 L 15,19
               M 10,14 L 20,14"
            stroke-linecap="square"
            stroke="black" >
      </path>
    </g>
  </symbol>

  <symbol id="trash-can" viewBox="0 0 30 30">
    <path fill="#666" fill-rule="nonzero" d="M28.17 3.508h-7.42V1.735C20.75.775 19.827 0 18.682 0H10.56C9.378 0 8.492.775 8.492 1.735v1.773H1.07a1.071 1.071 0 0 0 0 2.14h1.735l1.625 19.865c0 2.178 1.809 3.987 4.024 3.987h12.332c2.215 0 4.024-1.772 4.024-3.95l1.625-19.938h1.735c.59 0 1.07-.48 1.07-1.07 0-.591-.48-1.034-1.07-1.034zm-17.574.036V2.141h8.05v1.403h-8.05zm13.698 2.068l-1.587 19.79v.074c0 1.033-.887 1.92-1.92 1.92H8.418c-1.034 0-1.92-.887-1.92-1.957L4.874 5.612h19.42z"/>
  </symbol>

  <symbol id="discount-tag" viewBox="0 0 104 104">
    <path fill="#FFC520" fill-rule="evenodd" d="M48.113 28.003a1.995 1.995 0 0 1 1.526.583l24.973 24.973a2 2 0 0 1 0 2.829L56.388 74.612a2 2 0 0 1-2.829 0L28.586 49.64a1.999 1.999 0 0 1-.528-1.892V30a2 2 0 0 1 2-2H48c.038 0 .075.001.113.003zm-6.555 18.208a4.5 4.5 0 1 0 0-9 4.5 4.5 0 0 0 0 9z"/>
  </symbol>

  <symbol id="share-arrow" viewBox="0 0 54 45">
    <path d="M.914 44.88a1.501 1.501 0 0 0 1.628-.301C9.92 37.454 19.622 33.384 30 33.026V43.5a1.5 1.5 0 0 0 2.56 1.06l21-21a1.499 1.499 0 0 0 0-2.12l-21-21A1.499 1.499 0 1 0 30 1.5v10.535C13.324 12.82 0 26.633 0 43.5a1.5 1.5 0 0 0 .914 1.38zM31.5 15a1.5 1.5 0 0 0 1.5-1.5V5.122L50.38 22.5 33 39.878V31.5a1.5 1.5 0 0 0-1.5-1.5c-10.466 0-20.375 3.516-28.283 9.97C4.961 25.914 16.98 15 31.5 15z"/>
  </symbol>

  <symbol id="celebration-horn" viewBox="0 0 45 44">
    <path stroke-width="2" d="M26.777 34.106c.14-.077.274-.166.388-.28v-.001c.192-.192.33-.427.414-.675.084-.248.118-.507.118-.773-.003-.614-.175-1.272-.467-1.997-.44-1.085-1.163-2.318-2.117-3.628a34.776 34.776 0 0 0-3.5-4.057c-1.819-1.818-3.673-3.318-5.34-4.376-.835-.53-1.622-.949-2.346-1.242-.725-.292-1.384-.464-1.998-.467-.265 0-.524.035-.773.119a1.734 1.734 0 0 0-.673.414c-.117.115-.207.25-.283.392a.653.653 0 0 0-.067.123L1.563 38.45a3.32 3.32 0 0 0-.255 1.267c0 .9.378 1.72.971 2.312.592.593 1.412.97 2.312.97.416 0 .847-.081 1.267-.255l20.794-8.57a.703.703 0 0 0 .125-.068zM11.43 18.089a.393.393 0 0 1 .159-.093c.078-.026.191-.047.341-.047.346-.002.873.115 1.496.37.937.378 2.097 1.05 3.342 1.958a33.479 33.479 0 0 1 3.899 3.365c1.755 1.755 3.2 3.545 4.191 5.11.497.78.88 1.506 1.132 2.13.254.624.371 1.15.368 1.496 0 .15-.02.263-.047.342a.395.395 0 0 1-.093.159.396.396 0 0 1-.156.091h-.003a1.075 1.075 0 0 1-.341.048c-.346.002-.873-.115-1.496-.369-.937-.379-2.097-1.051-3.342-1.958a33.435 33.435 0 0 1-3.899-3.366c-1.755-1.755-3.2-3.545-4.191-5.11-.497-.781-.88-1.506-1.132-2.13-.254-.624-.371-1.15-.368-1.496 0-.145.02-.255.044-.333l.019-.044a.396.396 0 0 1 .077-.123zM5.348 41.507a1.971 1.971 0 0 1-.757.154c-.52 0-1.005-.22-1.365-.579a1.936 1.936 0 0 1-.578-1.365c0-.242.046-.494.154-.756l7.596-18.43.02.056c.44 1.085 1.163 2.317 2.117 3.628a34.776 34.776 0 0 0 3.5 4.057c1.819 1.818 3.673 3.317 5.34 4.376.834.53 1.622.948 2.346 1.242l.057.02-18.43 7.597zM25.564 18.924a.67.67 0 0 0 .822-.469c.195-.723.704-1.532 1.365-2.19.658-.662 1.467-1.17 2.191-1.365 1.022-.283 1.986-.914 2.784-1.71.795-.798 1.427-1.762 1.71-2.784a.67.67 0 1 0-1.292-.353c-.195.723-.703 1.532-1.365 2.19-.658.662-1.467 1.17-2.19 1.366-1.022.282-1.986.914-2.785 1.71-.795.797-1.426 1.761-1.71 2.783a.669.669 0 0 0 .47.822zM32.822 21.273a.67.67 0 0 0 .81 1.066c.448-.343 1.085-.537 1.73-.536.644 0 1.28.193 1.729.536.73.553 1.639.807 2.54.809.9-.002 1.808-.256 2.539-.809a.67.67 0 0 0-.81-1.066c-.448.343-1.085.537-1.73.536-.645.001-1.28-.193-1.729-.536-.731-.552-1.64-.807-2.54-.808-.9 0-1.808.255-2.539.808zM21.396 11.1a.67.67 0 0 0 .947-.005c.783-.8 1.165-1.914 1.168-3.012 0-.7-.16-1.406-.513-2.024-.22-.38-.336-.86-.335-1.358-.003-.783.294-1.584.782-2.071a.67.67 0 1 0-.953-.941c-.783.799-1.165 1.913-1.169 3.012 0 .701.16 1.405.513 2.024.22.38.336.86.336 1.358.003.782-.294 1.584-.782 2.071a.67.67 0 0 0 .006.947zM12.815 8.775h.136c.264 0 .523-.107.71-.294.187-.187.294-.446.294-.71v-.137c0-.264-.107-.523-.294-.71a1.011 1.011 0 0 0-.71-.294h-.136c-.265 0-.524.107-.71.294a1.011 1.011 0 0 0-.295.71v.136c0 .265.107.523.294.71.187.188.446.295.71.295zM35.615 28.422c-.264 0-.523.107-.71.294a1.011 1.011 0 0 0-.294.71v.136c0 .265.107.523.294.71.187.188.445.294.71.294h.136c.265 0 .523-.107.71-.293.187-.187.295-.446.295-.71v-.137c0-.264-.107-.523-.294-.71a1.011 1.011 0 0 0-.71-.295h-.137zM41.985 11.302h.136c.264 0 .523-.107.71-.294.187-.187.294-.446.294-.71v-.136c0-.264-.107-.523-.294-.71a1.011 1.011 0 0 0-.71-.295h-.136c-.264 0-.523.107-.71.295a1.011 1.011 0 0 0-.295.71v.136c0 .264.107.523.295.71.187.187.446.294.71.294zM10.483 17.142z"/>
  </symbol>
  <symbol id="coin-in-slot" viewBox="0 0 41 26">
    <path fill="#000" fill-rule="nonzero" d="M37.522 19.962h-2.71c.488-1.467.755-3.067.755-4.667 0-8.4-6.845-15.244-15.245-15.244-8.4 0-15.244 6.8-15.244 15.244 0 1.644.266 3.2.755 4.667h-2.71c-1.556 0-2.8 1.244-2.8 2.755 0 1.556 1.244 2.756 2.8 2.756h34.443a2.74 2.74 0 0 0 2.756-2.756c0-1.51-1.244-2.755-2.8-2.755zM21.3 22.717v-.8c1.556-.266 2.667-1.022 3.289-2 .4-.622.578-1.289.578-2.044 0-1.956-1.067-3.156-3.645-4.09-1.866-.71-2.622-1.155-2.622-1.866 0-.622.444-1.2 1.867-1.2.755 0 1.422.134 1.91.267.667.222 1.379-.222 1.556-.889A1.272 1.272 0 0 0 23.3 8.54a7.992 7.992 0 0 0-1.956-.266v-.845c0-.577-.488-1.066-1.066-1.066-.578 0-1.067.489-1.067 1.066v1.023c-2.311.444-3.689 1.955-3.689 3.866 0 2.09 1.6 3.2 3.911 4 1.6.534 2.311 1.067 2.311 1.911 0 .89-.844 1.334-2.088 1.334-.845 0-1.645-.178-2.356-.4a1.26 1.26 0 0 0-1.6.8v.044l-.044.09c-.178.621.177 1.288.8 1.51.755.267 1.688.445 2.622.49v.666H10.01c-.622-.845-1.155-1.778-1.511-2.8a12.632 12.632 0 0 1-.889-4.667C7.611 8.273 13.3 2.54 20.322 2.54s12.711 5.69 12.711 12.712a12.46 12.46 0 0 1-.889 4.666c-.4.978-.888 1.911-1.51 2.8H21.3z"/>
  </symbol>
  <symbol id="coin-stack" viewBox="0 0 144 167">
    <g fill="none" fill-rule="evenodd">
        <path fill="#FFF" d="M38.733 97.87c-1.241-20.39-1.862-32.483-1.862-36.28 0-9.406 15.728-17.032 35.129-17.032 19.401 0 35.129 7.626 35.129 17.032 0 6.406 5.798 75.335-4.982 78.243-2.574.695-14.915 2.51-37.02 5.446-5.422 10.366-16.28 17.44-28.788 17.44-17.932 0-32.468-14.536-32.468-32.467 0-17.932 14.536-32.468 32.468-32.468.805 0 1.604.03 2.394.087z"/>
        <g fill="#000" fill-rule="nonzero" stroke="#EBF9F6">
            <path d="M36.874 166.3c13.715 0 25.618-7.822 31.543-19.226 1.323.055 2.632.094 3.903.094.634 0 1.251 0 1.931-.017a46.679 46.679 0 0 0 1.982-.077c.282-.002.56-.014.9-.03.063 0 .128-.003.192-.008l1.941-.14c.506-.03.984-.075 1.592-.13 17.297-1.626 28.697-7.685 29.307-15.492.033-.189.685-3.727.685-7.468 0-2.967-.407-5.843-.608-7.03.496-3.108.608-5.513.608-6.988 0-1.456-.11-3.824-.604-6.971.492-3.103.604-5.504.604-6.975 0-3.017-.416-5.867-.593-6.952.19-1.163.59-3.956.59-6.896 0-3.01-.42-5.858-.603-6.97.183-1.11.602-3.96.602-6.969 0-3.2-.474-6.233-.635-7.17-.158-10.665-19.594-16.419-37.89-16.419-18.352 0-37.85 5.787-37.896 16.511-.174 1.035-.616 3.964-.616 7.06 0 3.01.418 5.86.6 6.97-.182 1.11-.6 3.958-.6 6.969 0 2.985.412 5.814.597 6.944-.177 1.06-.557 3.661-.597 6.447-18.165 1.563-32.476 16.824-32.476 35.389-.003 19.599 15.943 35.544 35.54 35.544zM96.04 99.12a2.751 2.751 0 0 0-3.41-1.859c-5.87 1.731-12.892 2.645-20.309 2.645-11.893 0-22.93-2.436-28.807-6.354l-.02-.013c-1.568-1.055-3.416-2.694-3.557-4.592 0-.014-.004-.03-.004-.042V88.856c0-.094-.018-.182-.027-.271-.006-.048-.004-.096-.013-.143l-.006-.033c-.009-.053-.014-.105-.027-.158-.103-.6-.421-2.614-.526-4.889.319.246.618.49.977.733a2.744 2.744 0 0 0 3.815-.738 2.748 2.748 0 0 0-.734-3.815c-1.263-.852-3.362-2.558-3.455-4.466l-.002-.072c0-.1-.015-.196-.024-.295-.007-.07-.003-.139-.018-.21a42.47 42.47 0 0 1-.555-5.02c6.955 5.29 20.24 8.08 32.978 8.08 12.747 0 26.043-2.793 32.994-8.094a42.067 42.067 0 0 1-.559 5.049c-.007.034-.003.067-.009.102a6.64 6.64 0 0 0-.018.18c-.006.073-.017.142-.017.218-.033 1.452-1.293 3.08-3.568 4.595-5.856 3.933-16.9 6.376-28.821 6.376-8.283 0-16.227-1.174-22.365-3.306a2.741 2.741 0 0 0-3.497 1.695 2.75 2.75 0 0 0 1.694 3.496c6.702 2.328 15.288 3.61 24.168 3.61 13.15 0 25.07-2.732 31.875-7.302.41-.273.76-.55 1.119-.827a42.076 42.076 0 0 1-.524 4.882c-.016.07-.026.14-.037.212v.006l-.001.022c-.019.128-.039.256-.039.39 0 .011.004.022.004.033 0 .01-.004.018-.004.03-.02 1.44-1.293 3.08-3.58 4.613-.43.288-.891.568-1.38.84a2.748 2.748 0 0 0 2.68 4.8 25.573 25.573 0 0 0 1.681-1.027c.066-.04.128-.085.189-.13.364-.248.685-.499 1.01-.748a43.752 43.752 0 0 1-.536 4.953v.004c-.04.187-.064.38-.064.578 0 .01.002.019.004.028-.031 1.425-1.24 3.022-3.42 4.513-.059.033-.115.07-.174.107-5.84 3.923-16.875 6.36-28.805 6.36-1.493 0-2.909-.048-4.274-.118-1.86-3.387-4.277-6.413-7.094-9.016 3.614.466 7.435.717 11.37.717 7.934 0 15.494-.993 21.86-2.869a2.744 2.744 0 0 0 1.862-3.41zM80.23 141.304c-.43.04-.852.08-1.334.11l-1.89.134c-.046 0-.178.005-.224.007-.282.015-.55.013-.846.031-.595.043-1.205.055-1.872.072-.566.015-1.115.015-1.68.015-.538-.002-1.119-.017-1.686-.028.862-2.674 1.392-5.49 1.595-8.395h.027a93.89 93.89 0 0 0 4.219-.095 2.748 2.748 0 0 0-.25-5.49c-1.318.061-2.672.081-4.022.08a35.206 35.206 0 0 0-1.784-8.46c.61.012 1.21.032 1.837.032 13.046 0 24.87-2.68 31.696-7.177.053-.03.103-.062.152-.095.031-.02.062-.044.093-.066.385-.26.717-.522 1.056-.782a43.325 43.325 0 0 1-.537 4.966c-.04.194-.064.393-.064.582l.003.033c-.058 1.965-2.26 3.722-3.57 4.596a1.673 1.673 0 0 0-.142.1c-3.574 2.354-9.21 4.237-15.872 5.301a2.747 2.747 0 0 0 .868 5.426c7.52-1.202 13.753-3.325 17.993-6.116a3.35 3.35 0 0 0 .244-.169c.399-.267.736-.538 1.086-.807-.12 2.74-.559 5.137-.563 5.165-.022.119-.023.238-.029.355-.002.026-.01.048-.01.074-.122 4.092-9.273 9.17-24.494 10.601zm-7.911-91.343c20.015 0 32.322 6.399 32.397 11.01a2.203 2.203 0 0 0-.004.113c-.117 4.61-12.413 10.984-32.392 10.984-19.92 0-32.195-6.336-32.386-10.942a2.509 2.509 0 0 0-.002-.204c.162-4.608 12.445-10.96 32.387-10.96zm-35.445 50.746c16.569 0 30.048 13.48 30.048 30.049 0 16.57-13.479 30.049-30.048 30.049-16.568 0-30.048-13.48-30.048-30.05 0-16.569 13.48-30.048 30.048-30.048z"/>
            <path d="M36.547 133.481h.327c1.302 0 2.546.634 3.324 1.693.755 1.033.967 2.36.584 3.632-.445 1.354-1.591 2.418-2.938 2.72-.265.071-.558.103-.952.103a4.13 4.13 0 0 1-3.913-2.803c-.348-1.068-1.375-1.788-2.553-1.788-.876 0-1.704.423-2.218 1.136-.526.733-1.066 1.577-.814 2.34.865 2.684 3.583 5.047 5.745 6.106l.117.059v3.057c0 1.438 2.022 2.714 3.616 2.714 1.591 0 3.614-1.278 3.614-2.714v-3.061l.124-.057c1.901-.855 4.431-2.903 5.495-5.378 1.16-2.747.786-6.286-1.002-9.47-1.476-2.568-4.669-4.293-7.946-4.293h-.285c-1.594 0-2.746-.528-3.427-1.568-.764-1.165-.878-2.454-.325-3.735.491-1.157 1.561-2.011 2.865-2.284.288-.062.573-.062.846-.062a4.143 4.143 0 0 1 3.931 2.822c.35 1.076 1.392 1.827 2.533 1.827.885 0 1.72-.422 2.242-1.142.435-.622 1.092-1.564.83-2.35-.978-2.914-3.982-5.216-5.762-6.053l-.121-.057v-3.118c0-1.427-2.022-2.696-3.614-2.696-1.594 0-3.616 1.27-3.616 2.696v3.122l-.124.054c-1.937.852-4.49 2.933-5.53 5.49-1.165 2.885-.696 6.22 1.32 9.39 1.456 2.294 4.307 3.668 7.627 3.668zM4.498 74.768h18.997a2.747 2.747 0 1 0 0-5.495H4.498a2.747 2.747 0 1 0 0 5.495zM118.404 72.02a2.747 2.747 0 0 0 2.748 2.748h18.996a2.747 2.747 0 1 0 0-5.495h-18.996a2.747 2.747 0 0 0-2.748 2.748zM22.421 22.118a2.746 2.746 0 0 0 0 3.885l13.432 13.432c.537.536 1.24.804 1.944.804a2.746 2.746 0 0 0 1.943-4.69L26.308 22.119a2.748 2.748 0 0 0-3.887 0zM69.577 4.195V23.19a2.747 2.747 0 1 0 5.495 0V4.195a2.747 2.747 0 1 0-5.495 0zM122.225 22.118a2.746 2.746 0 0 0-3.885 0L104.908 35.55a2.746 2.746 0 0 0 1.944 4.689c.703 0 1.406-.268 1.943-.804l13.432-13.432a2.748 2.748 0 0 0-.002-3.885z"/>
        </g>
    </g>
  </symbol>
  <symbol id="stack-o-cash" viewBox="0 0 38 31" >
    <path fill="#000" fill-rule="nonzero" stroke="#000" stroke-width=".2" d="M37.584 19.396l-1.44-1.022 1.273-.463a.665.665 0 0 0 .438-.521.633.633 0 0 0-.271-.613l-1.44-1.022 1.273-.463a.66.66 0 0 0 .438-.521.633.633 0 0 0-.271-.614l-1.44-1.022 1.273-.462a.66.66 0 0 0 .438-.522.633.633 0 0 0-.271-.613l-1.44-1.022 1.273-.463a.66.66 0 0 0 .438-.521.633.633 0 0 0-.271-.613L26.58 1.13a.73.73 0 0 0-.643-.096L18.226 3.58l-.212-.171a.72.72 0 0 0-.672-.117L9.659 5.84a.667.667 0 0 0-.455.5.512.512 0 0 0 .005.226L1.092 9.211a.669.669 0 0 0-.45.48.625.625 0 0 0 .204.612l1.322 1.177-1.076.35a.669.669 0 0 0-.45.48.625.625 0 0 0 .204.613l1.322 1.176-1.076.35a.669.669 0 0 0-.45.48.625.625 0 0 0 .204.613l1.322 1.176-1.076.35a.667.667 0 0 0-.45.485.625.625 0 0 0 .204.613l1.322 1.176-1.076.35a.667.667 0 0 0-.45.484.625.625 0 0 0 .204.613L10.98 29.8c.13.116.3.179.476.179a.75.75 0 0 0 .25-.042l8.58-3.12v.213c0 .217.112.421.304.547a.723.723 0 0 0 .647.066l7.065-2.653a.658.658 0 0 0 .434-.608v-.618l8.68-3.232a.665.665 0 0 0 .438-.522.64.64 0 0 0-.271-.613zM10.25 7.613l9.427 7.537-8.067 2.932-8.984-7.987 7.624-2.482zm10.036 17.794l-8.676 3.157-8.984-7.987.675-.221 7.675 6.823c.13.117.3.18.476.18a.75.75 0 0 0 .25-.042l8.592-3.124-.008 1.214zm.008-2.624l-8.688 3.157-8.98-7.983.675-.22 7.675 6.823c.13.117.3.18.476.18a.75.75 0 0 0 .25-.042l8.6-3.129-.008 1.214zm.013-2.624l-8.697 3.162-8.984-7.983.675-.221 7.675 6.82c.13.116.3.179.476.179a.75.75 0 0 0 .25-.042l8.609-3.132-.004 1.217zm.008-2.623l-8.71 3.166-8.98-7.988.676-.22 7.675 6.823c.13.117.3.18.476.18a.75.75 0 0 0 .25-.042l8.617-3.141-.004 1.222zm6.924 6.377l-5.43 2.065.012-10.615a.63.63 0 0 0-.246-.5l-10.34-8.238 6.156-2.053 9.752 7.725.092.188v11.428h.004zM19.46 4.564l6.583-2.177 9.71 6.865-6.966 2.553-9.326-7.24zm9.277 9.935v-1.218l5.881-2.214 1.13.805-7.01 2.627zm7.016-.008l-7.016 2.628V15.9l5.881-2.215 1.135.805zm-7.016 7.87v-1.217l5.881-2.215 1.135.805-7.016 2.628zm0-2.619v-1.218l5.881-2.214 1.135.805-7.016 2.627z"/>
  </symbol>
  <symbol id="certified-ribbon" viewBox="0 0 105 147">
    <g fill="none" fill-rule="evenodd">
        <path fill="#FFF" stroke="#000" stroke-linecap="round" stroke-linejoin="round" stroke-width="5" d="M40.626 143.874l-7.917-13.312a3.422 3.422 0 0 0-2.14-1.585 3.385 3.385 0 0 0-2.63.437l-13.033 8.207 13.032-52.646c7.009 5.236 15.087 5.53 24.292 6.289l-11.604 52.61zM65.51 143.874l7.918-13.312a3.422 3.422 0 0 1 2.14-1.585c.915-.22 1.85-.06 2.63.437l13.032 8.207-13.032-52.646c-7.008 5.236-15.086 5.53-24.292 6.289l11.605 52.61z"/>
        <path fill="#FFF" fill-rule="nonzero" stroke="#000" stroke-width="5" d="M63.066 3.7c.993-.718 2.372-.47 3.09.524.082.11.165.248.22.358l6.235 11.146 11.753-1.6a2.208 2.208 0 0 1 2.483 1.876c.028.138.028.303.028.441l.33 12.746L98.38 33.22a2.19 2.19 0 0 1 1.324 2.814c-.055.138-.11.276-.193.414l-5.628 11.45 8 8.773c.829.91.773 2.29-.137 3.117-.11.11-.248.193-.359.276l-10.29 7.504 3.007 11.477a2.22 2.22 0 0 1-1.573 2.703c-.11.028-.22.056-.358.056L79.48 83.679l-2.676 11.56a2.21 2.21 0 0 1-2.649 1.655 1.595 1.595 0 0 1-.386-.138l-12.056-4.221-7.725 8.993c-.8.938-2.18 1.021-3.117.249-.11-.083-.193-.193-.276-.276l-8.746-9.353-11.035 4.387c-1.131.441-2.428-.11-2.87-1.242a2.067 2.067 0 0 1-.11-.441L24.47 82.575l-11.807-1.241c-1.214-.138-2.097-1.214-1.96-2.428 0-.11.028-.22.056-.331l2.731-12.553-9.876-6.594c-1.021-.69-1.297-2.041-.607-3.062.082-.11.138-.193.22-.303l8.25-9.822-5.684-10.428a2.226 2.226 0 0 1 .883-3.008c.138-.055.248-.11.386-.165l11.808-4.856-.193-11.863a2.196 2.196 0 0 1 2.18-2.234c.137 0 .275 0 .413.027l12.718 1.214L39.34 4.334c.551-1.076 1.876-1.517 2.952-.966.138.056.248.138.358.221l10.705 6.98 9.71-6.87z"/>
        <path fill="#000" d="M46.39 64.778L69.32 37.393a4 4 0 0 1 5.397-.683l.831.596a4 4 0 0 1 .69 5.875l-24.09 27.714.037.038-2.633 2.986a4 4 0 0 1-5.906.103L31.57 61.256a4 4 0 0 1 .229-5.722l.277-.25a4 4 0 0 1 5.589.23l8.724 9.264z"/>
    </g>
  </symbol>
  <symbol id="icon-sms" viewBox="0 0 112 102">
    <g fill-rule="evenodd" transform="translate(.055 .107)">
      <path fill="#FFF" d="M4 4h105v71H54.33L23.863 98.214 25.163 75H4z"/>
      <ellipse cx="77.012" cy="39.51" fill="#000" fill-rule="nonzero" rx="6.188" ry="6.131"/>
      <ellipse cx="56.613" cy="39.51" fill="#000" fill-rule="nonzero" rx="6.188" ry="6.131"/>
      <ellipse cx="36.328" cy="39.51" fill="#000" fill-rule="nonzero" rx="6.188" ry="6.131"/>
      <path fill="#000" fill-rule="nonzero" d="M23.15 100.932c-.459 0-.803-.114-1.147-.227-.916-.455-1.49-1.476-1.375-2.498l1.146-19.982H3.21c-1.49 0-2.636-1.135-2.636-2.611V2.838c0-1.476 1.146-2.61 2.636-2.61h105.547c1.49 0 2.636 1.134 2.636 2.61v72.776c0 1.476-1.146 2.61-2.636 2.61H51.57l-26.816 22.14c-.459.34-1.032.568-1.605.568zM5.844 73.002h18.794c.688 0 1.375.34 1.948.795.459.568.803 1.249.688 1.93l-1.031 16.69L49.049 73.57a2.832 2.832 0 0 1 1.72-.568h55.58V5.45H5.846v67.552z"/>
    </g>
  </symbol>
  <symbol id="icon-call" viewBox="0 0 116 115">
    <g fill-rule="evenodd" transform="translate(1 .457)">
      <circle cx="56.5" cy="54.606" r="54.5" fill="#FFF" stroke="#979797"/>
      <path fill="#000" fill-rule="nonzero" stroke="#000" stroke-width="2" d="M56.91 1.053C25.833 1.053.605 26.045.605 56.833c0 30.789 25.228 55.744 56.305 55.744 31.078 0 56.305-24.955 56.305-55.743 0-30.789-25.227-55.781-56.305-55.781zm0 3.111c29.376 0 53.164 23.567 53.164 52.67 0 29.102-23.788 52.669-53.164 52.669S3.746 85.936 3.746 56.833c0-29.102 23.788-52.669 53.164-52.669zm-18.2 24.704c-.288.003-.56.04-.833.113a3.669 3.669 0 0 0-1.438.787c-.806.702-1.38 1.65-1.778 2.811-4.155 12.1-2.036 25.985 6.66 36.813 8.695 10.828 22.032 16.201 35.114 15.257 1.25-.09 2.323-.384 3.217-.975.893-.59 1.611-1.652 1.551-2.811l-.53-10.047c-.063-1.21-.725-2.166-1.475-2.849a5.583 5.583 0 0 0-2.611-1.35l-7.266-1.574c-.026-.012-.05.012-.075 0-1.425-.364-2.783-.342-3.822.3-1.058.654-1.522 1.61-2.043 2.55a1.554 1.554 0 0 0-.076.15l-1.022 2.398-1.324-.6a1.58 1.58 0 0 0-.076-.037c-4.234-1.691-7.03-3.78-10.254-7.422-2.922-3.992-4.373-7.147-5.033-11.584v-.037l-.265-1.387 2.65-.337c.063-.009.126-.022.188-.038 1.07-.26 2.115-.467 3.028-1.312.896-.83 1.263-2.12 1.248-3.561v-.075l.227-7.198v-.037c.024-.98-.26-1.943-.757-2.812-.503-.88-1.292-1.714-2.46-2.061L39.58 28.98a3.005 3.005 0 0 0-.87-.112zm-.038 3.112l9.876 2.924c.124.037.423.253.643.637.22.384.35.907.34 1.2l-.226 7.272v.075c.02 1.028-.14 1.195-.265 1.312-.115.106-.648.345-1.476.562h-.076c-.046.012-.027.026-.075.038l-4.087.525c-.425.051-.81.272-1.068.612-.257.34-.363.768-.294 1.187l.53 2.924c.002.013-.003.025 0 .037.73 4.87 2.457 8.691 5.562 12.933.023.04.049.077.076.113 3.48 3.96 6.863 6.486 11.54 8.36h.038l2.8 1.237c.386.167.824.174 1.215.019.391-.155.703-.46.867-.844l1.551-3.711c.015-.028.023-.012.038-.037l.038-.113c.413-.712.77-1.153.908-1.237.151-.094.329-.199 1.362.074h.076l7.378 1.575c.32.068.805.337 1.135.637.33.3.45.577.454.675l.53 10.046c-.001-.029.1-.09-.151.075-.252.166-.842.387-1.703.45-12.064.87-24.392-4.089-32.428-14.096-8.036-10.007-9.944-22.744-6.13-33.85.27-.788.644-1.303.87-1.5.226-.196.152-.112.152-.112z"/>
    </g>
  </symbol>
  <symbol id="icon-email" viewBox="0 0 113 79">
    <g fill-rule="evenodd">
      <path fill="#FFF" d="M1.598 3.21h108v72h-108z"/>
      <path fill="#000" fill-rule="nonzero" d="M106.893.904H6.193C3.161.904.597 3.444.597 6.446v66.047c0 3.002 2.564 5.543 5.594 5.543H106.66c3.03 0 5.595-2.54 5.595-5.543V6.446c.233-3.002-2.331-5.542-5.362-5.542zM56.543 51.94L8.523 5.522h96.04L56.542 51.94zM37.195 39.7L5.26 70.416V8.755l31.935 30.946zm3.263 3.234L54.911 56.79c.932.923 2.331.923 3.263 0l14.453-14.087 31.702 30.714H8.756l31.702-30.483zM75.89 39.7l31.936-30.946v61.66L75.89 39.7z"/>
    </g>
  </symbol>
  <symbol id="cascade" viewBox="0 0 47 37">
    <g fill="#15C9A6" fill-rule="nonzero" stroke="#FFF" stroke-width=".75">
        <path d="M9.435 30.751l-.245 2.45 34.425 3.219 2.357-23.973-3.83-.288-.147 2.45 1.227.096-1.866 19.025z"/>
        <path d="M.581.42v24.26h34.435V.42H.58zm32.087 21.913H2.928V2.768h29.74v19.565z"/>
        <path d="M4.641 25.613l-.147 2.393 34.43 2.153 1.57-23.974-4.07-.287v2.44l1.373.192-1.227 18.997z"/>
    </g>
  </symbol>
  <symbol id="box-package" viewBox="0 0 32 38">
    <path fill="#000" fill-rule="nonzero" d="M16.03.298L.413 9.668v18.743l15.615 9.37 15.615-9.37V9.67L16.03.299zm0 3.07l4.382 2.63L8.368 12.86l-4.101-2.433 11.762-7.06zm-1.165 30.645L2.972 26.876V12.719l3.949 2.343v3.978l2.345 1.365v-3.95l5.6 3.322v14.236zm-4.057-19.705L22.716 7.38l5.12 3.073-11.677 7.031-5.351-3.176zm18.28 12.568l-11.666 7v-14.08l11.665-7.025v14.105z"/>
  </symbol>
  <symbol id="back-arrow" viewBox="0 0 34 25">
    <g id="Winter-2018-DZ" stroke="none" stroke-width="1" fill="none" fill-rule="evenodd">
      <g id="Home-Page---Stylist-Store" transform="translate(-22.000000, -87.000000)" fill="#666666">
        <g id="Header---INIT" transform="translate(0.000000, 64.000000)">
          <g id="icon---back" transform="translate(22.000000, 23.000000)">
            <g id="Group">
              <polygon id="Path" transform="translate(8.422639, 17.333242) scale(1, -1) rotate(45.000000) translate(-8.422639, -17.333242) " points="6.80578084 8.60527226 10.3076965 8.55163242 10.0394973 26.061211 6.5375816 26.1148508"></polygon>
              <polygon id="Path" transform="translate(8.422639, 7.576877) rotate(45.000000) translate(-8.422639, -7.576877) " points="6.80578084 -1.15109223 10.3076965 -1.20473208 10.0394973 16.3048465 6.5375816 16.3584863"></polygon>
            </g>
            <polygon id="Rectangle-14" transform="translate(18.500000, 12.500000) rotate(90.000000) translate(-18.500000, -12.500000) " points="17 -3 20 -3 20 28 17 28"></polygon>
          </g>
        </g>
      </g>
    </g>
  </symbol>
  <symbol id="quadpay-logo" viewBox="0 0 86 16">
    <g fill-rule="nonzero" fill="none">
      <path d="M14.343 11.373l-1.359-1.68a.349.349 0 0 0-.271-.129H5.76C3.866 9.377 2.436 7.857 2.436 6.03c0-1.96 1.666-3.554 3.713-3.554a3.79 3.79 0 0 1 2.501.928c.685.597.935 1.41 1.02 2.289l.004.06v1.904c0 .193.156.35.349.35h1.834a.349.349 0 0 0 .35-.35 295.4 295.4 0 0 0-.006-1.97C12.007 2.579 9.33.147 6.106.147 2.739.147 0 2.792 0 6.044c0 3.058 2.375 5.582 5.524 5.87.02.002.119.008.571.026l3.086.001h.494v1.843c0 .117.059.226.156.29l1.84 1.217a.349.349 0 0 0 .54-.291V11.94H14.071a.349.349 0 0 0 .27-.568z" fill="#1D73EC"/>
      <path d="M16.038 7.713c0 2.534 2.217 4.434 4.958 4.434 2.758 0 4.993-1.9 4.993-4.434V.63c0-.167-.157-.317-.332-.317H23.51a.324.324 0 0 0-.332.317v6.95c0 1.217-.925 1.9-2.182 1.9-1.24 0-2.147-.683-2.147-1.9V.63a.324.324 0 0 0-.332-.317h-2.148c-.174 0-.331.15-.331.317v7.083zm11.819 4.267c-.262 0-.402-.217-.297-.433L33.025.33a.356.356 0 0 1 .296-.183h.175c.122 0 .244.083.297.183l5.464 11.217c.105.216-.035.433-.297.433h-1.938c-.314 0-.453-.1-.61-.417l-.63-1.316h-4.748l-.628 1.333a.65.65 0 0 1-.629.4h-1.92zm4.225-4h2.653L33.41 5.23h-.018l-1.31 2.75zm9.253 3.683V.63a.32.32 0 0 1 .314-.317h4.26c3.37 0 6.128 2.617 6.128 5.817 0 3.233-2.759 5.85-6.128 5.85h-4.26a.32.32 0 0 1-.314-.317zm2.723-2.15h1.833c1.973 0 3.247-1.483 3.247-3.383 0-1.883-1.274-3.367-3.247-3.367h-1.833v6.75zm10.754 2.15V.63c0-.167.14-.317.332-.317h4.208c2.304 0 3.91 1.667 3.91 3.684 0 2.066-1.606 3.75-3.893 3.75h-1.833v3.916c0 .167-.157.317-.332.317h-2.06a.324.324 0 0 1-.332-.317zm2.724-6.35h1.763c.75 0 1.275-.566 1.275-1.316 0-.7-.524-1.234-1.275-1.234h-1.763v2.55zm6.005 6.667c-.261 0-.401-.217-.296-.433L68.709.33a.356.356 0 0 1 .297-.183h.174c.123 0 .245.083.297.183l5.465 11.217c.104.216-.035.433-.297.433h-1.938c-.314 0-.454-.1-.611-.417l-.629-1.316H66.72l-.629 1.333a.65.65 0 0 1-.628.4h-1.92zm4.225-4h2.654l-1.327-2.75h-.017l-1.31 2.75zm10.528 3.683v-5.3L74.435.797c-.14-.217 0-.484.28-.484h2.27a.35.35 0 0 1 .279.15L79.69 3.88 82.117.463c.052-.066.122-.15.28-.15h2.269c.28 0 .419.267.28.484l-3.911 5.55v5.316c0 .167-.158.317-.332.317h-2.078a.324.324 0 0 1-.331-.317z" fill="#13131F"/>
    </g>
  </symbol>
  <symbol id="position" viewBox="0 0 36 52">
    <path d="M18.002 0C8.077 0 0 8.17 0 18.216c0 7.363 4.34 13.961 11.06 16.808.476.203.846.6 1.017 1.096L17.535 52l6.034-15.801c.184-.48.56-.863 1.03-1.051C31.525 32.379 36 25.734 36 18.216 36.005 8.173 27.928 0 18.003 0zm0 25.8c-4.134 0-7.495-3.402-7.495-7.583 0-4.184 3.364-7.587 7.495-7.587 4.135 0 7.496 3.403 7.496 7.587 0 4.183-3.361 7.584-7.496 7.584z" fill="#7E006D" fill-rule="evenodd"/>
  </symbol>
  <symbol id="info" viewBox="0 0 14 14">
    <path d="M7.926 4.29a.926.926 0 11-1.851-.001.926.926 0 011.851 0zM7.77 6.824v3.053a.77.77 0 11-1.54 0V6.825a.77.77 0 011.54 0zM7 .333a6.667 6.667 0 110 13.334A6.667 6.667 0 017 .333zm3.876 10.543a5.484 5.484 0 00.033-7.785 5.48 5.48 0 00-7.785.033 5.484 5.484 0 00-.033 7.785 5.48 5.48 0 007.785-.033z" fill="#FFF" fill-rule="evenodd"/>
  </symbol>
</svg>
