<svg width="73" height="72" xmlns="http://www.w3.org/2000/svg"><path d="M35.74 1.41L23.1 14.07c5.18-1.8 8.67-5.05 12.34-8.47.78-.72 1.55-1.45 2.34-2.15L35.74 1.4zM21.6 15.57l-4.7 4.7c8.87-.68 13.58-5.07 18.55-9.72 1.6-1.49 3.24-3.03 5.03-4.41l-1.99-1.99c-.8.72-1.58 1.45-2.37 2.18-3.98 3.71-8.1 7.55-14.52 9.24zm-9.63 9.63c.85.07 1.68.11 2.55.1 10.43 0 15.52-4.74 20.9-9.76 2.44-2.28 4.96-4.63 8-6.47l-2.23-2.22c-1.79 1.38-3.45 2.93-5.06 4.43-5.08 4.75-10.32 9.65-20.29 10.05l-3.87 3.87zm-4.25 4.25a26 26 0 006.8.82c10.42 0 15.5-4.75 20.88-9.77 3.27-3.05 6.65-6.2 11.31-8.13L44.13 9.8c-3.04 1.8-5.58 4.17-8.04 6.47C30.8 21.2 25.33 26.3 14.51 26.3a30.93 30.93 0 01-3.46-.2L7.7 29.45zm-3.67 3.66a24.92 24.92 0 0010.46 2.1c10.42 0 15.5-4.74 20.87-9.76 4.1-3.83 8.33-7.78 15.07-9.34l-2.97-2.97c-4.69 1.83-8.1 5.01-11.4 8.1-5.28 4.93-10.75 10.03-21.56 10.03a27.53 27.53 0 01-7.62-1L4.04 33.1zm-.42 4.76a24.78 24.78 0 0010.89 2.29c10.42 0 15.5-4.75 20.88-9.77 4.92-4.59 9.99-9.33 19.36-9.97l-3.47-3.47c-6.84 1.4-10.91 5.2-15.23 9.23-5.28 4.93-10.74 10.03-21.54 10.03A25.9 25.9 0 013.3 33.87l-1.84 1.84 2.16 2.16zm6.98 6.98c1.3.17 2.6.24 3.91.26 10.42 0 15.5-4.75 20.88-9.77 5.29-4.93 10.75-10.03 21.55-10.03a34.48 34.48 0 012.82.12l-4.06-4.06c-9.58.37-14.46 4.93-19.62 9.75-5.29 4.93-10.76 10.04-21.57 10.04a25.7 25.7 0 01-9.08-1.47l5.17 5.16zm1.13 1.13l4.04 4.05c9.58-.37 14.46-4.93 19.62-9.74 5.29-4.93 10.75-10.03 21.55-10.03 3.1-.08 6.2.44 9.13 1.48l-5.18-5.18a30.57 30.57 0 00-3.94-.25c-10.41 0-15.5 4.74-20.87 9.76C30.78 41 25.32 46.11 14.5 46.11a31.03 31.03 0 01-2.78-.13zm5 5l3.47 3.47c6.8-1.39 10.88-5.19 15.19-9.2 5.28-4.92 10.73-10.01 21.5-10.01h.06c3.84-.08 7.72.72 11.23 2.33l1.86-1.86-2.16-2.16a24.84 24.84 0 00-10.93-2.3c-10.41 0-15.5 4.75-20.88 9.77-4.91 4.58-9.98 9.32-19.35 9.96zm4.3 4.31l3 3c4.67-1.84 8.07-5.01 11.35-8.09 5.29-4.94 10.75-10.04 21.56-10.04a27.67 27.67 0 017.65 1l2.83-2.83a24.8 24.8 0 00-10.47-2.1h-.05c-10.38 0-15.46 4.74-20.83 9.75-4.1 3.81-8.32 7.75-15.03 9.31zm3.77 3.77l2.54 2.54c3.04-1.8 5.57-4.16 8.03-6.45 5.3-4.95 10.8-10.04 21.67-10.04 1.14 0 2.28.06 3.41.18l3.32-3.32a26.66 26.66 0 00-6.82-.81c-10.43 0-15.5 4.75-20.88 9.77-3.27 3.05-6.64 6.2-11.27 8.13zm3.27 3.27l2.22 2.21c1.8-1.38 3.46-2.93 5.08-4.44 5.08-4.74 10.33-9.64 20.3-10.03l3.86-3.86a31.1 31.1 0 00-2.58-.1c-10.43 0-15.51 4.74-20.9 9.77-2.43 2.27-4.94 4.62-7.97 6.45zM31 65.26l1.98 1.98c.8-.71 1.6-1.44 2.38-2.17 4-3.72 8.12-7.55 14.55-9.24l4.7-4.7c-8.88.67-13.59 5.06-18.56 9.7A72.3 72.3 0 0131 65.26zm2.7 2.69L35.73 70 48.4 57.33c-5.19 1.8-8.69 5.05-12.37 8.47-.78.72-1.55 1.44-2.35 2.15zm2.04 3.46L.04 35.71 35.74 0l35.71 35.7-35.7 35.71z" fill-rule="evenodd"/></svg>