<svg width="73" height="72" xmlns="http://www.w3.org/2000/svg"><path d="M28.62 8.54c.16.34.32.65.5.93.4-.7.78-1.55 1.1-2.53l-1.6 1.6zm9.2-5.05a16.9 16.9 0 001.9 6.05c.47-.78.89-1.77 1.23-2.92L37.82 3.5zm-5.14.99c.38 2.08 1 3.83 1.74 5.07 1.02-1.69 1.8-4.3 2.1-7.36l-.78-.78-3.06 3.07zm-6.9 6.9c.22.09.45.13.7.14.7 0 1.38-.41 2-1.16a10.8 10.8 0 01-.6-1.07l-2.1 2.1zm3.94-1.03c1.33 1.63 2.84 1.56 4.09.07a14.74 14.74 0 01-1.98-5.1l-.2.2a14.5 14.5 0 01-1.9 4.83zm5.32.08c1.25 1.48 2.78 1.5 4.06-.01a15.03 15.03 0 01-2.02-5.3 15.09 15.09 0 01-2.04 5.31zm6.34.92c.32.18.66.28 1 .28a3.08 3.08 0 002.02-1.11 5.66 5.66 0 01-.55-1l-2.1-2.1c-.4 1.2-.88 2.2-1.42 3.01a3.99 3.99 0 001.05.92zm-18.76 3.19a22.44 22.44 0 011.19 3.83A15.08 15.08 0 0125.85 13a3.93 3.93 0 00-.9-.8l-2.33 2.33zM27.08 13c.9 1.33 1.6 3.2 2.04 5.4a15.2 15.2 0 012.04-5.4c-.58-.69-1.22-1.1-1.88-1.16h-.17c-.72 0-1.4.42-2.03 1.16zm5.3 0a15.1 15.1 0 012.03 5.4 15.01 15.01 0 012.05-5.4c-.58-.69-1.22-1.1-1.88-1.16h-.17c-.72 0-1.4.43-2.03 1.17zm5.3 0c.89 1.33 1.6 3.2 2.04 5.4a15.2 15.2 0 012.04-5.4c-.58-.69-1.22-1.1-1.88-1.16h-.17c-.72 0-1.4.43-2.03 1.17zm5.3 0c.9 1.33 1.61 3.2 2.05 5.4a15.3 15.3 0 012.03-5.41c-.58-.7-1.23-1.1-1.9-1.15h-.14c-.72 0-1.41.42-2.03 1.16zm6.37 2.02c.4 1 .74 2.15 1 3.4.12-.65.28-1.3.47-1.93l-1.47-1.47zM4.7 32.46c.18.38.36.73.55 1.04.46-.76.86-1.7 1.2-2.79L4.7 32.46zm4.1-4.1c.37 2.11 1 3.9 1.76 5.17 1.2-2.02 2.03-5.34 2.13-9.06l-3.9 3.9zm33.57-14.48c-1.29 2.15-2.15 5.8-2.15 9.84 0 4.02.86 7.66 2.15 9.81 1.24-2.05 2.16-5.5 2.16-9.82 0-4.04-.86-7.68-2.16-9.83zM24.32 23.7c0 4.03.86 7.67 2.14 9.83 1.24-2.05 2.16-5.5 2.16-9.82 0-3.97-.85-7.65-2.15-9.83-1.22 2.03-2.06 5.4-2.15 9.16v.66zm26.53.02c0 4.03.86 7.66 2.14 9.8 1.29-2.15 2.16-5.79 2.16-9.82a26.43 26.43 0 00-.17-3.07l-3.34-3.34a23.99 23.99 0 00-.8 6.4v.03zm-3.16-9.86c-1.34 2.22-2.15 5.87-2.15 9.84 0 4.03.87 7.67 2.15 9.83 1.29-2.16 2.15-5.8 2.15-9.83v-.28c-.04-3.93-.9-7.45-2.15-9.56zM19 23.72c0 4.03.87 7.67 2.15 9.82 1.29-2.15 2.15-5.8 2.15-9.83l.01-.68a21.44 21.44 0 00-1.46-7.72l-2.09 2.08a25.28 25.28 0 00-.76 6.07v.26zm-5.3-.27v.26c0 4.03.87 7.68 2.16 9.83 1.28-2.15 2.14-5.8 2.14-9.82a26.62 26.62 0 00-.32-4.24l-3.98 3.97zm18.07-9.57c-1.3 2.16-2.16 5.8-2.16 9.84 0 4.03.87 7.67 2.15 9.83 1.29-2.16 2.15-5.8 2.15-9.83 0-4.04-.86-7.68-2.14-9.84zm5.3 0c-1.3 2.16-2.16 5.8-2.16 9.84 0 4.03.87 7.67 2.15 9.83 1.29-2.16 2.15-5.8 2.15-9.83 0-4.04-.86-7.68-2.14-9.84zm24.61 13.47a16.8 16.8 0 001.92 6.2c.49-.8.91-1.82 1.26-3.02l-3.18-3.18zm-5.48-5.48a28.67 28.67 0 00-.07 1.88c0 4.02.86 7.65 2.15 9.81 1.03-1.72 1.8-4.4 2.07-7.54l-4.15-4.15zM5.88 34.4c.98 1.18 2.08 1.45 3.07.88l.07-.05c.32-.2.62-.47.91-.81a14.87 14.87 0 01-2-5.2l-.1.1a14.73 14.73 0 01-1.95 5.08zm10.6.02c.77.93 1.69 1.34 2.57 1.08a3.7 3.7 0 011-.58c.16-.14.33-.31.49-.5a15.1 15.1 0 01-2.03-5.38 15.12 15.12 0 01-2.04 5.38zm26.51 0c.62.74 1.32 1.16 2.04 1.16.73 0 1.42-.42 2.04-1.17a15.09 15.09 0 01-2.04-5.38A15.06 15.06 0 0143 34.42zm5.3 0c.63.74 1.32 1.16 2.04 1.16.73 0 1.42-.42 2.04-1.17a15.08 15.08 0 01-2.04-5.38 15.12 15.12 0 01-2.03 5.38zm5.3 0c1.24 1.47 2.82 1.5 4.07.01a15.12 15.12 0 01-2.03-5.38 15.08 15.08 0 01-2.03 5.36zm-51.82.97c.26.12.55.18.84.19.7 0 1.39-.43 2.02-1.19a10.86 10.86 0 01-.68-1.18l-2.18 2.18zm10.4-.1c.54.31 1.11.38 1.65.2a3.74 3.74 0 01.87-.5c.19-.17.38-.36.56-.57-.9-1.32-1.6-3.19-2.05-5.4a15.13 15.13 0 01-2.03 5.38c.3.36.6.64.93.84l.07.05zm10.68.05c.96.5 2.03.2 2.99-.94a15.09 15.09 0 01-2.03-5.37 15.1 15.1 0 01-2.05 5.39 4.08 4.08 0 001.09.92zm4.22-.92c.63.75 1.32 1.17 2.04 1.17.73 0 1.42-.42 2.04-1.17a15.1 15.1 0 01-2.04-5.38 15.05 15.05 0 01-2.04 5.38zm5.3 0c.63.75 1.32 1.17 2.04 1.17.73 0 1.42-.42 2.04-1.17a15.08 15.08 0 01-2.04-5.38 15.12 15.12 0 01-2.03 5.38zm5.3 0c1.22 1.45 2.75 1.56 4.08-.02a15.06 15.06 0 01-2.03-5.37 15.13 15.13 0 01-2.04 5.4zm26.55.02c.63.73 1.31 1.15 2.02 1.15a3.12 3.12 0 002.04-1.1 6.22 6.22 0 01-.67-1.21l-1.95-1.95a12.5 12.5 0 01-1.44 3.1zm-4.24.92c.98.52 2.07.2 3.01-.93a14.9 14.9 0 01-2.05-5.4 14.89 14.89 0 01-2.04 5.42 4.02 4.02 0 001.08.91zm6.86 1.67c.24.35.47.75.69 1.19l2.2-2.2a2.21 2.21 0 00-.86-.2c-.7 0-1.4.44-2.03 1.2zm-62.97 1.1l1.97 1.96c.4-1.23.88-2.28 1.43-3.1-.62-.75-1.31-1.16-2.03-1.16a3.15 3.15 0 00-2.03 1.1c.26.38.48.77.66 1.2zm62.35-.21c-.45.76-.86 1.7-1.19 2.8l1.75-1.75a10.67 10.67 0 00-.56-1.05zM13.77 36.9a14.7 14.7 0 012.03 5.18c.44-2.12 1.13-3.9 2-5.18-.8-.95-1.75-1.34-2.66-1.02a3.67 3.67 0 01-.83.48c-.18.15-.36.33-.54.54zm-5.26.09a14.66 14.66 0 012 5.17 14.68 14.68 0 012.02-5.27 3.95 3.95 0 00-.72-.66 3.68 3.68 0 01-.34-.2c-.97-.49-2.04-.15-2.96.96zm53.05.02a14.9 14.9 0 011.98 5.2l.1-.1a14.8 14.8 0 011.96-5.08c-1.31-1.57-2.83-1.46-4.04-.02zM29.73 37c.89 1.32 1.6 3.18 2.04 5.39.44-2.2 1.14-4.06 2.03-5.38-.62-.75-1.31-1.17-2.03-1.17-.73 0-1.42.42-2.04 1.16zm5.29.01a15.18 15.18 0 012.02 5.38 15 15 0 012.06-5.4c-.62-.73-1.32-1.15-2.05-1.15-.72 0-1.41.43-2.03 1.17zm15.9 0c.9 1.32 1.61 3.18 2.05 5.39.44-2.2 1.15-4.07 2.04-5.39-.62-.75-1.32-1.17-2.04-1.17-.73 0-1.42.42-2.04 1.17zm-5.28.01c.88 1.33 1.58 3.2 2.02 5.4A15.2 15.2 0 0149.7 37c-.62-.74-1.3-1.15-2.02-1.15-.73 0-1.42.42-2.04 1.16zm10.6-.01c.9 1.33 1.6 3.2 2.04 5.42a15.05 15.05 0 012.05-5.41 4.08 4.08 0 00-.84-.78 3.64 3.64 0 01-.24-.15c-1.01-.54-2.1-.17-3.01.92zm-15.9 0c.9 1.32 1.6 3.19 2.03 5.42a15.1 15.1 0 012.04-5.41c-1.2-1.47-2.73-1.57-4.06-.02zm-21.32-.1a15.26 15.26 0 012.1 5.63 15.26 15.26 0 012.06-5.52 4.27 4.27 0 00-.82-.81 4.12 4.12 0 01-.34-.21 1.98 1.98 0 00-1.51-.17 3.69 3.69 0 01-1 .57 4.53 4.53 0 00-.49.5zm5.38.12c.9 1.38 1.6 3.3 2.02 5.57A15.4 15.4 0 0128.5 37c-.62-.74-1.31-1.16-2.04-1.16s-1.43.43-2.06 1.19zM6.64 40.89l3.18 3.18a16.8 16.8 0 00-1.93-6.2c-.48.8-.9 1.83-1.25 3.02zm54.3-3c-1.2 2-2.04 5.33-2.14 9.06l3.89-3.9c-.38-2.13-1-3.9-1.75-5.17zm-49.87 7.44l4.23 4.22.02-.5a30.08 30.08 0 01-.07-1.43 29 29 0 01.05-1.68c-.2-3.38-1.02-6.35-2.14-8.18-1.05 1.71-1.83 4.41-2.09 7.57zm42.4 2.75a25.84 25.84 0 00.33 3.86l3.98-3.97v-.27c0-4.03-.87-7.67-2.16-9.83-1.28 2.16-2.14 5.8-2.14 9.83v.38zm-36.96 2.68l3.31 3.32c.55-2.1.8-4.26.76-6.43 0-4.07-.87-7.73-2.17-9.88-1.1 1.85-1.9 4.8-2.1 8.16a30.92 30.92 0 01.02 3.11c.04.58.1 1.15.18 1.72zm33.8-12.9c-1.28 2.16-2.15 5.8-2.15 9.84a21.78 21.78 0 001.48 8.4l2.08-2.07a24.8 24.8 0 00.75-6.34c0-4.03-.87-7.67-2.16-9.82zM20.64 54.9l1.5 1.5a18.79 18.79 0 01-1.02-3.54 25.12 25.12 0 01-.48 2.04zm3.15-17c-1.28 2.17-2.13 5.79-2.13 9.8 0 3.95.83 7.53 2.07 9.7 1.33-2.22 2.14-5.85 2.14-9.8 0-3.95-.84-7.52-2.08-9.7zm21.23-.01c-1.28 2.16-2.14 5.8-2.14 9.83 0 3.95.84 7.61 2.13 9.8 1.28-2.16 2.14-5.8 2.14-9.82 0-4.02-.86-7.65-2.13-9.81zm-10.61-.01c-1.28 2.16-2.14 5.8-2.14 9.82 0 4.32.9 7.77 2.14 9.82 1.27-2.16 2.13-5.8 2.13-9.82 0-4.03-.86-7.66-2.13-9.82zm5.31-.02c-1.25 2.04-2.18 5.5-2.18 9.84 0 4.03.86 7.67 2.14 9.83 1.25-2.05 2.17-5.51 2.17-9.83 0-4.1-.85-7.7-2.13-9.84zm-10.6 0c-1.3 2.16-2.15 5.8-2.15 9.84s.86 7.68 2.15 9.84c1.28-2.16 2.15-5.8 2.15-9.84s-.87-7.68-2.15-9.83zm17.24 21.25a2.7 2.7 0 01.18.1l2.33-2.33a22.7 22.7 0 01-1.21-3.92 15.2 15.2 0 01-2.04 5.44c.23.28.48.52.73.71zm-22.02-.8c.88 1.11 1.96 1.53 2.96 1.08l.36-.2c.3-.2.58-.46.84-.78a15.43 15.43 0 01-2.1-5.71 15.53 15.53 0 01-2.06 5.6zm6.44 1c.58.32 1.21.35 1.8.08l.5-.3c.25-.18.49-.4.71-.68a15.14 15.14 0 01-2.02-5.38 15.1 15.1 0 01-2.04 5.38 4.03 4.03 0 001.05.9zm5.4.06c.58.28 1.16.27 1.73-.01a3.9 3.9 0 001.16-.97 15.16 15.16 0 01-2.03-5.36 15.2 15.2 0 01-2.02 5.36 4.13 4.13 0 001.16.98zm5.46.07c.93.36 1.92-.04 2.75-1.03-.9-1.34-1.6-3.23-2.03-5.45a15.16 15.16 0 01-2.06 5.45c.19.23.39.42.59.59.25.1.5.26.75.44zM43 60.98c.22.33.43.7.64 1.12l2.14-2.14c-.88-.34-1.92-.01-2.78 1.02zm-15.4.88L29.73 64c.4-1.22.87-2.24 1.41-3.04a4.14 4.14 0 00-.77-.73 3.9 3.9 0 01-.36-.22 2 2 0 00-.9-.22c-.35.04-.7.14-1.02.3a4.1 4.1 0 01-.26.16 3.21 3.21 0 00-.76.66c.21.3.4.62.54.96zm14.77 0a12.4 12.4 0 00-1.14 2.65l1.66-1.67c-.17-.35-.34-.68-.52-.98zm-4.7-.92a14.74 14.74 0 011.99 5.14l.16-.16a14.57 14.57 0 011.94-4.94 4.51 4.51 0 00-.68-.7 3.68 3.68 0 01-.65-.38 1.88 1.88 0 00-1.57.05 3.73 3.73 0 01-.48.3 4.15 4.15 0 00-.72.69zm-5.3.03a15 15 0 012.03 5.37c.44-2.23 1.14-4.1 2.03-5.41a4.25 4.25 0 00-.68-.66 3.6 3.6 0 01-.53-.31 1.93 1.93 0 00-1.78.08 3.58 3.58 0 01-.23.14 4.08 4.08 0 00-.84.79zm-1.85 3.81l3.13 3.14a16.84 16.84 0 00-1.9-6.08c-.47.8-.89 1.79-1.23 2.94zm4.49 4.5l.73.72 3.06-3.07c-.38-2.1-1-3.87-1.75-5.12-1.02 1.71-1.78 4.37-2.04 7.46zm.73 2.14L.04 35.7 35.74 0l35.71 35.7-35.7 35.71z" fill-rule="evenodd"/></svg>