<svg width="72" height="72" xmlns="http://www.w3.org/2000/svg"><path d="M36.93 2.63c1.49 3.19 3.09 5.85 5.8 5.85h.04l-5.84-5.84zm-2.32-.12a58.69 58.69 0 011.54 3.29c1.76 3.92 3.4 7.63 6.62 7.63a4.57 4.57 0 003.32-1.63l-2.41-2.42a4.31 4.31 0 01-.95.1c-3.71 0-5.57-3.89-7.32-7.77l-.8.8zM32.63 4.5c1.42 1.6 2.48 3.96 3.5 6.26 1.75 3.92 3.4 7.63 6.62 7.63 2.02 0 3.56-1.37 5.24-4.68l-1.19-1.2a5.59 5.59 0 01-4.02 1.93c-3.87 0-5.74-4.18-7.54-8.23-.44-.99-.9-2-1.37-2.95L32.63 4.5zM13.84 23.28c.2.03.42.05.63.05 3.05 0 4.7-3.34 6.35-7.03l-6.98 6.98zm15.7-15.7c3.24.62 4.94 4.43 6.6 8.13 1.74 3.92 3.4 7.63 6.6 7.63 3.21 0 4.87-3.7 6.62-7.61l.2-.46-.83-.83c-1.31 2.53-3.08 4.94-5.98 4.94-3.86 0-5.73-4.18-7.53-8.22-.98-2.21-2-4.49-3.3-5.96l-2.38 2.38zm-18.7 18.7a4.73 4.73 0 003.65 2c3.19 0 4.84-3.7 6.59-7.63 1.8-4.04 3.67-8.21 7.53-8.21 3.86 0 5.72 4.17 7.52 8.21 1.75 3.92 3.4 7.63 6.62 7.63 3.23 0 4.88-3.75 6.63-7.7a51.99 51.99 0 011.76-3.74l-.82-.81-.05.1c-1.8 4.04-3.67 8.2-7.52 8.2-3.86 0-5.73-4.17-7.53-8.2-1.75-3.92-3.4-7.62-6.6-7.63l-5.8 5.8-.82 1.82c-1.8 4.03-3.67 8.2-7.53 8.2-.5 0-.98-.07-1.45-.22l-2.17 2.17zm17.77-8.9c3.86 0 5.72 4.17 7.52 8.21 1.75 3.92 3.4 7.63 6.62 7.63 3.2 0 4.86-3.7 6.6-7.6 1.13-2.5 2.28-5.07 3.92-6.64l-1.4-1.4c-.55 1.07-1.07 2.25-1.58 3.4-1.8 4.08-3.66 8.3-7.54 8.3-3.86 0-5.73-4.18-7.53-8.22-1.75-3.92-3.4-7.62-6.61-7.62-3.21 0-4.87 3.7-6.62 7.62-1.8 4.04-3.66 8.22-7.52 8.22a5.74 5.74 0 01-4.34-2.29l-1.12 1.12c1.32 2.7 2.91 5.1 5.46 5.1 3.2 0 4.86-3.7 6.61-7.62 1.8-4.04 3.67-8.21 7.53-8.21zM64.1 29.8l.38.84c1.15 2.57 2.33 5.22 4 6.58L70 35.7l-5.9-5.9zm-35.5-7.47c3.87 0 5.73 4.17 7.53 8.21 1.75 3.92 3.4 7.63 6.62 7.63 3.2 0 4.86-3.7 6.62-7.63 1.76-3.94 3.58-8.02 7.27-8.2l-2.66-2.67c-1.5 1.44-2.62 3.93-3.7 6.35-1.81 4.03-3.68 8.19-7.53 8.19-3.86 0-5.73-4.18-7.53-8.22-1.75-3.92-3.4-7.62-6.61-7.62-3.21 0-4.87 3.7-6.62 7.62-1.8 4.04-3.66 8.22-7.52 8.22-2.99 0-4.77-2.5-6.2-5.37l-.81.81.47 1.03c1.73 3.85 3.37 7.49 6.54 7.49 3.2 0 4.86-3.7 6.61-7.63 1.8-4.04 3.67-8.21 7.53-8.21zM1.42 35.7l5.84 5.83-.37-.81c-1.14-2.55-2.32-5.18-3.96-6.53l-1.5 1.5zm27.2-8.42c3.86 0 5.73 4.18 7.53 8.22 1.76 3.93 3.42 7.65 6.64 7.65 3.21 0 4.87-3.7 6.62-7.63 1.8-4.04 3.67-8.21 7.53-8.21 3.85 0 5.72 4.17 7.52 8.2a47.9 47.9 0 001.87 3.87l1.45-1.45c-1.8-1.52-3.02-4.24-4.2-6.88-.52-1.15-1.05-2.34-1.62-3.4l-4.21-4.22a3.7 3.7 0 00-.85-.1c-3.2 0-4.86 3.7-6.61 7.62-1.8 4.04-3.67 8.22-7.53 8.22-3.86 0-5.73-4.18-7.53-8.22-1.75-3.92-3.4-7.62-6.61-7.62-3.21 0-4.87 3.7-6.62 7.62-1.8 4.04-3.66 8.22-7.52 8.22-3.81 0-5.66-4.1-7.45-8.08l-.31-.68-.9.9c.74 1.27 1.4 2.75 2.04 4.18 1.75 3.92 3.4 7.63 6.62 7.63 3.2 0 4.86-3.7 6.61-7.63 1.8-4.04 3.67-8.21 7.53-8.21zm-14.9 20.7c.25.06.46.09.76.09 3.2 0 4.86-3.7 6.61-7.63 1.8-4.04 3.67-8.21 7.53-8.21 3.86 0 5.72 4.17 7.52 8.2 1.75 3.93 3.4 7.64 6.62 7.64 3.21 0 4.87-3.7 6.62-7.63 1.8-4.04 3.67-8.21 7.53-8.21 3.81 0 5.66 4.1 7.45 8.07l.33.72.9-.9a44.52 44.52 0 01-2.05-4.2c-1.74-3.92-3.4-7.61-6.6-7.61-3.21 0-4.87 3.7-6.62 7.62-1.8 4.04-3.67 8.22-7.53 8.22-3.87 0-5.74-4.19-7.55-8.24-1.76-3.93-3.41-7.63-6.62-7.63s-4.87 3.7-6.62 7.62c-1.8 4.04-3.66 8.22-7.52 8.22-3.86 0-5.73-4.18-7.53-8.22-.6-1.33-1.2-2.69-1.86-3.87L3.63 33.5c1.78 1.52 3 4.21 4.17 6.83a56.06 56.06 0 001.6 3.38l4.3 4.3zm14.9-10.8c3.85 0 5.72 4.17 7.53 8.2 1.75 3.93 3.41 7.64 6.63 7.64 3.21 0 4.87-3.7 6.62-7.63 1.8-4.04 3.67-8.21 7.53-8.21 2.98 0 4.77 2.5 6.21 5.38l.79-.78-.48-1.07c-1.74-3.85-3.37-7.48-6.54-7.48-3.21 0-4.87 3.7-6.62 7.62-1.8 4.04-3.67 8.22-7.53 8.22s-5.73-4.18-7.54-8.22c-1.74-3.92-3.4-7.62-6.6-7.62-3.21 0-4.87 3.7-6.62 7.62-1.75 3.93-3.56 8-7.21 8.2l2.65 2.66c1.48-1.45 2.58-3.92 3.66-6.33 1.8-4.03 3.66-8.2 7.52-8.2zm28.3 10.9h-.01c-3.08 0-4.73 3.4-6.41 7.13l7.07-7.08a3.88 3.88 0 00-.65-.05zm-28.3-5.95c3.86 0 5.72 4.17 7.52 8.2 1.75 3.93 3.4 7.64 6.62 7.64 3.21 0 4.87-3.7 6.62-7.63 1.8-4.04 3.67-8.21 7.53-8.21a5.76 5.76 0 014.36 2.3l1.13-1.12c-1.33-2.7-2.92-5.13-5.47-5.13-3.21 0-4.87 3.7-6.62 7.62-1.8 4.04-3.67 8.22-7.53 8.22-3.87 0-5.74-4.18-7.54-8.22-1.76-3.92-3.41-7.62-6.62-7.62-3.2 0-4.86 3.7-6.61 7.61-1.11 2.48-2.25 5.04-3.87 6.62l1.37 1.37a57.34 57.34 0 001.56-3.35c1.8-4.08 3.67-8.3 7.55-8.3zm0 4.94c3.87 0 5.73 4.17 7.53 8.21 1.75 3.92 3.4 7.63 6.62 7.63h.03l5.67-5.67.92-2c1.8-4.02 3.68-8.16 7.52-8.16.51 0 1 .07 1.49.23l2.15-2.16a4.76 4.76 0 00-3.67-2.02c-3.18 0-4.84 3.7-6.59 7.62-1.8 4.04-3.67 8.22-7.53 8.22s-5.73-4.18-7.54-8.22c-1.74-3.92-3.4-7.62-6.6-7.62-3.23 0-4.88 3.74-6.63 7.7a53.56 53.56 0 01-1.74 3.69l.82.82.03-.06c1.8-4.04 3.67-8.21 7.53-8.21zm0 5c3.86 0 5.74 4.2 7.55 8.25.98 2.2 2 4.46 3.3 5.92l2.4-2.41c-3.26-.6-4.97-4.42-6.63-8.14-1.75-3.92-3.4-7.62-6.61-7.62-3.21 0-4.87 3.7-6.62 7.62l-.18.41.84.84c1.31-2.5 3.07-4.86 5.95-4.86zm-.01 4.9c3.87 0 5.74 4.17 7.54 8.21.44 1 .9 2.04 1.39 2.99l1.21-1.22c-1.41-1.58-2.47-3.94-3.5-6.22-1.75-3.94-3.42-7.65-6.63-7.65-2.46 0-4.02 2.27-5.2 4.6l1.16 1.18a5.52 5.52 0 014.03-1.9zm.04 5.96l5.7 5.7c-1.46-3.1-3.04-5.68-5.7-5.7zm-.06-1h.03c3.74 0 5.6 3.92 7.35 7.8l.83-.82a56.29 56.29 0 01-1.57-3.32c-1.75-3.92-3.4-7.62-6.61-7.62a4.5 4.5 0 00-3.33 1.6L27.72 62c.28-.05.57-.07.86-.07zm7.13 9.47L0 35.71 35.7 0l35.71 35.7-35.7 35.71z" fill-rule="evenodd"/></svg>