<svg width="72" height="72" xmlns="http://www.w3.org/2000/svg"><path d="M33.42 3.7l2 1.09c1.29.66 2.16.71 4.38.72l-4.1-4.1-2.28 2.29zM30.8 7.74c.57 0 1.14.14 1.67.43l3 1.62c1.46.72 2.46.72 5.43.72h3.9l-4-4h-.35c-2.73-.01-3.87 0-5.5-.84L32.7 4.43l-3.94 3.94.4-.2a3.46 3.46 0 011.65-.43zm-8.88 7.46l.47.27a2.48 2.48 0 002.37 0l4.34-2.4a3.5 3.5 0 013.33 0l3 1.62c1.47.72 2.47.72 5.44.72h8.83l-3.9-3.9h-4.9c-3.06 0-4.2 0-5.9-.83l-3-1.63a2.49 2.49 0 00-2.38 0l-3.21 1.67-4.48 4.48zm-3.2 3.2l3.7 2.02c.75.4 1.64.4 2.38 0l4.39-2.4a3.49 3.49 0 013.32 0l3 1.62c1.4.72 2.32.72 5.03.72h14.11L50.7 16.4h-9.83c-3.06 0-4.2 0-5.9-.83l-3.01-1.63a2.49 2.49 0 00-2.38 0l-4.34 2.4a3.5 3.5 0 01-3.33 0l-.72-.42-2.46 2.46zm-2.39 4.15c.57 0 1.14.14 1.66.42l4.4 2.4c.74.4 1.63.4 2.37 0l4.43-2.4a3.48 3.48 0 013.32 0l3 1.62c1.47.72 2.47.72 5.44.72H59.6l-3.95-3.95h-15.1c-2.76-.01-3.88 0-5.5-.84l-3.01-1.62a2.5 2.5 0 00-2.38 0l-4.38 2.4a3.5 3.5 0 01-3.33 0l-3.96-2.17-4.45 4.45 1.13-.61a3.5 3.5 0 011.66-.42zM7.2 29.93l.72.39c.74.4 1.63.4 2.37 0l4.39-2.4a3.48 3.48 0 013.32 0l4.4 2.4c.74.4 1.63.4 2.37 0l4.33-2.4a3.48 3.48 0 013.33 0l3 1.62c1.47.72 2.47.72 5.44.72h23.69L60.6 26.3H40.95c-3.06 0-4.2 0-5.9-.83l-3.01-1.63a2.5 2.5 0 00-2.37 0l-4.43 2.4a3.5 3.5 0 01-3.33 0l-4.4-2.4a2.5 2.5 0 00-2.36 0l-4.11 2.24-3.85 3.84zm9.14 2.51c.57 0 1.14.15 1.66.43l4.4 2.4c.74.4 1.63.4 2.37 0l4.39-2.4a3.5 3.5 0 013.32 0l3 1.62c1.4.72 2.32.71 5.03.72h29l-3.95-3.95h-24.7c-3.05 0-4.19 0-5.88-.83l-3.02-1.63a2.49 2.49 0 00-2.38 0l-4.33 2.4a3.49 3.49 0 01-3.33 0l-4.4-2.4a2.49 2.49 0 00-2.37 0l-4.38 2.4a3.49 3.49 0 01-3.33 0l-.97-.54L4 33.13l3.92 2.14c.74.4 1.63.4 2.37 0l4.39-2.4a3.51 3.51 0 011.66-.43zM3.56 37.86l4.32 2.37a2.49 2.49 0 002.37 0l4.39-2.4a3.5 3.5 0 013.32 0l4.4 2.4c.74.4 1.63.4 2.37 0l4.39-2.4a3.5 3.5 0 013.32 0l3 1.62c1.4.72 2.32.72 5.03.72h25.08l3.95-3.95h-29c-2.75-.01-3.87 0-5.5-.84l-3-1.62a2.49 2.49 0 00-2.38 0l-4.38 2.4a3.48 3.48 0 01-3.33 0l-4.4-2.4a2.5 2.5 0 00-2.37 0l-4.38 2.4a3.48 3.48 0 01-3.33 0l-4.17-2.29-1.85 1.85 2.15 2.14zm12.77 4.5c.57 0 1.14.14 1.66.42l4.4 2.4c.74.4 1.63.4 2.37 0L29 42.82a3.5 3.5 0 013.33 0l3 1.62c1.47.72 2.47.72 5.44.72h19.77l4-4H40.47c-2.74 0-3.87 0-5.5-.84l-3-1.62a2.49 2.49 0 00-2.38 0l-4.38 2.4a3.5 3.5 0 01-3.33 0l-4.4-2.4a2.5 2.5 0 00-2.37 0l-4.38 2.4a3.5 3.5 0 01-3.33 0l-1.32-.73 4.58 4.58 4-2.18a3.5 3.5 0 011.67-.43zm0 4.94c.57 0 1.14.15 1.66.43l4.4 2.4c.74.4 1.63.4 2.37 0l4.39-2.4a3.5 3.5 0 013.32 0l3 1.63c1.4.72 2.32.73 5.03.72h15.14l3.9-3.91H40.79c-3.06 0-4.2 0-5.9-.83l-3.01-1.63a2.49 2.49 0 00-2.38 0l-4.25 2.35a3.5 3.5 0 01-3.33 0l-4.4-2.4a2.5 2.5 0 00-2.36 0L11.4 45.7l2.47 2.46.81-.43a3.47 3.47 0 011.66-.42zm2.52 5.84l3.56 1.95c.74.4 1.63.4 2.37 0l4.39-2.41a3.48 3.48 0 013.32 0l3 1.63c1.4.72 2.32.71 5.03.72h10.17l3.95-3.95H40.5c-2.75 0-3.87 0-5.5-.84l-3-1.63a2.5 2.5 0 00-2.38 0L25.24 51a3.49 3.49 0 01-3.33 0l-4.4-2.4a2.5 2.5 0 00-2.37 0l-.54.29 4.24 4.25v-.01zm11.93 4.12c.57 0 1.14.14 1.66.42l3 1.63c1.47.72 2.47.72 5.44.72h4.81l4-4h-9.17c-2.74 0-3.87 0-5.5-.84l-3-1.63a2.49 2.49 0 00-2.38 0l-4.38 2.4a3.49 3.49 0 01-3.33 0l-.59-.31 4.06 4.06 3.72-2.03a3.49 3.49 0 011.66-.42zm-.03 4.89a3.5 3.5 0 011.67.42l3 1.63c1.45.71 2.45.72 5.38.72l3.89-3.9h-3.81c-3.06 0-4.2 0-5.9-.82l-3.01-1.64a2.5 2.5 0 00-2.38 0l-3.45 1.88 2.41 2.42.54-.3a3.5 3.5 0 011.66-.41zm-1.46 1.45l6.42 6.4 4.1-4.1c-2.3 0-3.37-.1-4.85-.82l-3.02-1.64a2.5 2.5 0 00-2.37 0l-.28.15zm6.42 7.82L0 35.71 25.77 9.93l.03-.03L35.7 0l35.71 35.7-35.7 35.71z" fill-rule="evenodd"/></svg>