<svg width="72" height="72" xmlns="http://www.w3.org/2000/svg"><path d="M35.7 1.41L33.64 3.5c.97-.35 2-.74 3.02-1.14l-.94-.94zm-3.73 3.75l-5.81 5.8A152.84 152.84 0 0040.2 5.9l-2.78-2.78c-1.9.76-3.88 1.48-5.45 2.04zm-7.3 7.3l-5.18 5.17c8.47-1.9 15.16-4.57 21.64-7.16l2.6-1.04-2.77-2.76a154.1 154.1 0 01-16.3 5.78zm-6.48 6.47l-4.78 4.78c11.55-1.82 19.76-5.1 27.7-8.28A354.76 354.76 0 0147.3 13l-2.8-2.8-3 1.2c-6.9 2.76-14.04 5.61-23.31 7.53zm-5.97 5.97l-4.56 4.56c14.7-1.57 24.2-5.37 33.38-9.05 3.17-1.27 6.43-2.58 9.88-3.79l-2.85-2.84a346 346 0 00-6.58 2.58c-8.3 3.32-16.9 6.75-29.27 8.54zm-5.68 5.68l-4.3 4.3c17.93-1.14 28.54-5.4 38.81-9.52 4.28-1.71 8.69-3.48 13.59-5.02l-2.94-2.93c-3.59 1.24-7 2.6-10.28 3.93-9.5 3.8-19.33 7.74-34.88 9.24zm-4.91 5.34L5.3 39.6c16.1-1.43 26.1-5.43 35.78-9.3 5.36-2.14 10.88-4.35 17.39-6.11l-3.03-3.04a175.13 175.13 0 00-14.02 5.15c-10.47 4.2-21.3 8.54-39.8 9.63zm4.59 4.59l3.55 3.55c13.52-1.72 22.56-5.33 31.3-8.83 6.4-2.55 13.02-5.2 21.36-7.1L59.29 25c-6.7 1.78-12.36 4.04-17.83 6.23C31.88 35.05 21.98 39 6.22 40.5zm4.44 4.44l3.43 3.44c11.15-1.86 19.2-5.08 26.98-8.2 7.42-2.97 15.1-6.04 25.47-7.95l-3.27-3.27c-8.55 1.89-15.3 4.59-21.83 7.2-8.63 3.44-17.56 7.01-30.78 8.78zm4.3 4.3l3.3 3.3c9.03-1.88 16.05-4.7 22.83-7.41 7.99-3.2 16.24-6.5 27.84-8.36L70 35.7l-2.6-2.6c-10.63 1.88-18.42 5-25.96 8.01-7.67 3.07-15.59 6.24-26.48 8.13zm4.14 4.15l3.17 3.16c7.13-1.8 13.06-4.18 18.8-6.47 6.5-2.6 13.23-5.3 21.74-7.2l4.9-4.9c-10.78 1.88-18.63 5.03-26.24 8.08-6.67 2.67-13.56 5.42-22.37 7.33zm4 3.98l3.04 3.05A167.45 167.45 0 0041.15 55c4.69-1.88 9.53-3.82 15.02-5.46l5.3-5.3c-7.7 1.86-13.96 4.36-20.03 6.78-5.61 2.25-11.4 4.57-18.35 6.37zm3.84 3.86l2.97 2.96c3.93-1.32 7.61-2.79 11.18-4.21 2.45-.98 4.98-2 7.58-2.95l6-6c-4.73 1.5-9 3.22-13.15 4.88-4.56 1.82-9.27 3.71-14.58 5.32zm3.76 3.75l2.86 2.87a212.11 212.11 0 007.01-2.73l6.39-6.38c-1.87.71-3.71 1.45-5.5 2.17a218.45 218.45 0 01-10.76 4.07zm3.64 3.65L35.71 70l3.06-3.06a203.94 203.94 0 01-4.43 1.7zm1.37 2.77L0 35.71 35.7 0l35.71 35.7-35.7 35.71z" fill-rule="evenodd"/></svg>