<svg width="72" height="72" xmlns="http://www.w3.org/2000/svg"><path d="M35.7 0L0 35.7l35.7 35.71 35.71-35.7L35.71 0zm0 1.41l4.1 4.1h-8.19l4.1-4.1zm-5.09 5.1h10.2l3.94 3.95H26.66l3.95-3.95zm-4.95 4.95h20.1l3.94 3.95H21.71l3.95-3.95zm-4.95 4.95h30l3.94 3.95H16.76l3.95-3.95zm-4.95 4.95h39.9l3.94 3.95H11.81l3.95-3.95zm-4.95 4.95h49.8l3.94 3.95H6.86l3.95-3.95zm-4.95 4.95h59.69l3.95 3.95H1.91l3.95-3.95zM1.91 36.2H69.5l-3.95 3.95H5.86L1.91 36.2zm4.95 4.95h57.7L60.6 45.1H10.81l-3.95-3.95zm4.95 4.95h47.8l-3.96 3.95H15.76l-3.95-3.95zm4.95 4.95h37.9L50.7 55H20.71l-3.95-3.95zM21.71 56h28l-3.96 3.95H25.66L21.71 56zm4.95 4.95h18.1L40.8 64.9H30.61l-3.95-3.95zm4.95 4.95h8.2L35.7 70l-4.1-4.1z" fill-rule="evenodd"/></svg>