<svg width="72" height="72" xmlns="http://www.w3.org/2000/svg"><path d="M35.68 3.44c.4 0 .8.15 1.1.45a14.19 14.19 0 004.33 2.92l-5.4-5.4-5.36 5.36a14.2 14.2 0 004.22-2.88 1.57 1.57 0 011.1-.45zm.03 4.98c.4 0 .8.15 1.1.45A14.29 14.29 0 0046.89 13l.4-.01-4.55-4.55a15.23 15.23 0 01-6.67-3.84.57.57 0 00-.8 0 15.2 15.2 0 01-6.58 3.83L24.12 13h.4c3.8 0 7.38-1.47 10.09-4.13a1.57 1.57 0 011.1-.45zm.04 4.95c.4 0 .8.15 1.1.45a14.18 14.18 0 0010.14 4.13c1.55 0 3.08-.24 4.54-.71l-3.3-3.31a14.72 14.72 0 00-.51.03c-.3.02-.58.04-.83.04A15.28 15.28 0 0136.1 9.58a.58.58 0 00-.8 0A15.44 15.44 0 0124.42 14c-.44-.03-.84 0-1.25-.05l-3.27 3.27c1.46.47 2.98.7 4.52.7h.16c3.8 0 7.36-1.45 10.07-4.1a1.56 1.56 0 011.1-.45zM24.43 22.9c3.84 0 7.48-1.43 10.22-4.13a1.57 1.57 0 012.2 0c2.72 2.68 6.3 4.1 10.14 4.13h.06c2.8 0 5.5-.8 7.84-2.3l-2.57-2.57c-1.73.62-3.57.9-5.4.92a15.28 15.28 0 01-10.77-4.42.57.57 0 00-.8 0 15.27 15.27 0 01-10.76 4.4h-.17c-1.82 0-3.6-.31-5.3-.92l-2.6 2.58a14.41 14.41 0 007.85 2.3h.06zm11.28.37c.4 0 .8.15 1.1.45a14.55 14.55 0 0020.36 0 1.56 1.56 0 01.5-.33l-2.06-2.07a15.4 15.4 0 01-8.56 2.58h-.12a15.28 15.28 0 01-10.78-4.42.57.57 0 00-.8 0 15.28 15.28 0 01-10.78 4.42h-.21c-3.06 0-6.01-.9-8.56-2.58l-2.06 2.06c.18.08.36.2.5.34a14.55 14.55 0 0020.37 0c.3-.3.7-.45 1.1-.45zM13.15 28.2c.4 0 .8.15 1.1.45a14.54 14.54 0 0020.4 0 1.57 1.57 0 012.12-.01 14.55 14.55 0 0020.38 0 1.58 1.58 0 012.2.01 14.3 14.3 0 007.5 3.91l-7.4-7.4a17.75 17.75 0 01-.79-.72.57.57 0 00-.8 0 15.55 15.55 0 01-21.75 0 .57.57 0 00-.8 0 15.55 15.55 0 01-21.76 0 .57.57 0 00-.8 0c-.23.23-.47.45-.72.66L4.6 32.51a14.3 14.3 0 007.44-3.87 1.56 1.56 0 011.1-.45zm0 5c.4 0 .8.15 1.1.45a14.54 14.54 0 0020.4 0 1.57 1.57 0 012.12-.01 14.56 14.56 0 0020.38 0 1.58 1.58 0 012.2.01 14.37 14.37 0 008.71 4L70 35.71l-1.99-2a15.3 15.3 0 01-9.37-4.36.57.57 0 00-.8 0 15.55 15.55 0 01-21.75 0 .57.57 0 00-.76.02 15.53 15.53 0 01-21.78-.02.57.57 0 00-.8 0 15.3 15.3 0 01-9.31 4.33L1.4 35.71l1.98 1.98a14.38 14.38 0 008.66-4.05 1.56 1.56 0 011.1-.45zm22.54 4.93c.4 0 .8.15 1.1.45a14.58 14.58 0 0020.36 0 1.57 1.57 0 012.2 0 14.02 14.02 0 004.73 3.06l3.08-3.09a15.37 15.37 0 01-8.51-4.18.57.57 0 00-.8 0 15.55 15.55 0 01-21.76 0 .57.57 0 00-.76 0 15.53 15.53 0 01-21.78 0 .57.57 0 00-.8 0 15.39 15.39 0 01-8.46 4.22l3.05 3.06a14.15 14.15 0 004.69-3.07 1.57 1.57 0 012.2 0 14.58 14.58 0 0020.36 0 1.56 1.56 0 011.1-.45zm0 4.95c.4 0 .8.15 1.1.45a14.58 14.58 0 0020.36 0 1.57 1.57 0 012.2 0c.47.47.99.91 1.53 1.31l2.43-2.43a15 15 0 01-4.66-3.12.57.57 0 00-.8 0 15.57 15.57 0 01-21.76 0 .57.57 0 00-.8 0 15.57 15.57 0 01-21.76 0 .57.57 0 00-.8 0A15.15 15.15 0 018.1 42.4l2.41 2.41c.53-.4 1.04-.82 1.5-1.29a1.58 1.58 0 012.2 0 14.57 14.57 0 0020.37 0 1.56 1.56 0 011.1-.45zm-21.76 5.15c.12.07.23.16.32.26a14.57 14.57 0 0020.36-.01 1.58 1.58 0 012.2 0 14.58 14.58 0 0020.36 0 .86.86 0 01.31-.24l2.68-2.68a15.18 15.18 0 01-1.51-1.32.57.57 0 00-.8 0 15.57 15.57 0 01-21.76 0 .57.57 0 00-.8 0 15.57 15.57 0 01-21.76 0 .57.57 0 00-.8 0c-.47.47-.97.9-1.5 1.3l2.7 2.7zm9.23 9.24c.42.04.9.04 1.37.04a14.32 14.32 0 0010.09-4.12 1.58 1.58 0 012.2 0A14.32 14.32 0 0046.9 57.5h1.31l5.33-5.33a15.57 15.57 0 01-17.43-2.98.57.57 0 00-.8 0 15.57 15.57 0 01-17.44 2.98l5.3 5.29zm12.55.42c.4 0 .8.15 1.1.45a14.13 14.13 0 006.83 3.74l3.57-3.57h-.31a15.3 15.3 0 01-10.78-4.4.58.58 0 00-.8 0 15.31 15.31 0 01-10.79 4.4h-.33l3.58 3.57a14.18 14.18 0 006.83-3.74 1.57 1.57 0 011.1-.45zm0 5c.4 0 .8.14 1.1.44.95.95 2.02 1.75 3.2 2.38l2.8-2.8a15.12 15.12 0 01-6.7-3.86.57.57 0 00-.8 0 15.16 15.16 0 01-6.7 3.85l2.8 2.8a13.98 13.98 0 003.2-2.37 1.56 1.56 0 011.1-.45zm0 4.98c.4 0 .8.15 1.1.45l.3.29 2.16-2.17a14.75 14.75 0 01-3.17-2.4.57.57 0 00-.8 0 14.94 14.94 0 01-3.16 2.4l2.16 2.16.32-.3a1.54 1.54 0 011.08-.43zM35 69.3l.7.7.7-.7a8.93 8.93 0 01-.3-.28.57.57 0 00-.8 0l-.3.28zm.7 2.11L0 35.71l11.3-11.3.05-.05L35.7 0l35.7 35.7-35.7 35.71z" fill-rule="evenodd"/></svg>