<svg width="72" height="72" xmlns="http://www.w3.org/2000/svg"><path d="M33.85 4.8c1.06 0 1.62.48 2.07.87.4.34.73.62 1.42.62.68 0 1-.27 1.41-.62.21-.17.43-.35.7-.5L35.72 1.4l-4.8 4.8c.34-.1.58-.3.86-.54.46-.38 1.02-.86 2.08-.86zm7.03 4.92c1.05 0 1.61.47 2.06.85.42.35.74.63 1.44.63a1.79 1.79 0 00.87-.25L40.2 5.91a2.7 2.7 0 00-.81.53 2.9 2.9 0 01-4.13-.01c-.4-.35-.73-.62-1.42-.62-.7 0-1.02.27-1.43.62a2.9 2.9 0 01-2.06.86 2.66 2.66 0 01-.49-.04l-2.5 2.5c.77.11 1.23.5 1.61.83.41.34.74.62 1.43.62s1.01-.28 1.42-.62a2.9 2.9 0 014.14 0c.4.34.73.62 1.42.62s1.01-.28 1.42-.62a2.91 2.91 0 012.07-.86zm0 4.93c1.07 0 1.63.47 2.08.86.42.34.74.62 1.43.62.68 0 1-.28 1.41-.62a2.92 2.92 0 013.53-.47l-3.36-3.36c-.46.33-1 .5-1.59.52a2.95 2.95 0 01-2.08-.86c-.41-.35-.74-.62-1.42-.62-.69 0-1.01.27-1.42.62-.45.38-1.01.86-2.07.86a2.9 2.9 0 01-2.07-.86c-.41-.35-.73-.62-1.42-.62-.7 0-1.02.27-1.42.62-.45.38-1.01.86-2.07.86-1.06 0-1.62-.48-2.08-.86-.41-.36-.78-.62-1.46-.62-.2 0-.37.02-.55.08l-4.52 4.53.21.17c.41.35.74.63 1.43.63.68 0 1-.28 1.42-.62a2.92 2.92 0 014.14 0c.4.34.73.62 1.42.62s1-.28 1.42-.62a2.92 2.92 0 014.13 0c.41.34.74.62 1.43.62s1.01-.28 1.42-.62c.45-.39 1-.86 2.07-.86zm-24.83 6.42c.11.02.23.03.35.03.71 0 1.03-.28 1.45-.63a2.9 2.9 0 014.12 0c.42.35.74.63 1.44.63.69 0 1.01-.28 1.42-.62a2.9 2.9 0 014.14 0c.4.34.73.62 1.42.62s1.01-.28 1.42-.62a2.91 2.91 0 012.07-.86c1.06 0 1.62.47 2.07.86.4.34.73.62 1.42.62s1.01-.28 1.43-.63a2.9 2.9 0 014.12 0c.42.35.74.63 1.44.63.69 0 1.01-.28 1.42-.62a2.9 2.9 0 014.14 0c.4.34.73.62 1.42.62.68 0 1-.28 1.42-.62.32-.28.7-.6 1.26-.75l-2.65-2.6a2.9 2.9 0 01-2.07-.86c-.4-.35-.73-.62-1.42-.62-.7 0-1.02.27-1.43.62-.45.38-1.01.86-2.06.86a2.93 2.93 0 01-2.07-.86c-.41-.35-.74-.62-1.43-.62-.7 0-1.02.27-1.42.62a2.9 2.9 0 01-4.15 0c-.4-.35-.73-.62-1.41-.62-.69 0-1.01.27-1.42.62a2.92 2.92 0 01-4.14 0c-.41-.35-.73-.62-1.42-.62s-1.01.27-1.42.62a2.92 2.92 0 01-4.14 0l-.29-.23-5.03 5.03zm38.78 3.49c1.06 0 1.62.47 2.07.85.41.35.74.63 1.43.63.68 0 1-.27 1.4-.6l-4.82-4.82h-.08c-.69 0-1.01.27-1.42.62-.46.38-1.02.86-2.07.86s-1.61-.48-2.06-.86c-.42-.35-.74-.62-1.43-.62-.7 0-1.02.27-1.42.62a2.9 2.9 0 01-2.07.86 2.95 2.95 0 01-2.08-.86c-.41-.35-.74-.62-1.42-.62-.69 0-1.01.27-1.42.62-.45.38-1.01.86-2.07.86s-1.62-.48-2.07-.86c-.4-.35-.73-.62-1.42-.62-.7 0-1.02.27-1.42.62-.45.38-1.01.86-2.07.86s-1.62-.48-2.07-.86c-.41-.35-.73-.62-1.42-.62-.7 0-1.02.27-1.42.62-.45.38-1.01.86-2.07.86a2.95 2.95 0 01-2.08-.86c-.41-.35-.74-.62-1.42-.62s-1.01.27-1.42.62c-.45.38-1.01.86-2.07.86a2.52 2.52 0 01-1.16-.24l-2.72 2.72c.12-.02.25-.02.39-.02 1.05 0 1.61.47 2.06.85.41.35.74.63 1.43.63s1.01-.28 1.42-.62a2.93 2.93 0 014.15 0c.4.34.73.62 1.42.62.68 0 1-.28 1.42-.63a2.92 2.92 0 012.07-.85c1.05 0 1.61.47 2.07.85.4.35.73.63 1.42.63.68 0 1-.28 1.42-.63a2.92 2.92 0 014.13 0c.41.35.74.63 1.43.63s1.01-.28 1.42-.62a2.93 2.93 0 014.15 0c.4.34.73.62 1.42.62.68 0 1-.28 1.41-.62a2.93 2.93 0 014.15 0c.4.34.73.62 1.42.62s1.01-.28 1.42-.62c.45-.39 1-.86 2.07-.86zm0 4.94c1.05 0 1.61.48 2.07.86.4.35.74.63 1.43.63s1-.28 1.42-.63c.45-.38 1-.86 2.07-.86 1.06 0 1.62.48 2.07.86.4.35.73.62 1.4.63l-4.86-4.85a.65.65 0 00-.03.04c-.45.38-1 .86-2.07.86a2.92 2.92 0 01-2.08-.86c-.4-.35-.73-.62-1.42-.62-.7 0-1.02.27-1.42.62-.45.38-1.01.86-2.07.86a2.91 2.91 0 01-2.07-.86c-.4-.35-.73-.62-1.42-.62-.7 0-1.02.27-1.43.62a2.9 2.9 0 01-4.13 0c-.41-.35-.74-.62-1.43-.62-.7 0-1.02.27-1.42.62a2.91 2.91 0 01-4.15 0c-.4-.35-.73-.62-1.41-.62-.69 0-1.01.27-1.43.62a2.92 2.92 0 01-4.13 0c-.41-.35-.74-.62-1.42-.62-.69 0-1.01.27-1.42.62a2.92 2.92 0 01-4.14 0c-.41-.35-.74-.62-1.43-.62-.7 0-1.02.27-1.42.62-.45.38-1.01.86-2.07.86s-1.63-.48-2.08-.86c-.4-.35-.73-.62-1.41-.62-.7 0-1.02.27-1.43.62-.34.3-.73.63-1.34.78L7.31 29.8c.27.16.48.34.69.52.4.34.73.62 1.42.62.6 0 .94-.26 1.36-.6a3.19 3.19 0 012.15-.85 2.9 2.9 0 012.07.86c.4.35.73.63 1.42.63s1.01-.28 1.42-.63a2.9 2.9 0 012.07-.86c1.05 0 1.61.48 2.07.86.4.35.74.63 1.43.63s1-.28 1.42-.63c.45-.38 1-.86 2.07-.86a2.9 2.9 0 012.07.86c.4.35.73.63 1.42.63s1-.28 1.42-.63a2.9 2.9 0 012.07-.86c1.06 0 1.62.48 2.07.86.4.35.73.63 1.42.63s1.01-.28 1.42-.63a2.9 2.9 0 012.07-.86c1.05 0 1.61.48 2.06.86.42.35.74.63 1.44.63.69 0 1-.28 1.42-.63a2.9 2.9 0 012.07-.86c1.06 0 1.62.48 2.07.86.41.35.73.63 1.42.63.68 0 1-.28 1.42-.63a2.92 2.92 0 012.07-.86zm6.99 5a2.9 2.9 0 012.07.86c.4.35.73.63 1.42.63s1.01-.28 1.42-.63c.45-.38 1.01-.86 2.06-.86l-2.63-2.63a3.03 3.03 0 01-.86.12c-1.05 0-1.6-.48-2.06-.87-.4-.35-.73-.62-1.42-.62-.7 0-1.01.27-1.42.62a2.9 2.9 0 01-4.15 0c-.41-.35-.74-.62-1.42-.62s-1.01.27-1.42.62c-.46.39-1.02.87-2.07.87a2.9 2.9 0 01-2.07-.87c-.4-.35-.73-.62-1.42-.62-.7 0-1.02.27-1.42.62a2.9 2.9 0 01-2.07.87 2.9 2.9 0 01-2.08-.87c-.41-.35-.74-.62-1.42-.62-.69 0-1 .27-1.42.62a2.9 2.9 0 01-4.15 0c-.4-.35-.72-.62-1.41-.62-.7 0-1.01.27-1.42.62a2.9 2.9 0 01-4.14 0c-.41-.35-.73-.62-1.42-.62-.7 0-1.01.27-1.42.62a2.9 2.9 0 01-2.07.87 2.9 2.9 0 01-2.08-.87c-.41-.35-.74-.62-1.42-.62-.69 0-1 .27-1.42.62a2.9 2.9 0 01-4.15 0c-.4-.35-.72-.62-1.41-.62-.72 0-1.08.28-1.54.64a2.9 2.9 0 01-1.97.8 2.9 2.9 0 01-2.07-.86c-.27-.22-.49-.4-.8-.52l-5.1 5.1c.3.19.64.29 1 .29.71 0 1.06-.28 1.5-.63A3 3 0 016 34.5c1.02 0 1.57.47 2.02.86.4.35.73.63 1.42.63.68 0 1-.28 1.42-.63.45-.38 1.01-.86 2.07-.86s1.61.48 2.06.86c.41.35.74.63 1.43.63s1-.28 1.42-.63a2.9 2.9 0 014.15 0c.4.35.73.63 1.42.63s1-.28 1.42-.63c.45-.38 1.01-.86 2.07-.86 1.05 0 1.61.48 2.07.86.4.35.73.63 1.42.63.68 0 1-.28 1.42-.63a2.9 2.9 0 014.13 0c.41.35.74.63 1.43.63s1-.28 1.42-.63c.45-.38 1-.86 2.07-.86 1.06 0 1.62.48 2.08.86.4.35.73.63 1.42.63.68 0 1-.28 1.41-.63a2.95 2.95 0 012.08-.86 2.9 2.9 0 012.07.86c.4.35.73.63 1.42.63s1-.28 1.42-.63a2.9 2.9 0 012.07-.86c1.06 0 1.62.48 2.08.86.4.35.73.63 1.42.63.68 0 1-.28 1.41-.63a2.95 2.95 0 012.08-.86zm-7.02 4.9c1.06 0 1.62.49 2.08.87.4.35.73.63 1.42.63.7 0 1.04-.29 1.48-.65.47-.4 1.01-.84 2-.84 1.07 0 1.63.48 2.08.86.32.27.58.5 1 .59l5.04-5.06a2.02 2.02 0 00-1.06-.3h-.03c-.7 0-1.02.27-1.43.62a2.9 2.9 0 01-4.14 0c-.41-.35-.73-.62-1.42-.62-.7 0-1.02.27-1.43.62a2.9 2.9 0 01-2.06.87 2.9 2.9 0 01-2.07-.87c-.41-.34-.74-.62-1.43-.62-.7 0-1.01.27-1.42.62a2.9 2.9 0 01-4.14 0c-.41-.35-.73-.62-1.42-.62-.7 0-1.02.27-1.43.62a2.9 2.9 0 01-2.06.87 2.9 2.9 0 01-2.07-.87c-.41-.34-.74-.62-1.43-.62-.7 0-1.01.27-1.42.62a2.9 2.9 0 01-2.07.87 2.9 2.9 0 01-2.08-.87c-.4-.35-.73-.62-1.41-.62-.69 0-1.01.27-1.42.62-.46.39-1.02.87-2.07.87s-1.62-.48-2.07-.87c-.41-.35-.74-.62-1.42-.62-.69 0-1.01.27-1.42.62a2.9 2.9 0 01-4.14 0c-.41-.34-.74-.62-1.43-.62-.7 0-1.01.27-1.42.62a2.9 2.9 0 01-4.15 0c-.4-.35-.73-.62-1.41-.62s-1.01.27-1.42.62c-.46.39-1.02.87-2.07.87a2.91 2.91 0 01-2.08-.88c-.4-.34-.7-.61-1.36-.61-.67 0-1 .27-1.43.6a3.1 3.1 0 01-1.92.84l2.57 2.57a2.83 2.83 0 012.8.76c.4.35.73.63 1.42.63.68 0 1-.28 1.42-.63.45-.38 1.01-.86 2.07-.86s1.61.48 2.06.86c.41.35.74.63 1.43.63s1-.28 1.42-.63a2.9 2.9 0 014.15 0c.4.35.73.63 1.42.63s1-.28 1.42-.63c.45-.38 1.01-.86 2.07-.86 1.05 0 1.61.48 2.07.86.4.35.73.63 1.42.63.68 0 1-.28 1.42-.63a2.9 2.9 0 014.13 0c.41.35.74.63 1.43.63s1-.28 1.42-.63a2.9 2.9 0 014.15 0c.4.35.73.63 1.42.63.68 0 1-.28 1.4-.62a2.9 2.9 0 014.13 0c.4.34.73.62 1.42.62s1-.28 1.42-.63a2.9 2.9 0 012.07-.86zm.03 4.97c1.05 0 1.61.48 2.07.86.4.35.74.63 1.43.63.75 0 1.07-.28 1.47-.64.36-.32.78-.69 1.5-.8l2.77-2.78c-.35-.17-.61-.4-.86-.6-.4-.36-.73-.63-1.42-.63-.64 0-.96.27-1.38.61-.47.4-1.05.88-2.11.88-1.06 0-1.62-.48-2.07-.86-.41-.35-.74-.63-1.43-.63-.7 0-1.02.27-1.42.62a2.88 2.88 0 01-4.14 0c-.41-.35-.73-.62-1.42-.62-.7 0-1 .27-1.41.62-.45.39-1 .87-2.05.87-1.06 0-1.62-.48-2.07-.86-.41-.35-.74-.63-1.43-.63-.7 0-1.01.27-1.42.62a2.9 2.9 0 01-4.15 0c-.4-.35-.73-.62-1.41-.62-.69 0-1.01.27-1.42.62-.46.39-1.02.87-2.07.87s-1.62-.48-2.07-.87c-.41-.35-.74-.62-1.42-.62-.69 0-1.01.27-1.42.62-.46.39-1.02.87-2.07.87s-1.62-.48-2.07-.86c-.41-.35-.74-.63-1.43-.63-.7 0-1.01.27-1.42.62a2.9 2.9 0 01-4.15 0c-.4-.35-.73-.62-1.41-.62s-1.01.27-1.42.62c-.46.39-1.02.87-2.07.87-1.07 0-1.63-.49-2.08-.88-.37-.32-.67-.58-1.24-.6l4.75 4.74a3.45 3.45 0 012.03-.8c1.08 0 1.64.49 2.1.87.4.35.73.63 1.42.63s1.01-.28 1.42-.63a2.9 2.9 0 012.07-.86c1.05 0 1.61.48 2.07.86.4.35.73.63 1.43.63.69 0 1-.28 1.42-.63a2.9 2.9 0 014.14 0c.4.35.73.63 1.42.63s1-.28 1.42-.63a2.9 2.9 0 014.14 0c.4.35.73.63 1.42.63s1.01-.28 1.42-.63a2.9 2.9 0 014.13 0c.42.35.74.63 1.44.63.69 0 1-.28 1.42-.63a2.9 2.9 0 012.07-.86c1.06 0 1.62.48 2.07.86.41.35.73.63 1.42.63.68 0 1-.28 1.42-.63a2.92 2.92 0 012.07-.86zm-6.98 4.95a2.9 2.9 0 012.07.86c.4.35.73.63 1.42.63s1.01-.28 1.42-.63a3 3 0 012.13-.86 2.7 2.7 0 011.21.29l2.8-2.8a3.42 3.42 0 01-.57.05 2.9 2.9 0 01-2.08-.87c-.41-.35-.74-.62-1.42-.62s-1.01.27-1.42.62c-.46.39-1.02.87-2.07.87a2.88 2.88 0 01-2.07-.87c-.4-.35-.73-.62-1.42-.62-.7 0-1.01.27-1.42.62a2.9 2.9 0 01-4.15 0c-.41-.35-.74-.62-1.42-.62-.69 0-1 .27-1.42.62a2.88 2.88 0 01-4.14 0c-.41-.35-.73-.62-1.42-.62-.7 0-1.01.27-1.42.62a2.88 2.88 0 01-4.14 0c-.41-.35-.73-.62-1.42-.62-.7 0-1.01.27-1.42.62a2.9 2.9 0 01-4.15 0c-.41-.35-.74-.62-1.42-.62-.69 0-1 .27-1.42.62a2.9 2.9 0 01-4.15 0c-.4-.35-.73-.62-1.41-.62a2.42 2.42 0 00-1.35.5l4.92 4.92c.64-.02.95-.28 1.34-.62a2.9 2.9 0 014.15 0c.4.35.73.63 1.42.63s1-.28 1.42-.63c.45-.38 1.01-.86 2.07-.86 1.05 0 1.61.48 2.07.86.4.35.73.63 1.42.63.68 0 1-.28 1.42-.63a2.92 2.92 0 012.07-.86c1.05 0 1.61.48 2.06.86.41.35.74.63 1.43.63s1-.28 1.42-.63a2.9 2.9 0 014.15 0c.4.35.73.63 1.42.63.68 0 1-.28 1.41-.62a2.92 2.92 0 012.08-.86zm-7 4.95c1.06 0 1.62.47 2.08.86.4.35.74.63 1.43.63s1-.28 1.42-.63a2.9 2.9 0 014.14 0l.36.3 5.05-5.05a1.77 1.77 0 00-.5-.06c-.69 0-1 .27-1.42.62a2.9 2.9 0 01-4.15 0c-.4-.35-.72-.62-1.41-.62-.7 0-1.02.27-1.43.62-.45.38-1.01.86-2.06.86s-1.62-.48-2.07-.87c-.41-.35-.74-.62-1.43-.62-.7 0-1.01.27-1.42.62a2.9 2.9 0 01-4.15 0c-.4-.35-.73-.62-1.41-.62-.69 0-1.01.27-1.42.62-.46.39-1.02.87-2.07.87s-1.62-.48-2.07-.87c-.41-.35-.74-.62-1.42-.62-.69 0-1.01.27-1.42.62a2.9 2.9 0 01-4.14 0c-.41-.35-.74-.62-1.43-.62-.7 0-1.01.27-1.42.62-.3.25-.64.55-1.13.72l2.62 2.62a2.9 2.9 0 012 .86c.41.35.74.63 1.43.63s1-.28 1.42-.63a2.9 2.9 0 014.14 0c.4.35.73.63 1.42.63s1-.28 1.42-.63a2.9 2.9 0 014.14 0c.4.35.73.63 1.42.63s1.01-.28 1.42-.63a2.9 2.9 0 012.07-.86zm0 4.94c1.07 0 1.63.48 2.08.86.42.36.74.64 1.46.63.29 0 .57-.07.82-.2l4.36-4.36-.3-.25c-.41-.35-.74-.62-1.42-.62-.7 0-1.01.27-1.42.62a2.9 2.9 0 01-2.07.87 2.9 2.9 0 01-2.08-.87c-.41-.35-.74-.62-1.42-.62-.69 0-1 .27-1.42.62a2.92 2.92 0 01-4.14 0c-.41-.35-.73-.62-1.42-.62-.7 0-1.01.27-1.42.62a2.9 2.9 0 01-4.14 0c-.41-.35-.73-.62-1.42-.62-.7 0-1.01.27-1.42.62a2.9 2.9 0 01-3.27.61l3.15 3.15a2.7 2.7 0 011.55-.44c1.04 0 1.6.48 2.06.86.4.35.73.63 1.42.63.68 0 1-.28 1.42-.63a2.9 2.9 0 014.13 0c.41.35.74.63 1.43.63s1-.28 1.42-.63c.45-.38 1-.86 2.07-.86zm-6.97 4.95a2.9 2.9 0 012.06.86c.41.35.74.63 1.43.63s1.01-.28 1.42-.63a2.9 2.9 0 012.7-.8l2.54-2.54a2.99 2.99 0 01-1.75-.85c-.4-.35-.73-.62-1.42-.62s-1.01.27-1.42.62a2.9 2.9 0 01-2.07.87 2.9 2.9 0 01-2.08-.87c-.4-.35-.73-.62-1.41-.62-.69 0-1.01.27-1.42.62-.46.39-1.02.87-2.07.87s-1.62-.48-2.07-.87c-.42-.35-.77-.6-1.45-.62-.28 0-.54.06-.78.17l5.1 5.1c.22-.12.4-.28.61-.46.46-.38 1.02-.86 2.08-.86zM31.9 66.2l3.8 3.8 4.81-4.82c-.47.08-.74.31-1.08.6a2.9 2.9 0 01-4.15 0c-.4-.35-.73-.62-1.41-.62-.7 0-1.02.27-1.43.62-.16.14-.33.3-.54.42zm3.8 5.21L0 35.71 35.7 0l35.71 35.7-35.7 35.71z" fill-rule="evenodd"/></svg>