<?xml version="1.0" standalone="no"?>
<!DOCTYPE svg PUBLIC "-//W3C//DTD SVG 1.1//EN" "http://www.w3.org/Graphics/SVG/1.1/DTD/svg11.dtd" >
<svg xmlns="http://www.w3.org/2000/svg">
<metadata></metadata>
<defs>
<font id="fortescue_proitalic" horiz-adv-x="552" >
<font-face units-per-em="1024" ascent="768" descent="-256" />
<missing-glyph horiz-adv-x="267" />
<glyph unicode="&#xfb01;" horiz-adv-x="598" d="M-181 -180q0 30 15.5 43t35.5 13q22 0 36.5 -11.5t14.5 -35.5q0 -14 -7.5 -24t-7.5 -24q0 -16 9 -24.5t24 -8.5q17 0 33.5 11.5t34 42.5t35.5 86t40 142l92 374l-4 8h-58l12 47h58l9 7l34 127q19 71 71 111t127 40q61 0 99.5 -28t38.5 -75q0 -24 -17 -37.5t-35 -13.5 q-19 0 -33 10t-14 33q0 11 3 17t3 21q0 23 -16 30.5t-35 7.5q-32 0 -56 -26t-35 -70l-40 -147l5 -7h133l115 21l-108 -401q-3 -9 -3 -18q0 -13 7.5 -19t19.5 -6q10 0 19 3t19.5 11.5t23 24.5t29.5 42l16 -12q-17 -30 -31.5 -51.5t-30.5 -36.5t-34.5 -22t-42.5 -7 q-41 0 -63 21.5t-22 57.5q0 15 5 35l84 310h-148l-9 -6l-85 -315q-35 -130 -66.5 -205.5t-62 -114t-62.5 -49t-66 -10.5q-49 0 -79 27.5t-30 80.5z" />
<glyph unicode="&#xfb02;" horiz-adv-x="638" d="M-181 -180q0 30 15.5 43t35.5 13q22 0 36.5 -11.5t14.5 -35.5q0 -14 -6.5 -23t-6.5 -20t8 -19t23 -8q17 0 33.5 10t34 39t35.5 82t40 140l92 374l-4 8h-58l12 47h58l9 7l34 127q19 71 81 111t152 40q80 0 119 -19t39 -42q0 -3 -1 -6l-156 -598q-3 -9 -3 -18 q0 -13 7.5 -19t18.5 -6q10 0 19.5 3t19.5 11.5t23 24.5t29 42l17 -12q-17 -29 -31.5 -50.5t-30.5 -36.5t-34.5 -22.5t-42.5 -7.5q-42 0 -63.5 21.5t-21.5 57.5q0 15 5 35l82 310h-174l-9 -6l-85 -315q-35 -130 -66.5 -205.5t-62 -114t-62.5 -49t-66 -10.5q-49 0 -79 27.5 t-30 80.5zM286 466l5 -7h174l48 179q3 10 3 20q0 24 -17 37.5t-52 13.5q-42 0 -74.5 -20t-43.5 -64z" />
<glyph unicode="&#xfb03;" horiz-adv-x="907" d="M-181 -187q0 30 15.5 43t35.5 13q24 0 37.5 -12t13.5 -35q0 -14 -6.5 -23t-6.5 -20q0 -27 31 -27q17 0 33.5 11t34 41t35.5 84.5t40 141.5l92 374l-4 8h-58l12 47h58l9 7l23 87q19 71 63.5 111.5t115.5 40.5q48 0 79 -24t31 -71q0 -24 -14.5 -37t-32.5 -13 q-19 0 -32.5 11t-13.5 33q0 11 2.5 18.5t2.5 19.5q0 14 -9 20.5t-23 6.5q-15 0 -26 -7t-18.5 -19t-12.5 -30t-12 -40l-28 -107l5 -7h201l9 7l34 127q19 71 71 111t124 40q28 0 53 -7t44.5 -21t31 -32.5t11.5 -42.5t-16.5 -37.5t-35.5 -13.5t-33 10t-14 35q0 11 3 17.5 t3 21.5q0 17 -13.5 26t-37.5 9q-38 0 -59 -26t-32 -70l-40 -147l5 -7h133l115 21l-108 -401q-3 -11 -3 -18q0 -13 8 -19t19 -6q10 0 19.5 3t19.5 11.5t23 24.5t29 42l16 -12q-17 -30 -31.5 -51.5t-30 -36.5t-34 -22t-43.5 -7q-41 0 -63 21.5t-22 57.5q0 15 5 35l84 310h-148 l-8 -6l-65 -237q-35 -130 -66 -204.5t-60.5 -111t-57.5 -46t-56 -9.5q-45 0 -73 28.5t-28 75.5q0 22 12.5 36.5t31.5 14.5q20 0 33.5 -11.5t13.5 -31.5q0 -16 -7 -25.5t-7 -24.5q0 -16 9 -23.5t23 -7.5q19 0 33.5 10.5t28.5 41.5t29.5 85t37.5 142l71 296l-4 8h-200l-9 -6 l-85 -315q-35 -130 -66.5 -205.5t-62 -114t-62.5 -49t-66 -10.5q-49 0 -79 23.5t-30 77.5z" />
<glyph unicode="&#xfb04;" horiz-adv-x="964" d="M-181 -187q0 30 15.5 43t35.5 13q24 0 37.5 -12t13.5 -35q0 -14 -6.5 -23t-6.5 -20q0 -27 31 -27q17 0 33.5 11t34 41t35.5 84.5t40 141.5l92 374l-4 8h-58l12 47h58l9 7l23 87q19 71 63.5 111.5t115.5 40.5q48 0 79 -24t31 -71q0 -24 -14.5 -37t-32.5 -13 q-19 0 -32.5 11t-13.5 33q0 11 2.5 18.5t2.5 19.5q0 14 -9 20.5t-23 6.5q-15 0 -26 -7t-18.5 -19t-12.5 -30t-12 -40l-28 -107l5 -7h217l9 7l34 127q19 71 80.5 111t151.5 40q80 0 119.5 -19t39.5 -42q0 -3 -1 -6l-157 -598q-3 -11 -3 -18q0 -13 8 -19t19 -6q10 0 19.5 3 t19.5 11.5t23 24.5t29 42l16 -12q-17 -29 -31.5 -50.5t-30 -36.5t-34 -22.5t-43.5 -7.5q-42 0 -63.5 21.5t-21.5 57.5q0 15 5 35l82 310h-174l-8 -6l-65 -237q-35 -130 -66 -204.5t-60 -111t-57.5 -46t-55.5 -9.5q-45 0 -73.5 28.5t-28.5 75.5q0 22 12.5 36.5t31.5 14.5 q20 0 34 -11.5t14 -31.5q0 -16 -7.5 -25.5t-7.5 -24.5q0 -16 9.5 -23.5t22.5 -7.5q19 0 33.5 10.5t29 41.5t30 85t36.5 142l72 296l-4 8h-217l-9 -6l-85 -315q-35 -130 -66.5 -205.5t-62 -114t-62.5 -49t-66 -10.5q-49 0 -79 23.5t-30 77.5zM611 466l5 -7h175l48 179 q3 10 3 20q0 24 -17 37.5t-52 13.5q-42 0 -74.5 -20t-44.5 -64z" />
<glyph horiz-adv-x="0" />
<glyph horiz-adv-x="0" />
<glyph unicode="&#xd;" horiz-adv-x="267" />
<glyph unicode=" "  horiz-adv-x="267" />
<glyph unicode="&#x09;" horiz-adv-x="267" />
<glyph unicode="&#xa0;" horiz-adv-x="267" />
<glyph unicode="!" horiz-adv-x="365" d="M41 54q0 27 19.5 47t47.5 20t47 -20t19 -47q0 -28 -19.5 -47t-46.5 -19q-28 0 -47.5 19t-19.5 47zM126 210l88 472q7 27 27 44.5t50 17.5q45 0 45 -42q0 -10 -3 -20l-164 -472h-43z" />
<glyph unicode="&#x22;" horiz-adv-x="409" d="M138 568q0 29 1.5 54t6.5 43q8 29 27.5 48t46.5 19q41 0 41 -42q0 -22 -12 -52t-28.5 -61t-34 -60.5t-27.5 -47.5h-19q-1 27 -1.5 51.5t-0.5 47.5zM295 568q0 29 1.5 54t6.5 43q8 29 27 48t47 19q41 0 41 -42q0 -22 -12.5 -52t-29 -61t-33.5 -60.5t-28 -47.5h-18 q-1 27 -1.5 51.5t-0.5 47.5z" />
<glyph unicode="#" horiz-adv-x="563" d="M1 249v51h141l33 132h-144v51h157l63 249h51l-62 -249h131l62 249h51l-62 -249h140v-51h-153l-33 -132h155v-51h-169l-62 -249h-51l62 249h-131l-62 -249h-51l62 249h-128zM194 300h131l32 132h-131z" />
<glyph unicode="$" horiz-adv-x="563" d="M-43 146q0 35 20.5 53t47.5 18q20 0 33 -11.5t13 -36.5q0 -9 -1.5 -18t-1.5 -20q0 -43 28.5 -62t78.5 -22l86 299q-29 14 -57.5 30t-51 35.5t-36.5 44t-14 57.5q0 52 22.5 93.5t60.5 71t87.5 46t102.5 19.5l31 107h51l-31 -107q43 -2 79 -12.5t62 -34.5q17 -15 24 -29.5 t7 -28.5q0 -29 -18.5 -44t-39.5 -15q-19 0 -32 13t-18 43q-5 35 -25 45.5t-53 12.5l-79 -274q30 -15 60 -31t54.5 -36t40 -44.5t15.5 -56.5q0 -63 -25 -111.5t-66 -80.5t-94 -49.5t-109 -20.5l-30 -107h-51l31 107q-33 3 -68.5 12.5t-65 28.5t-49 47.5t-19.5 68.5zM213 541 q0 -33 21.5 -56t54.5 -43l70 248q-28 -5 -53.5 -17.5t-46.5 -31.5t-33.5 -44t-12.5 -56zM226 48q35 4 65 18.5t51.5 36.5t33 51.5t11.5 64.5t-23.5 59t-58.5 45z" />
<glyph unicode="%" horiz-adv-x="649" d="M82 560q0 35 14 66.5t38 56.5t55 39.5t65 14.5q50 0 73.5 -30t23.5 -76q0 -35 -14 -67t-38 -56.5t-55 -38.5t-65 -14q-46 0 -71.5 27t-25.5 78zM121 24l411 708l41 -23l-411 -709zM139 546q0 -28 11.5 -45t35.5 -17q28 0 48 17t34 41.5t20.5 52t6.5 49.5q0 63 -48 64 q-28 0 -48 -17.5t-33 -42.5t-20 -53t-7 -49zM339 100q0 35 14 67t38 56.5t55 39.5t65 15q50 0 73.5 -30.5t23.5 -76.5q0 -35 -14 -66.5t-38 -56t-55 -39t-65 -14.5q-46 0 -71.5 27t-25.5 78zM396 86q0 -28 11.5 -44.5t35.5 -16.5q28 0 48 16.5t34 41.5t20.5 52t6.5 49 q0 63 -48 64q-28 0 -48 -17.5t-33 -42.5t-20 -52.5t-7 -49.5z" />
<glyph unicode="&#x26;" horiz-adv-x="698" d="M41 217q0 46 15 85.5t40 71.5t59 55.5t73 38.5q-10 10 -18 25q-7 12 -13 29.5t-6 38.5q0 32 12 64t37 58.5t64 42.5t92 16q57 0 103 -16t78 -54q11 -14 15 -25t4 -22q0 -20 -13 -32.5t-30 -12.5t-30 10.5t-22 35.5q-8 22 -17 37t-21 24t-28 13.5t-39 4.5q-36 0 -63 -14 t-45 -35.5t-27 -47.5t-9 -52q0 -20 6 -37.5t25 -34.5q23 6 47 10.5t41 4.5q53 0 53 -44q0 -47 -56 -47q-17 0 -35 4.5t-32 10.5q-16 7 -32 16q-28 -17 -47.5 -40.5t-32.5 -51.5t-19 -57.5t-6 -58.5q0 -39 12 -72t36.5 -57t61 -38t85.5 -14q41 0 80 12t68.5 33t47 50.5 t17.5 65.5q0 39 -21 64t-68 25q-44 0 -78 -23.5t-60 -63.5q-3 -4 -7 -12l-17 11q18 44 43 76.5t55 55t64 36.5t71 22q31 7 51.5 15.5t35 21t26.5 30t27 44.5l17 -9q-9 -28 -19.5 -50.5t-26 -40t-38 -29.5t-57.5 -22q-32 -8 -58.5 -14t-52.5 -19q13 4 30 4q58 0 92 -33.5 t34 -79.5q0 -35 -17 -76t-54.5 -75.5t-96.5 -57.5t-141 -23q-54 0 -102.5 15.5t-84.5 45.5t-57 72.5t-21 95.5z" />
<glyph unicode="'" horiz-adv-x="252" d="M138 568q0 29 1.5 54t6.5 43q8 29 27.5 48t46.5 19q41 0 41 -42q0 -22 -12 -52t-28.5 -61t-34 -60.5t-27.5 -47.5h-19q-1 27 -1.5 51.5t-0.5 47.5z" />
<glyph unicode="(" horiz-adv-x="367" d="M41 138q-1 69 21 151q40 151 125.5 265.5t231.5 193.5l15 -16q-59 -47 -103 -93t-77 -98t-57.5 -113t-44.5 -139q-16 -58 -23.5 -108.5t-7.5 -94.5q0 -74 19.5 -131t55.5 -110l-15 -14q-68 60 -104 135.5t-36 171.5z" />
<glyph unicode=")" horiz-adv-x="367" d="M-46 -154q55 46 98.5 92t78 98t61 113.5t48.5 139.5q32 117 31 204q0 71 -20 127.5t-57 111.5l15 14q69 -60 104 -134t35 -168q1 -72 -22 -155q-41 -152 -131.5 -268t-229.5 -190z" />
<glyph unicode="*" horiz-adv-x="438" d="M128 460l100 95l-100 94l6 10l117 -54l20 127h12l20 -128l119 55l6 -10l-101 -94l101 -95l-6 -8l-119 55l-20 -129h-12l-20 128l-117 -54z" />
<glyph unicode="+" horiz-adv-x="522" d="M29 280v51h197v197h52v-197h198v-51h-198v-198h-52v198h-197z" />
<glyph unicode="," horiz-adv-x="249" d="M-41 -137q115 47 115 96q0 13 -6 19.5t-20 12.5q-24 11 -36 25t-12 38q0 27 19.5 47t47.5 20q31 0 49.5 -20t18.5 -62q0 -30 -7.5 -57t-27 -51.5t-51.5 -45.5t-81 -39z" />
<glyph unicode="-" horiz-adv-x="474" d="M51 298l14 51h356l-13 -51h-357z" />
<glyph unicode="." horiz-adv-x="249" d="M2 54q0 27 19.5 47t47.5 20q27 0 46.5 -20t19.5 -47q0 -28 -20 -47t-46 -19q-28 0 -47.5 19t-19.5 47z" />
<glyph unicode="/" horiz-adv-x="452" d="M-84 0l562 732h87l-563 -732h-86z" />
<glyph unicode="0" horiz-adv-x="593" d="M11 233q0 51 13 108.5t37.5 114.5t60 109t80 92t97.5 63.5t112 23.5q43 0 77.5 -18.5t58 -53t36.5 -81t13 -102.5q0 -51 -13 -107.5t-37 -112.5t-58.5 -107t-79 -89.5t-98.5 -61.5t-115 -23q-45 0 -79.5 17.5t-57.5 49.5t-35 77.5t-12 100.5zM106 207q0 -35 6 -65.5 t18.5 -53t32 -36t47.5 -13.5q38 0 75 21.5t69 58.5t59 84.5t46.5 100.5t30.5 107.5t11 103.5q0 36 -6.5 68t-19 57t-32.5 39t-48 14q-38 0 -73.5 -22t-68 -59t-59 -86t-46.5 -103t-31 -110t-11 -106z" />
<glyph unicode="1" horiz-adv-x="593" d="M70 0v7l74 51l155 540q8 28 8 41q0 20 -26 20q-24 0 -79 -12v13l248 102l-202 -704l55 -51v-7h-233z" />
<glyph unicode="2" horiz-adv-x="593" d="M-8 0l5 15q33 27 76.5 64.5t89.5 83t91 97t80.5 106t57.5 109t22 108.5q0 57 -28.5 82t-73.5 25q-29 0 -55.5 -13t-50 -34.5t-44 -48.5t-35.5 -52l-28 16q18 38 43 72t56 59.5t69.5 40t84.5 14.5q78 0 125 -37.5t47 -115.5q0 -57 -29.5 -123t-78.5 -131.5t-113.5 -127 t-134.5 -110.5h197l134 116h7l-87 -215h-427z" />
<glyph unicode="3" horiz-adv-x="593" d="M40 87q0 22 13 34t33 12q13 0 25 -7t18 -25q12 -33 34 -47.5t61 -14.5q74 0 113 54.5t39 151.5q0 56 -35 94t-113 43v27q40 1 75 12.5t61 34.5t41.5 56.5t15.5 77.5q0 52 -24 76.5t-63 24.5q-48 0 -87 -30.5t-72 -79.5l-24 19q15 27 37.5 52.5t51 46t63.5 33t74 12.5 q67 0 103.5 -36.5t36.5 -101.5q0 -33 -13.5 -65t-36 -59t-52.5 -47t-64 -29q28 -6 52 -20.5t41.5 -35t27 -46t9.5 -54.5q0 -72 -24 -121t-65 -82q-35 -29 -80 -44t-102 -15q-20 0 -49 5t-56 16t-46 30.5t-19 47.5z" />
<glyph unicode="4" horiz-adv-x="593" d="M14 229v13l527 520h12l-138 -481h104l-14 -52h-105l-49 -171l56 -51v-7h-239v7l76 51l49 171h-279zM117 281h190l76 262z" />
<glyph unicode="5" horiz-adv-x="593" d="M22 90q0 22 14 35t35 13q30 0 42 -33q12 -37 32.5 -51.5t64.5 -14.5q48 0 85 28t61.5 71.5t37.5 96t13 100.5q0 54 -17 82.5t-64 28.5q-22 0 -47 -10.5t-49 -28.5t-46 -40t-39 -44h-43l128 409h336l-27 -86h-269l-73 -224q16 14 33.5 28.5t38.5 25t46.5 17.5t58.5 7 q63 0 103 -44.5t40 -125.5q0 -74 -25.5 -136.5t-69 -108t-101 -71.5t-120.5 -26q-20 0 -50.5 5t-59.5 17t-49 31t-20 49z" />
<glyph unicode="6" horiz-adv-x="593" d="M62 156q0 66 22 129t60.5 122t90.5 111.5t111.5 97t122 79t125.5 57.5l5 -32q-74 -32 -143 -81q-30 -20 -62 -46.5t-62.5 -58.5t-59 -70t-51.5 -82q33 31 77 46t86 15q68 0 104.5 -43t36.5 -109q0 -58 -22.5 -113t-62.5 -97.5t-94.5 -67.5t-119.5 -25q-29 0 -58 9.5 t-52.5 29.5t-38.5 52t-15 77zM158 142q0 -49 20 -76t63 -27q44 0 77.5 23.5t56 60t34.5 80t12 83.5q0 49 -18.5 76.5t-61.5 27.5q-44 0 -78.5 -24t-57.5 -61t-35 -80.5t-12 -82.5z" />
<glyph unicode="7" horiz-adv-x="593" d="M77 0q10 9 19 20t18 21q9 11 16 22l372 570h-264l-133 -114h-7l83 213h450l-478 -732h-76z" />
<glyph unicode="8" horiz-adv-x="593" d="M37 131q0 47 18 86.5t48 70t68.5 54t79.5 37.5q-28 26 -48 67t-20 83q0 53 21 94t56.5 68t80 40t92.5 13q29 0 56 -7.5t47 -24t32.5 -42t12.5 -61.5q0 -31 -13.5 -61.5t-35.5 -56.5t-51 -46t-61 -31q19 -14 37.5 -31.5t32.5 -38.5t22.5 -46.5t8.5 -54.5 q0 -63 -26.5 -111.5t-69.5 -80.5t-96.5 -47.5t-106.5 -15.5q-39 0 -72.5 9t-58.5 27t-39.5 44.5t-14.5 62.5zM143 138q0 -20 5.5 -38t16.5 -31.5t28.5 -21.5t43.5 -8q35 0 65.5 12t52.5 33t34.5 50t12.5 62q0 23 -10 43.5t-26 39.5t-36.5 36.5t-39.5 32.5 q-63 -35 -105 -87.5t-42 -122.5zM286 567q0 -19 8 -37t22 -34.5t31.5 -31t36.5 -27.5q49 25 81 72t32 99q0 43 -21.5 64t-57.5 21q-30 0 -54.5 -9.5t-42 -27t-26.5 -40.5t-9 -49z" />
<glyph unicode="9" horiz-adv-x="593" d="M42 12q73 32 142 81q30 20 62 46.5t63 58.5t59 70t52 82q-39 -33 -80 -47t-83 -14q-31 0 -57 10.5t-45 30.5t-29 48t-10 60q0 58 22.5 113.5t62.5 98.5t94.5 68.5t119.5 25.5q32 0 62 -8t52.5 -27t36.5 -50t14 -77q0 -71 -22.5 -136.5t-61 -125t-90.5 -111.5t-111 -95 t-122.5 -77t-125.5 -56zM220 443q0 -46 18.5 -73.5t61.5 -27.5q44 0 78.5 24.5t58 62t35 82t11.5 83.5q0 46 -18.5 72.5t-64.5 26.5q-44 0 -77.5 -24t-56 -61t-34.5 -81t-12 -84z" />
<glyph unicode=":" horiz-adv-x="249" d="M2 54q0 27 19.5 47t47.5 20q27 0 46.5 -20t19.5 -47q0 -28 -20 -47t-46 -19q-28 0 -47.5 19t-19.5 47zM102 402q0 27 19.5 47t47.5 20q27 0 47 -20t20 -47q0 -28 -20 -47t-47 -19q-28 0 -47.5 19t-19.5 47z" />
<glyph unicode=";" horiz-adv-x="247" d="M-41 -137q115 47 115 96q0 13 -6 19.5t-20 12.5q-24 11 -36 25t-12 38q0 27 19.5 47t47.5 20q31 0 49.5 -20t18.5 -62q0 -30 -7.5 -57t-27 -51.5t-51.5 -45.5t-81 -39zM100 402q0 27 19.5 47t47.5 20q27 0 46.5 -20t19.5 -47q0 -28 -19.5 -47t-46.5 -19q-28 0 -47.5 19 t-19.5 47z" />
<glyph unicode="&#x3c;" horiz-adv-x="522" d="M2 251v18l443 251v-65l-347 -195l347 -194v-66z" />
<glyph unicode="=" horiz-adv-x="522" d="M42 216v51h438v-51h-438zM42 408v51h438v-51h-438z" />
<glyph unicode="&#x3e;" horiz-adv-x="522" d="M55 0v66l347 194l-347 195v65l444 -251v-18z" />
<glyph unicode="?" horiz-adv-x="503" d="M94 54q0 27 19.5 47t47.5 20t47 -20t19 -47q0 -28 -19.5 -47t-46.5 -19q-28 0 -47.5 19t-19.5 47zM100 577q0 35 16.5 65.5t44 53.5t65 35.5t79.5 12.5q90 0 142 -38t52 -102q0 -47 -24.5 -77t-61.5 -52t-80.5 -38.5t-80.5 -34.5t-61.5 -41t-24.5 -58q0 -20 17.5 -34 t55.5 -14q20 0 36.5 4t28.5 9q14 5 27 14v-53q-6 -5 -18 -8t-25.5 -5t-27.5 -3t-24 -1q-56 0 -89 24t-33 66q0 39 21 65t52.5 46t68.5 38t68.5 40t52.5 50.5t21 71.5q0 39 -27 60.5t-72 21.5q-53 0 -87.5 -28t-34.5 -81q0 -5 0.5 -11.5t1.5 -12.5l-74 -22q-5 20 -5 37z" />
<glyph unicode="@" horiz-adv-x="943" d="M102 251q0 80 31 150.5t83.5 123.5t124 83.5t152.5 30.5q77 0 140.5 -23t110 -65t72 -102.5t25.5 -134.5q0 -55 -12.5 -99t-35 -74.5t-52.5 -47t-66 -16.5q-43 0 -66.5 25t-23.5 64q-28 -44 -64 -66.5t-89 -22.5q-66 0 -100 40t-34 103q0 41 16.5 80.5t44 70.5t65.5 50.5 t81 19.5q73 0 90 -56l8 39h69l-43 -223q-1 -5 -1.5 -10t-0.5 -10q0 -26 12.5 -38.5t32.5 -12.5q49 0 70 48.5t21 135.5q0 68 -20.5 119t-57 85.5t-85.5 51.5t-107 17q-56 0 -109.5 -22.5t-95 -65.5t-66.5 -105.5t-25 -142.5q0 -83 25 -144.5t66.5 -102t94.5 -60t110 -19.5 q37 0 75 4.5t77.5 19t79 39.5t77.5 67l15 -14q-29 -43 -66 -75t-79 -52t-87.5 -30.5t-91.5 -10.5q-81 0 -152.5 28.5t-124 79.5t-83.5 120t-31 150zM379 215q0 -37 14.5 -61t53.5 -24q36 0 62 15t42.5 40t24.5 57t8 67q0 36 -18 58t-55 22q-33 0 -57.5 -16t-41.5 -41 t-25 -56t-8 -61z" />
<glyph unicode="A" horiz-adv-x="670" d="M-97 0v7l84 51l468 698h18l87 -698l54 -51v-7h-239v7l76 51l-23 179h-267l-119 -179l55 -51v-7h-194zM196 288h226l-34 261l3 42l-13 -27z" />
<glyph unicode="B" horiz-adv-x="677" d="M-24 0v7l75 51l177 616l-55 51v7h273q37 0 75 -6.5t68.5 -22.5t49 -43t18.5 -67q0 -39 -13 -72t-37.5 -58t-58.5 -43t-75 -27q24 -5 47 -18t41.5 -31t29.5 -43.5t11 -54.5q0 -66 -25.5 -112.5t-67 -76t-96 -43.5t-110.5 -14h-327zM159 58l5 -7h106q100 0 159 54.5 t59 153.5q0 59 -38.5 86.5t-112.5 27.5h-81l-9 -8zM265 427l5 -7h91q87 0 138 44t51 124q0 27 -10.5 44.5t-28.5 28.5t-43 15.5t-52 4.5h-71l-9 -7z" />
<glyph unicode="C" horiz-adv-x="702" d="M51 255q0 60 17 119.5t47.5 114t74 101.5t97.5 81.5t116.5 53.5t131.5 19q42 0 96 -10.5t97 -34.5l-48 -165h-16q0 30 -6.5 58.5t-23 51t-45 36t-73.5 13.5q-50 0 -95 -20t-83 -54t-68.5 -78.5t-52 -94.5t-33 -101t-11.5 -97q0 -44 10.5 -82t32.5 -66t55.5 -44.5 t81.5 -16.5q43 0 78.5 9t68 29.5t66 53t70.5 79.5l23 -20q-36 -53 -72 -91.5t-76 -63t-84.5 -36t-96.5 -11.5q-134 0 -206.5 71.5t-72.5 195.5z" />
<glyph unicode="D" horiz-adv-x="755" d="M-24 0v7l75 51l177 616l-55 51v7h296q67 0 117 -19t83 -52.5t49.5 -79.5t16.5 -101q0 -97 -35 -184t-97.5 -153t-148 -104.5t-186.5 -38.5h-292zM159 58l5 -7h103q86 0 153 40t114 104.5t71.5 146t24.5 165.5q0 39 -9 70.5t-29.5 54.5t-53.5 36t-82 13h-111l-9 -7z" />
<glyph unicode="E" horiz-adv-x="663" d="M-24 0v7l75 51l177 616l-55 51v7h496l-27 -150h-7l-41 99h-249l-9 -7l-72 -250l5 -7h221l52 59h6l-48 -169h-6l-19 59h-221l-9 -8l-86 -300l5 -7h258l132 114h7l-73 -165h-512z" />
<glyph unicode="F" horiz-adv-x="650" d="M-24 0v7l75 51l177 616l-55 51v7h485l-24 -150h-7l-43 99h-238l-10 -7l-74 -256l6 -7h197l52 59h6l-49 -169h-6l-17 58h-197l-10 -7l-85 -294l55 -51v-7h-238z" />
<glyph unicode="G" horiz-adv-x="752" d="M51 247q0 62 18 123.5t50.5 117t78 102.5t100.5 81.5t118 53.5t131 19q25 0 52.5 -3t55 -8.5t53 -14.5t45.5 -22l-47 -162h-15q-1 28 -8.5 55.5t-26 51t-50 38t-79.5 14.5q-55 0 -102.5 -19.5t-87 -52.5t-69.5 -77.5t-51 -94.5t-32 -102.5t-11 -102.5q0 -48 11 -86 t35 -64.5t63 -40.5t95 -14q13 0 27.5 1.5t26.5 5.5t22 12t14 21l55 193l-5 8h-82l16 51h258l-2 -7l-77 -52l-44 -155q-3 -12 -3 -21q0 -14 5 -21q2 -4 5 -6q-55 -49 -118 -65t-131 -16q-140 0 -217 66.5t-77 192.5z" />
<glyph unicode="H" horiz-adv-x="785" d="M-26 0v7l75 51l177 616l-55 51v7h239v-7l-76 -51l-68 -234l5 -7h321l9 7l68 234l-56 51v7h239v-7l-76 -51l-177 -616l55 -51v-7h-238v7l76 51l91 317l-5 7h-321l-9 -7l-91 -317l55 -51v-7h-238z" />
<glyph unicode="I" horiz-adv-x="343" d="M-26 0v7l75 51l177 616l-55 51v7h239v-7l-76 -51l-177 -616l55 -51v-7h-238z" />
<glyph unicode="J" horiz-adv-x="343" d="M-197 -300l10 32q90 30 138 89.5t75 152.5l200 700l-55 51v7h239v-7l-76 -51l-194 -674q-14 -50 -39 -96.5t-65.5 -86.5t-97.5 -70.5t-135 -46.5z" />
<glyph unicode="K" horiz-adv-x="693" d="M-26 0v7l75 51l177 616l-55 51v7h239v-7l-76 -51l-75 -259l343 279l-25 31v7h183v-7l-115 -57l-272 -222l77 18l143 -508l-69 44l-65 58l-135 348l-85 -68l-82 -280l55 -51v-7h-238z" />
<glyph unicode="L" horiz-adv-x="560" d="M-26 0v7l75 51l177 616l-55 51v7h239v-7l-76 -51l-177 -616l5 -7h250l132 114h7l-73 -165h-504z" />
<glyph unicode="M" horiz-adv-x="929" d="M-26 0v7l75 51l177 616l-55 51v7h185l62 -539l-5 -65l26 49l384 555h173v-7l-74 -51l-178 -616l55 -51v-7h-238v7l76 51l163 567l-25 -48l-400 -577h-54l-66 568l8 57l-163 -567l55 -51v-7h-181z" />
<glyph unicode="N" horiz-adv-x="791" d="M-26 0v7l75 51l177 616l-53 51v7h152l270 -489l-2 -48l138 479l-55 51v7h182v-7l-76 -51l-193 -674h-8l-317 589l2 47l-166 -578l55 -51v-7h-181z" />
<glyph unicode="O" horiz-adv-x="803" d="M51 255q0 57 17 116t47.5 113.5t73.5 102t95.5 82t113.5 55t126 20.5q61 0 109.5 -20.5t82 -56t50.5 -84.5t17 -106q0 -87 -35 -174t-98.5 -157t-150.5 -114t-191 -44q-60 0 -107.5 20.5t-80.5 56t-51 84.5t-18 106zM165 237q0 -41 9 -77t28 -63t49 -42.5t72 -15.5 q55 0 102 20.5t86 56t68.5 81.5t50 97t31 104t10.5 101q0 90 -39 142t-122 52q-53 0 -99.5 -20.5t-85 -55t-68.5 -81t-50.5 -97t-31 -103t-10.5 -99.5z" />
<glyph unicode="P" horiz-adv-x="671" d="M-26 0v7l75 51l177 616l-55 51v7h272q46 0 87.5 -10t72.5 -31.5t49 -55.5t18 -80q0 -68 -28 -117.5t-75.5 -81.5t-110 -48t-130.5 -16h-94l-10 -7l-65 -227l55 -51v-7h-238zM241 351l6 -8h74q50 0 94.5 11.5t77.5 37.5t52.5 68.5t19.5 105.5t-40 89t-107 26h-74l-10 -7z " />
<glyph unicode="Q" horiz-adv-x="815" d="M51 255q0 57 17 116t47.5 113.5t73.5 102t95.5 82t113.5 55t126 20.5q61 0 109.5 -20.5t82 -56t50.5 -84.5t17 -106q0 -86 -35 -173t-97.5 -157t-148.5 -114t-189 -45h-10q-5 0 -8 -0.5t-5 -0.5q-3 -1 -4 -1l-89 -78q30 11 56.5 14t47.5 3q47 0 76.5 -7t51 -16.5 t41.5 -16.5t50 -7q13 0 33.5 3.5t44.5 13.5t49.5 28t50.5 46q-12 -49 -32.5 -80.5t-47 -50.5t-58.5 -26.5t-66 -7.5q-35 0 -66.5 9t-62.5 18.5t-63.5 18.5t-68.5 9q-31 0 -67.5 -7t-67.5 -21l-10 8l86 94q22 25 22 47q0 26 -35 49q-53 36 -81.5 94t-28.5 132zM165 237 q0 -41 9 -77t28 -63t49 -42.5t72 -15.5q55 0 102 20.5t86 56t68.5 81.5t50 97t31 104t10.5 101q0 90 -39 142t-122 52q-53 0 -99.5 -20.5t-85 -55t-68.5 -81t-50.5 -97t-31 -103t-10.5 -99.5z" />
<glyph unicode="R" horiz-adv-x="702" d="M-26 0v7l75 51l177 616l-55 51v7h311q35 0 73.5 -6.5t70.5 -24t53 -47t21 -74.5q0 -55 -23.5 -99t-61.5 -76t-87 -53t-99 -29l47 -12l124 -355l-90 44l-64 58l-104 259h-103l-10 -7l-72 -252l55 -51v-7h-238zM248 376l5 -7h99q52 0 96 13.5t75.5 40.5t49.5 64.5t18 86.5 q0 57 -36 82t-92 25h-120l-9 -7z" />
<glyph unicode="S" horiz-adv-x="615" d="M4 95l52 188h29q-1 -8 -1 -16.5v-16.5q0 -45 8 -84t26.5 -67t49.5 -44t77 -16q43 0 77.5 14t59.5 38t38 56.5t13 71.5q0 33 -21 56t-52.5 42.5t-68.5 37.5t-69 39.5t-53 49.5t-21 69q0 56 26 99t68 72.5t95.5 44.5t111.5 15q47 0 92.5 -11.5t84.5 -35.5l-45 -159h-21 q5 26 5 44q0 54 -32.5 82.5t-94.5 28.5q-31 0 -63 -10t-57.5 -30t-42 -48t-16.5 -64q0 -32 21.5 -55t54 -42.5t69.5 -37t69.5 -39t54 -49.5t21.5 -67q0 -67 -27 -116.5t-71.5 -82.5t-101.5 -48.5t-116 -15.5q-33 0 -66.5 7t-64 21t-56.5 34t-42 45z" />
<glyph unicode="T" horiz-adv-x="672" d="M67 567l64 165h624l-24 -165h-7l-44 114h-191l-9 -7l-177 -616l55 -51v-7h-238v7l76 51l177 616l-5 7h-191l-103 -114h-7z" />
<glyph unicode="U" horiz-adv-x="781" d="M92 178q0 40 14 92l116 404l-54 51v7h239v-7l-77 -51l-116 -404q-15 -51 -15 -99q0 -30 7.5 -54t24.5 -41.5t45 -27t69 -9.5q60 0 101.5 13t71 40t49 69.5t36.5 102.5l117 410l-54 51v7h182v-7l-77 -51l-128 -448q-15 -54 -37 -98t-57.5 -75t-88 -48t-130.5 -17 q-112 0 -175 47t-63 143z" />
<glyph unicode="V" horiz-adv-x="676" d="M101 725v7h243v-7l-76 -51l45 -484l-3 -53l22 40l324 497l-55 51v7h189v-7l-76 -51l-446 -674h-46l-65 674z" />
<glyph unicode="W" horiz-adv-x="1039" d="M101 725v7h242v-7l-72 -51l42 -467l-5 -81l34 68l197 345l-14 135l-55 51v7h251v-7l-84 -51l44 -491l-3 -57l16 32l308 516l-55 51v7h200v-7l-84 -51l-415 -674h-60l-42 456l-271 -456h-57l-61 674z" />
<glyph unicode="X" horiz-adv-x="718" d="M-36 0v7l76 51l287 312l-154 304l-55 51v7h219v-7l-50 -35l117 -234l202 219l-55 50v7h210v-7l-76 -51l-251 -277l171 -339l55 -51v-7h-251v7l75 51l-128 253l-229 -253l55 -51v-7h-218z" />
<glyph unicode="Y" horiz-adv-x="636" d="M97 725l2 7h262l-2 -7l-75 -51l83 -232l-3 -61l29 58l208 235l-55 51l2 7h202l-2 -7l-76 -51l-275 -302l-90 -314l55 -51v-7h-238v7l76 51l76 267l-123 349z" />
<glyph unicode="Z" horiz-adv-x="620" d="M-36 0l540 681h-296l-92 -99h-7l57 150h511l-542 -681h309l109 116h7l-62 -167h-534z" />
<glyph unicode="[" horiz-adv-x="408" d="M-15 -161l256 893h214l-15 -49h-112l-10 -7l-223 -780l4 -8h112l-14 -49h-212z" />
<glyph unicode="\" horiz-adv-x="317" d="M-26 732h87l282 -732h-87z" />
<glyph unicode="]" horiz-adv-x="408" d="M-71 -161l15 49h110l9 8l225 780l-5 7h-113l14 49h214l-257 -893h-212z" />
<glyph unicode="^" horiz-adv-x="458" d="M0 367l220 365h19l220 -365h-86l-144 237l-143 -237h-86z" />
<glyph unicode="_" horiz-adv-x="522" d="M-15 -51l13 51h524l-13 -51h-524z" />
<glyph unicode="`" horiz-adv-x="337" d="M88 664q0 15 12 26t29 11q15 0 26.5 -5t27.5 -21l131 -138h-23l-161 73q-42 20 -42 54z" />
<glyph unicode="a" horiz-adv-x="537" d="M8 124q0 34 11 73t31 77.5t46.5 74t58.5 62.5t67.5 43.5t72.5 16.5q39 0 57.5 -25t18.5 -61l21 78l93 5l-103 -389q-2 -5 -2 -8.5v-8.5q0 -14 7 -21t19 -7q19 0 38.5 16t52.5 67l16 -12q-17 -30 -31.5 -51.5t-30.5 -36.5t-34.5 -22t-42.5 -7q-39 0 -60 23.5t-21 59.5 q0 12 3 27q-24 -53 -66.5 -81.5t-89.5 -28.5q-35 0 -60 10t-40.5 28.5t-23.5 43.5t-8 54zM98 104q0 -30 16 -49.5t45 -19.5q31 0 57 16t47.5 42t38 58.5t28 67t17 67t5.5 57.5q0 37 -11.5 59t-47.5 22q-23 0 -46 -16t-44.5 -42t-41 -60t-33 -69t-22 -70t-8.5 -63z" />
<glyph unicode="b" horiz-adv-x="512" d="M23 132q0 25 8 57l135 509l-48 27v7l162 42l-107 -401q12 16 31 34t42 32t48.5 23t50.5 9q75 0 108 -37.5t33 -103.5q0 -45 -15 -101q-13 -50 -38.5 -94t-62 -76.5t-82.5 -51.5t-101 -19q-77 0 -120.5 36.5t-43.5 107.5zM108 111q0 -36 21.5 -56t67.5 -20q48 0 83.5 32 t59.5 79t35 98.5t11 90.5q0 44 -15.5 66.5t-49.5 22.5q-23 0 -49.5 -11t-51 -31t-44.5 -48t-30 -62l-31 -115q-7 -25 -7 -46z" />
<glyph unicode="c" horiz-adv-x="496" d="M19 155q0 57 25 114t67 102t97.5 72.5t119.5 27.5q42 0 76 -13t58 -42q18 -25 18 -48q0 -29 -14.5 -47t-41.5 -18q-19 0 -30.5 12.5t-11.5 41.5q0 16 -2 28.5t-9 21t-20.5 13t-36.5 4.5q-44 0 -79.5 -26.5t-61 -66.5t-38.5 -87.5t-13 -90.5q0 -56 23 -87t74 -31 q54 0 100 25t89 71l12 -30q-39 -51 -95.5 -82t-118.5 -31q-88 0 -137.5 42t-49.5 125z" />
<glyph unicode="d" horiz-adv-x="567" d="M12 155q0 57 20 113.5t58 101.5t91 73t120 28q42 0 70.5 -20t32.5 -47l79 294l-48 27v7l162 42l-186 -695q-2 -5 -2 -8.5v-8.5q0 -14 7 -21t18 -7q19 0 39 16t52 67l17 -12q-17 -30 -31.5 -51.5t-30.5 -36.5t-34.5 -22t-43.5 -7q-32 0 -50 20.5t-23 52.5 q-30 -33 -69.5 -53t-85.5 -20q-42 0 -72.5 13t-50.5 35.5t-29.5 53.5t-9.5 65zM110 126q0 -39 17 -65t59 -26q65 0 101.5 33t50.5 89l36 134q8 33 8 56q0 33 -20 55t-67 22q-29 0 -54 -15t-45.5 -39.5t-36.5 -56t-27 -64.5t-16.5 -65t-5.5 -58z" />
<glyph unicode="e" horiz-adv-x="463" d="M15 174q0 53 21.5 106.5t60.5 95.5t93 68.5t118 26.5q56 0 91.5 -23t35.5 -79q0 -28 -17 -57.5t-54.5 -56.5t-99 -47.5t-149.5 -28.5q-1 -9 -1.5 -18.5t-0.5 -18.5q0 -54 29.5 -80.5t82.5 -26.5q46 0 82.5 22.5t66.5 63.5l19 -21q-38 -63 -90.5 -87.5t-108.5 -24.5 q-42 0 -75.5 13.5t-56.5 38.5t-35 59t-12 75zM120 206q69 10 112.5 29t69.5 41.5t35.5 46.5t9.5 46q0 30 -13 42.5t-39 12.5q-28 0 -55.5 -19t-51 -49.5t-41.5 -69.5t-27 -80z" />
<glyph unicode="f" horiz-adv-x="390" d="M-181 -180q0 30 15.5 43t35.5 13q22 0 36.5 -11.5t14.5 -35.5q0 -16 -6.5 -24.5t-6.5 -24.5q0 -32 31 -32q17 0 33.5 11.5t34 42.5t35.5 86t40 142l92 374l-4 8h-58l12 47h58l9 7l34 127q19 71 68 111t121 40q59 0 86.5 -27.5t27.5 -74.5q0 -24 -16.5 -38t-35.5 -14 t-33 11.5t-14 34.5q0 11 3.5 20t3.5 26q0 14 -8.5 20.5t-23.5 6.5q-32 0 -49.5 -26t-28.5 -70l-40 -147l5 -7h102l-12 -47h-102l-9 -6l-85 -315q-35 -130 -66.5 -205.5t-62 -114t-62.5 -49t-66 -10.5q-49 0 -79 27.5t-30 80.5z" />
<glyph unicode="g" horiz-adv-x="539" d="M-25 -133q0 39 27 77.5t88 67.5q-24 12 -37.5 36.5t-13.5 46.5v11l113 50q-33 17 -51.5 47.5t-18.5 64.5q0 46 21 83.5t54.5 64.5t77.5 41.5t89 14.5q62 0 107 -32l119 42l5 -10l-84 -90q3 -14 3 -32q0 -49 -19 -87.5t-51 -65.5t-75.5 -41t-92.5 -14q-29 0 -51 -6.5 t-38 -14.5q-18 -10 -31 -22q5 -13 30 -20.5t60 -16.5t73.5 -19.5t71.5 -29t54.5 -46.5t21.5 -71q0 -46 -21 -80.5t-56 -57.5t-80.5 -34.5t-95.5 -11.5t-87.5 12t-62 32.5t-37 49t-12.5 61.5zM45 -124q0 -52 34.5 -86.5t109.5 -34.5q34 0 63 8.5t50 23.5t33 36t12 47 q0 31 -16.5 49.5t-46 31.5t-71 24t-90.5 25q-24 -13 -39 -28.5t-24 -32t-12 -33t-3 -30.5zM166 267q0 -37 18.5 -59.5t62.5 -22.5q33 0 59.5 13t46 35t29.5 51t10 63q0 35 -17.5 58t-62.5 23q-31 0 -57.5 -13.5t-46.5 -36t-31 -51.5t-11 -60z" />
<glyph unicode="h" horiz-adv-x="573" d="M-29 0v7l63 33l176 658l-47 27v7l162 42l-114 -423q13 22 34 43.5t47 38.5t55.5 27.5t60.5 10.5q47 0 68 -21.5t21 -60.5q0 -14 -2.5 -30t-8.5 -33l-65 -247q-3 -11 -3 -18q0 -13 7.5 -19t18.5 -6q10 0 19.5 3t20 11.5t23 24.5t29.5 42l16 -12q-17 -30 -31.5 -51.5 t-30.5 -36.5t-34.5 -22t-42.5 -7q-42 0 -63.5 21.5t-21.5 57.5q0 15 5 35l59 224q6 25 6 40q0 26 -12.5 35.5t-34.5 9.5q-20 0 -46 -16t-52 -44t-48 -66.5t-34 -82.5l-43 -162l45 -33v-7h-202z" />
<glyph unicode="i" horiz-adv-x="312" d="M41 67q0 15 5 35l82 302l-48 26v7l162 43l-108 -401q-3 -9 -3 -18q0 -14 7.5 -19.5t19.5 -5.5q10 0 19 3t19.5 11.5t23 24.5t29.5 42l16 -12q-17 -30 -31.5 -51.5t-30.5 -36.5t-34 -22t-43 -7q-42 0 -63.5 21.5t-21.5 57.5zM177 669q0 27 18.5 45t45.5 18t45 -18.5 t18 -44.5q0 -27 -18.5 -45.5t-44.5 -18.5q-27 0 -45.5 18.5t-18.5 45.5z" />
<glyph unicode="j" horiz-adv-x="291" d="M-142 -282q43 31 69 59t42.5 57.5t26.5 62t20 72.5l117 435l-47 26v7l162 43l-129 -480q-18 -69 -40 -114t-51.5 -76.5t-70 -56t-96.5 -53.5zM182 669q0 26 18 44t45 18t44.5 -18t17.5 -44q0 -27 -18 -45.5t-44 -18.5q-27 0 -45 18.5t-18 45.5z" />
<glyph unicode="k" horiz-adv-x="443" d="M-29 0v7l54 33l177 658l-47 27v7l161 42l-106 -394q14 18 34 34.5t42.5 29t45.5 20t44 7.5q32 0 47 -14.5t15 -34.5q0 -25 -12 -46.5t-42 -39.5l-100 -61l27 3l105 -322l-76 44l-36 40l-79 202l-61 -36l-45 -166l46 -33v-7h-194zM174 247l127 75q31 18 44.5 35t13.5 37 q0 29 -27 29q-14 0 -33.5 -8t-39.5 -22.5t-37.5 -34t-28.5 -42.5z" />
<glyph unicode="l" horiz-adv-x="280" d="M16 67q0 15 6 35l158 596l-47 27v7l162 42l-185 -695q-3 -9 -4 -18q0 -13 8 -19t19 -6q10 0 19.5 3t19.5 11.5t23 24.5t29 42l17 -12q-17 -29 -31.5 -50.5t-30.5 -36.5t-34.5 -22.5t-43.5 -7.5q-42 0 -63.5 21.5t-21.5 57.5z" />
<glyph unicode="m" horiz-adv-x="786" d="M-29 0v7l54 33l98 364l-48 27v7l162 42l-40 -154q12 27 32.5 52.5t44.5 46t50 33.5t50 13q43 0 62 -23.5t19 -59.5q0 -23 -9 -52q10 24 28.5 48t41.5 43t50 31.5t57 12.5q46 0 64.5 -19t18.5 -53q0 -15 -4 -34t-9 -39l-66 -247q-3 -9 -3 -18q0 -13 7.5 -19t18.5 -6 q10 0 19.5 3t19.5 11.5t23 24.5t29 42l17 -12q-17 -30 -31.5 -51.5t-30.5 -36.5t-34.5 -22t-43.5 -7q-42 0 -63 21.5t-21 57.5q0 15 5 35l60 224q6 25 6 41q0 25 -12 34.5t-33 9.5q-22 0 -47 -22.5t-50 -75.5q-12 -25 -23.5 -53.5t-24 -65t-26.5 -84.5t-33 -110h-94l88 326 q7 25 7 43q0 24 -11.5 33t-32.5 9q-22 0 -45 -25t-45 -59.5t-39.5 -72.5t-24.5 -66l-40 -148l46 -33v-7h-194z" />
<glyph unicode="n" horiz-adv-x="567" d="M-29 0v7l54 33l98 364l-48 27v7l162 42l-39 -151q15 26 37 51.5t48.5 45.5t56 32.5t56.5 12.5q47 0 67.5 -21.5t20.5 -59.5q0 -14 -2.5 -30.5t-7.5 -33.5l-66 -247q-3 -9 -4 -18q0 -13 8 -19t19 -6q10 0 19.5 3t19.5 11.5t23 24.5t29 42l17 -12q-17 -30 -31.5 -51.5 t-30.5 -36.5t-34.5 -22t-43.5 -7q-42 0 -63.5 21.5t-21.5 57.5q0 15 5 35l61 224q6 25 6 42q0 25 -13.5 34t-38.5 9q-24 0 -49.5 -18.5t-49 -48t-43 -66.5t-29.5 -74l-44 -164l46 -33v-7h-194z" />
<glyph unicode="o" d="M19 168q0 61 28 116t73 96.5t102 66t115 24.5q40 0 74.5 -14t60 -38.5t39.5 -57.5t14 -73q0 -60 -28 -114.5t-73.5 -96t-102.5 -65.5t-114 -24q-42 0 -76.5 13.5t-59 37.5t-38.5 57t-14 72zM122 143q0 -49 22.5 -78.5t75.5 -29.5q50 0 87.5 28.5t63 71t38.5 91t13 88.5 q0 49 -22 79.5t-76 30.5q-49 0 -87 -29t-64 -71.5t-38.5 -91.5t-12.5 -89z" />
<glyph unicode="p" d="M-89 -268l53 32l172 640l-48 27v7l162 42l-38 -138q12 25 31 48t42 41.5t48.5 29t50.5 10.5q77 0 111.5 -43t34.5 -117q0 -58 -20.5 -116t-58 -104t-92 -74.5t-121.5 -28.5q-39 0 -65 18t-37 48l-78 -290l46 -32v-7h-193v7zM155 103q0 -36 21 -52t51 -16q51 0 89.5 30 t64.5 75t38.5 97t12.5 96q0 41 -17 66t-56 25q-28 0 -55.5 -18t-51.5 -45.5t-41.5 -62.5t-27.5 -69q-16 -59 -22 -87t-6 -39z" />
<glyph unicode="q" d="M19 150q0 56 20 113.5t57 103.5t90.5 75t119.5 29q45 0 71 -20t33 -50l17 58h94l-185 -693l45 -33v-8h-195v8l56 33l82 306q-12 -20 -29 -36.5t-37 -27t-41 -15.5t-40 -5q-80 0 -119 43t-39 119zM118 123q0 -38 16 -63t55 -25q26 0 52 13t48.5 34.5t39.5 49.5t25 57 l33 120q6 22 6 39q0 39 -24 57.5t-58 18.5q-49 0 -86 -32t-60.5 -78t-35 -98t-11.5 -93z" />
<glyph unicode="r" horiz-adv-x="444" d="M-29 0v7l54 33l98 364l-48 27v7l162 42l-40 -152q13 23 32 48t42 46t48.5 35t53.5 14q36 0 58 -22.5t22 -58.5q0 -30 -16.5 -44t-36.5 -14q-18 0 -31 9.5t-13 28.5q0 8 0.5 13.5t0.5 10.5q0 17 -7 24t-22 7q-18 0 -43 -20.5t-48 -52t-42.5 -68.5t-28.5 -71l-47 -173 l46 -33v-7h-194z" />
<glyph unicode="s" horiz-adv-x="451" d="M-5 54l32 123h16q4 -75 37 -108.5t86 -33.5q22 0 42.5 5.5t36.5 17.5t26.5 30t10.5 44q0 19 -15 31.5t-37.5 23t-49 20.5t-49 24t-37.5 33.5t-15 49.5q0 41 20 71t51.5 49.5t69 28t73.5 8.5q33 0 68 -8.5t62 -25.5l-31 -114h-10q-1 57 -29.5 79t-69.5 22q-18 0 -38 -4.5 t-35 -15t-25.5 -27.5t-10.5 -40q0 -20 16 -33t39 -24t50.5 -21t50.5 -23t39 -32t16 -46q0 -49 -21 -81.5t-54.5 -52.5t-73.5 -28t-80 -8q-27 0 -52 6t-47 15.5t-38.5 21.5t-23.5 23z" />
<glyph unicode="t" horiz-adv-x="320" d="M31 67q0 15 5 35l80 304l-5 6h-60l5 18q46 16 82 49t62 67q30 39 53 84h18l-44 -164l5 -7h103l-13 -47h-103l-9 -8l-86 -325q-3 -11 -3 -18q0 -13 7.5 -19t18.5 -6q10 0 19.5 3t20 11.5t23 24.5t29.5 42l16 -12q-17 -30 -31.5 -51.5t-30.5 -36.5t-34.5 -22t-42.5 -7 q-42 0 -63.5 21.5t-21.5 57.5z" />
<glyph unicode="u" horiz-adv-x="551" d="M33 72q0 28 9 61l73 271l-48 27v7l161 42l-92 -347q-3 -13 -5 -24t-2 -19q0 -24 12.5 -33t32.5 -9q24 0 49.5 16t48 41.5t40.5 58.5t27 67l60 228l97 5l-104 -385q-2 -5 -2 -8.5v-8.5q0 -14 7 -21t19 -7q19 0 38.5 16t52.5 67l16 -12q-17 -30 -31.5 -51.5t-30.5 -36.5 t-34 -22t-43 -7q-38 0 -59 30t-21 75v16q-33 -52 -83 -86.5t-109 -34.5q-40 0 -59.5 22.5t-19.5 61.5z" />
<glyph unicode="v" horiz-adv-x="404" d="M19 431v7l137 37l38 -325l-3 -35l24 45l100 150q8 13 14.5 26.5t6.5 27.5t-6.5 21.5t-19.5 17.5q-21 15 -21 34q0 17 11 28.5t32 11.5q29 0 46 -31q12 -22 12 -45q0 -25 -8 -47t-26 -49l-199 -305h-42l-47 404z" />
<glyph unicode="w" horiz-adv-x="644" d="M19 431v7l145 37l18 -296l-3 -64l41 81l157 263h47l22 -280l-3 -64l41 81l71 114q9 14 14.5 26.5t5.5 27.5q0 14 -6 21.5t-19 17.5q-22 16 -22 36q0 15 11.5 26.5t31.5 11.5q29 0 46 -31q12 -22 13 -45q0 -42 -34 -97l-186 -304h-52l-25 313l-188 -313h-50l-27 404z" />
<glyph unicode="x" horiz-adv-x="504" d="M-31 38q0 16 10.5 27.5t26.5 11.5q12 0 20 -3.5t14 -8t12 -8t16 -3.5q11 0 22.5 7t29.5 31l68 105l-69 207l-48 27v7l118 32l63 -179l71 106q20 34 48 54t61 20h7.5t9.5 -1q17 -4 32.5 -15.5t15.5 -33.5q0 -20 -10.5 -31t-25.5 -11q-9 0 -16.5 4t-13.5 8.5t-13 8.5t-17 4 q-16 0 -28 -9t-25 -31l-80 -121l66 -189q2 -8 9 -14t17 -6t18.5 2.5t18.5 10.5t21.5 23.5t27.5 41.5l17 -12q-17 -30 -31 -50.5t-28.5 -34.5t-32.5 -20.5t-42 -6.5q-36 0 -58.5 18t-33.5 50l-31 91l-59 -88q-23 -34 -51.5 -52.5t-61.5 -18.5q-27 0 -46 12.5t-19 37.5z" />
<glyph unicode="y" horiz-adv-x="411" d="M-108 -247q0 17 12.5 32t37.5 19q22 4 36 8t24 9t18.5 13.5t17.5 22.5l96 153l-46 394l-48 27v7l135 37l38 -316l4 -23l13 27l93 147q8 13 14 26.5t6 27.5t-6 21.5t-20 17.5q-21 15 -21 35q0 17 11.5 28t31.5 11q29 0 46 -31q12 -22 12 -45q0 -25 -8 -47t-25 -49 l-311 -498q-25 -34 -42.5 -52.5t-32.5 -28.5t-26.5 -12t-23.5 -2q-18 0 -27 13.5t-9 27.5z" />
<glyph unicode="z" horiz-adv-x="477" d="M-13 0l349 384h-211l-73 -69h-7l54 144h368l-340 -372q29 0 49 -9.5t34.5 -24t25.5 -32t21.5 -32t22 -24t26.5 -9.5q16 0 17 17q0 5 -3 10t-6.5 9.5t-6 10.5t-2.5 14q0 16 10 29t29 13q22 0 32 -12.5t10 -33.5q0 -39 -20.5 -63t-55.5 -24q-39 0 -66 14t-52 30t-51 29.5 t-63 13.5q-17 0 -39 -4t-47 -14z" />
<glyph unicode="{" horiz-adv-x="462" d="M51 -81q0 15 6 37l60 208q5 17 7.5 31t2.5 26q0 53 -49 53l7 23q37 0 62 29t40 82l60 207q10 38 30 61t48 35.5t65.5 16.5t82.5 4l-5 -16q-23 0 -43.5 -5t-38 -19.5t-32.5 -39t-26 -63.5l-58 -202q-11 -40 -36.5 -65t-63.5 -33l-25 -3l24 -3q49 -11 49 -61q0 -18 -6 -38 l-57 -201q-9 -33 -10 -56q0 -42 25.5 -56.5t60.5 -14.5l-5 -17q-39 0 -71 3t-55 12t-36 24.5t-13 40.5z" />
<glyph unicode="|" horiz-adv-x="266" d="M108 -275v1007h51v-1007h-51z" />
<glyph unicode="}" horiz-adv-x="462" d="M-10 -161l5 17q23 0 43 5t38.5 19.5t33.5 39t26 63.5l58 201q11 40 36.5 65t63.5 34l25 3l-24 3q-49 10 -49 60q0 17 6 38l57 202q9 32 9 55q0 22 -6.5 35.5t-18 22t-27.5 11.5t-34 3l6 16q39 0 71 -3t55 -11t36 -24t13 -41q0 -16 -6 -38l-60 -207q-5 -17 -7.5 -31.5 t-2.5 -26.5q0 -53 49 -53l-7 -23q-37 0 -62 -29t-41 -81l-59 -208q-11 -38 -31 -61t-48.5 -35.5t-65.5 -16.5t-82 -4z" />
<glyph unicode="~" horiz-adv-x="606" d="M78 202q3 49 21 89q7 16 19 32t29 29t39 20.5t52 7.5q39 0 63.5 -15t45 -33.5t41 -33t50.5 -14.5q37 0 59.5 15t34.5 34q14 22 20 50h23q-3 -50 -21 -89q-8 -17 -19.5 -33t-28.5 -28.5t-39 -20t-50 -7.5q-39 0 -64 14.5t-45.5 33t-41 33.5t-50.5 15q-38 0 -60 -16 t-34 -34q-14 -22 -20 -49h-24z" />
<glyph unicode="&#xa1;" horiz-adv-x="295" d="M4 30q0 10 3 20l164 472h43l-88 -472q-7 -27 -27 -44.5t-50 -17.5q-45 0 -45 42zM166 678q0 28 19.5 47t46.5 19q28 0 47.5 -19t19.5 -47q0 -27 -19.5 -47t-47.5 -20t-47 20t-19 47z" />
<glyph unicode="&#xa2;" horiz-adv-x="563" d="M49 206q0 54 22 108t60 97.5t89 73t110 35.5l39 140h51l-39 -139q34 -3 62 -16t49 -38q18 -25 18 -48q0 -27 -14 -46t-40 -19q-19 0 -31.5 12.5t-12.5 42.5q0 27 -7.5 43t-36.5 21l-107 -387q49 3 92.5 27.5t83.5 68.5l13 -29q-37 -49 -90 -79.5t-112 -34.5l-38 -138h-51 l39 140q-71 8 -110 49.5t-39 115.5zM152 204q0 -45 14 -73.5t45 -39.5l105 381q-38 -8 -68.5 -36.5t-52 -67t-32.5 -82t-11 -82.5z" />
<glyph unicode="&#xa3;" horiz-adv-x="563" d="M-41 0l3 10q35 24 78 59t81.5 77t64.5 89t26 94v13t-2 13h-119l13 47h92q-15 30 -30 69.5t-15 79.5q0 43 18.5 79t51 61.5t75 39t90.5 13.5q22 0 47.5 -5.5t48.5 -17t38.5 -30.5t15.5 -46q0 -25 -14.5 -43t-41.5 -18q-19 0 -32.5 12t-13.5 32q0 41 -14 55t-40 14t-47 -12 t-35.5 -32.5t-23 -47.5t-8.5 -57q0 -39 12 -74.5t17 -71.5h109l-13 -47h-97q-13 -87 -60 -154t-119 -122h166l146 131h7l-88 -210h-387z" />
<glyph unicode="&#xa4;" horiz-adv-x="563" d="M39 377l45 45l48 -64q24 18 54 29t66 11t65 -10t53 -29l49 63l45 -45l-63 -49q18 -25 28.5 -55t10.5 -64t-10 -64t-29 -55l63 -48l-45 -45l-49 61q-24 -17 -53 -27.5t-65 -10.5t-65.5 10.5t-53.5 27.5l-48 -61l-45 45l61 48q-38 50 -38 119t38 119zM126 209q0 -60 34 -98 t92 -38t92 37.5t34 98.5q0 60 -34 98.5t-92 38.5t-92 -38.5t-34 -98.5z" />
<glyph unicode="&#xa5;" horiz-adv-x="563" d="M67 725v7h262v-7l-75 -51l86 -237l-2 -61l29 58l195 240l-56 51v7h202v-7l-75 -51l-260 -307h144l-14 -52h-145l-14 -56h143l-13 -51h-144l-40 -150l56 -51v-7h-238v7l74 51l40 150h-144l13 51h145l15 56h-145l15 52h113l-111 307z" />
<glyph unicode="&#xa6;" horiz-adv-x="266" d="M108 175h51v-450h-51v450zM108 282v450h51v-450h-51z" />
<glyph unicode="&#xa7;" horiz-adv-x="563" d="M-47 -175q0 27 12.5 40.5t33.5 13.5q18 0 32.5 -11t14.5 -35q0 -43 20 -64t56 -21q29 0 51.5 16t37.5 39.5t23.5 50.5t8.5 50q0 28 -13.5 50.5t-34 42.5t-43.5 40t-43.5 42t-34 48t-13.5 58q0 36 13.5 67.5t35 57.5t49.5 48t59 39q-26 26 -43.5 56.5t-17.5 72.5 q0 48 18.5 88.5t50 69.5t75 44.5t92.5 15.5q29 0 58 -7.5t52 -22.5t37.5 -36.5t14.5 -48.5q0 -60 -49 -61q-20 0 -35 13t-15 41q0 42 -15.5 64.5t-60.5 22.5q-31 0 -54 -14.5t-38 -36.5t-22 -49.5t-7 -55.5q0 -30 13.5 -52.5t34 -42.5t43.5 -38.5t43.5 -39.5t33.5 -46.5 t13 -58.5q0 -36 -13 -66.5t-35.5 -57t-51 -49t-58.5 -41.5q27 -25 45 -54t18 -67q0 -52 -20.5 -94.5t-53 -72t-75.5 -45.5t-87 -16q-30 0 -57.5 8t-49.5 22.5t-35.5 35t-13.5 47.5zM163 221q0 -20 8 -38.5t21 -35t30 -31.5l34 -30q36 30 59.5 67t23.5 83q0 19 -8 37.5 t-22 35.5t-31.5 33t-34.5 33q-38 -31 -59 -69.5t-21 -84.5z" />
<glyph unicode="&#xa8;" horiz-adv-x="337" d="M105 677q0 24 16 39.5t39 15.5q24 0 39.5 -15.5t15.5 -39.5t-16 -39.5t-39 -15.5t-39 15.5t-16 39.5zM275 677q0 24 16 39.5t39 15.5q24 0 39.5 -15.5t15.5 -39.5t-16 -39.5t-39 -15.5t-39 15.5t-16 39.5z" />
<glyph unicode="&#xa9;" horiz-adv-x="839" d="M41 366q0 79 29.5 148t81.5 120t120.5 80.5t147.5 29.5q78 0 147 -29.5t120.5 -80.5t81.5 -120.5t30 -147.5q0 -79 -30 -147.5t-81.5 -120t-120.5 -81t-147 -29.5q-79 0 -147.5 29.5t-120.5 81t-81.5 120t-29.5 147.5zM110 366q0 -67 23.5 -125t65.5 -101.5t98 -68.5 t123 -25q66 0 122.5 25t98.5 68.5t65.5 101.5t23.5 125t-23.5 125t-65.5 101.5t-99 68.5t-122 25q-67 0 -123 -25t-98 -68.5t-65.5 -101.5t-23.5 -125zM185 366q0 49 20.5 92t55 74t80 49t95.5 18q26 0 62.5 -6.5t68.5 -22.5v-116h-10q-5 18 -15 36.5t-24.5 32.5t-35.5 22.5 t-49 8.5q-68 0 -105.5 -50.5t-37.5 -137.5t39 -138t112 -51q49 0 91 23.5t71 79.5l20 -18q-12 -31 -33.5 -55t-47 -40.5t-54 -25.5t-56.5 -9q-60 0 -106 17t-77.5 47.5t-47.5 73.5t-16 96z" />
<glyph unicode="&#xaa;" horiz-adv-x="362" d="M15 360q0 35 16.5 76t43.5 77t62.5 60t73.5 24q27 0 39 -17t12 -41l16 52l62 4l-70 -265q-1 -5 -1 -12q0 -19 18 -19q13 0 25.5 11t35.5 45l11 -7q-11 -20 -21 -35t-21 -25t-23.5 -15.5t-29.5 -5.5q-27 0 -41 16.5t-14 40.5q0 5 0.5 9.5t1.5 9.5q-16 -36 -44.5 -56 t-61.5 -20q-48 0 -69 27.5t-21 65.5zM77 347q0 -20 10.5 -33.5t30.5 -13.5q32 0 56.5 23t41 56.5t25.5 69t9 61.5q0 25 -8.5 39.5t-32.5 14.5q-23 0 -46.5 -23t-42.5 -56.5t-31 -71t-12 -66.5z" />
<glyph unicode="&#xab;" horiz-adv-x="515" d="M41 251v18l249 251v-86l-169 -174l169 -174v-86zM220 251v18l249 251v-86l-169 -174l169 -174v-86z" />
<glyph unicode="&#xac;" horiz-adv-x="522" d="M92 247v51h338v-186h-51v128l-7 7h-280z" />
<glyph unicode="&#xad;" horiz-adv-x="474" d="M51 298l14 51h356l-13 -51h-357z" />
<glyph unicode="&#xae;" horiz-adv-x="839" d="M41 366q0 79 29.5 148t81.5 120t120.5 80.5t147.5 29.5q78 0 147 -29.5t120.5 -80.5t81.5 -120.5t30 -147.5q0 -79 -30 -147.5t-81.5 -120t-120.5 -81t-147 -29.5q-79 0 -147.5 29.5t-120.5 81t-81.5 120t-29.5 147.5zM110 366q0 -67 23.5 -125t65.5 -101.5t98 -68.5 t123 -25q60 0 112.5 21t93.5 58l-29 12l-61 51l-118 148h-45l-7 -7v-141l44 -44v-7h-183v7l44 44v357l-44 44v7h237q31 0 60 -5t51.5 -19.5t36 -39.5t13.5 -66q0 -30 -12 -52t-30.5 -37t-42 -24t-46.5 -13l49 -8l102 -189q40 43 62.5 100.5t22.5 122.5q0 67 -23.5 125 t-65.5 101.5t-99 68.5t-122 25q-67 0 -123 -25t-98 -68.5t-65.5 -102t-23.5 -124.5zM366 394l7 -7h58q47 0 73 16.5t26 62.5q0 28 -8.5 43.5t-22.5 23.5t-31.5 10t-36.5 2h-58l-7 -7v-144z" />
<glyph unicode="&#xaf;" horiz-adv-x="337" d="M49 638l16 53h252l-15 -53h-253z" />
<glyph unicode="&#xb0;" horiz-adv-x="337" d="M56 632q0 24 9 44t24 35.5t35.5 24t44.5 8.5t44 -8.5t35.5 -24t24.5 -36t9 -43.5q0 -24 -9 -44.5t-24.5 -35.5t-35.5 -24t-44 -9t-44.5 9t-35.5 24t-24 35.5t-9 44.5zM109 632q0 -28 14.5 -48t45.5 -20t45.5 20t14.5 48t-14.5 47.5t-45.5 19.5t-45.5 -19.5t-14.5 -47.5z " />
<glyph unicode="&#xb1;" horiz-adv-x="522" d="M37 331v51h197v198h52v-198h198v-51h-198v-198h-52v198h-197zM41 0v51h438v-51h-438z" />
<glyph unicode="&#xb2;" horiz-adv-x="348" d="M43 418l3 10q25 19 64.5 52t76.5 73.5t64.5 86t27.5 90.5q0 24 -11.5 37.5t-37.5 13.5q-30 0 -56 -24t-48 -60l-16 9q7 18 20.5 38t32.5 37t43 27.5t54 10.5q95 0 95 -84q0 -41 -19.5 -79t-49 -71t-66 -61.5t-70.5 -52.5h107l76 63h7l-47 -116h-250z" />
<glyph unicode="&#xb3;" horiz-adv-x="348" d="M66 475q0 13 8 22.5t23 9.5q12 0 20 -6t13 -22q7 -20 18.5 -28t31.5 -8q38 0 58 29.5t20 78.5q0 29 -19.5 47t-49.5 23l5 17q40 2 67 30t27 73q0 22 -10.5 34t-30.5 12q-27 0 -49 -17t-39 -48l-21 10q17 35 49 61t78 26q42 0 64 -19t22 -56q0 -43 -24.5 -72.5 t-60.5 -35.5q26 -7 46 -26.5t20 -52.5q0 -36 -12 -62.5t-33.5 -45t-50.5 -27.5t-64 -9q-18 0 -37 3.5t-34.5 11t-25 19.5t-9.5 28z" />
<glyph unicode="&#xb4;" horiz-adv-x="337" d="M89 537l131 138q16 16 27.5 21t26.5 5q17 0 29 -11t12 -26q0 -33 -42 -54l-160 -73h-24z" />
<glyph unicode="&#xb5;" horiz-adv-x="563" d="M-53 -214l165 618l-49 27v7l162 42l-92 -347q-3 -13 -5 -24t-2 -19q0 -24 12.5 -33t32.5 -9q24 0 49.5 16t48 41.5t40.5 58.5t27 67l60 228l97 5l-104 -385q-2 -5 -2 -8.5v-8.5q0 -29 26 -28q19 0 38.5 16t52.5 67l16 -12q-17 -30 -31.5 -51.5t-30.5 -36.5t-34 -22 t-43 -7q-42 0 -61 30t-19 74v8t1 10q-33 -53 -83 -87.5t-110 -34.5q-4 0 -7.5 0.5t-6.5 0.5l-40 -152z" />
<glyph unicode="&#xb6;" horiz-adv-x="486" d="M27 447q0 61 26.5 113.5t69 90.5t96 59.5t108.5 21.5h236l-290 -1007h-7l-48 61l257 897l-5 7h-75l-9 -7l-275 -958h-8l-48 61l142 493q-36 0 -67 12.5t-54 35t-36 53.5t-13 67z" />
<glyph unicode="&#xb7;" horiz-adv-x="249" d="M2 313q0 27 19.5 47t47.5 20q27 0 46.5 -20t19.5 -47q0 -28 -20 -47t-46 -19q-28 0 -47.5 19t-19.5 47z" />
<glyph unicode="&#xb8;" horiz-adv-x="337" d="M-12 -163l11 13q17 -7 31.5 -9.5t26.5 -2.5q27 0 49.5 15t22.5 46q0 24 -30 23q-20 0 -39.5 -7.5t-35.5 -19.5h-10l64 140h50l-59 -95q18 11 38 14.5t34 3.5q23 0 38.5 -9.5t15.5 -30.5q0 -26 -11.5 -44.5t-29.5 -31t-41 -18.5t-46 -6q-20 0 -41 4t-38 15z" />
<glyph unicode="&#xb9;" horiz-adv-x="348" d="M112 418v7l51 37l68 257q3 13 3 22q0 26 -28 26q-11 0 -35 -5v10l159 54l-98 -364l37 -37v-7h-157z" />
<glyph unicode="&#xba;" horiz-adv-x="378" d="M18 390q0 41 19 79t50 66t69.5 45t77.5 17q28 0 51.5 -9t41 -26t27.5 -40t10 -50q0 -41 -19.5 -78.5t-50.5 -65.5t-70 -44.5t-78 -16.5q-58 0 -93 35t-35 88zM88 374q0 -34 15.5 -54t51.5 -20q34 0 60 19.5t43 48.5t26 62t9 60q0 33 -15.5 54t-52.5 21q-34 0 -59.5 -20 t-43 -49t-26 -62.5t-8.5 -59.5z" />
<glyph unicode="&#xbb;" horiz-adv-x="515" d="M46 0v86l169 174l-169 174v86l249 -251v-18zM225 0v86l169 174l-169 174v86l249 -251v-18z" />
<glyph unicode="&#xbc;" horiz-adv-x="675" d="M55 299v7l51 37l68 257q3 13 3 22q0 26 -28 26q-11 0 -35 -5v10l159 54l-98 -364l37 -37v-7h-157zM98 24l411 708l41 -23l-411 -709zM279 117v13l276 279h19l-70 -258h60l-9 -34h-59l-19 -73l36 -36v-8h-158v8l52 36l19 73h-147zM347 151h88l31 115z" />
<glyph unicode="&#xbd;" horiz-adv-x="675" d="M33 299v7l51 37l68 257q3 13 3 22q0 26 -28 26q-11 0 -35 -5v10l159 54l-98 -364l37 -37v-7h-157zM89 24l411 708l41 -23l-411 -709zM284 0l4 11q25 19 64 52t76.5 73.5t64.5 86t27 90.5q0 24 -11.5 37.5t-36.5 13.5q-30 0 -56 -24t-49 -60l-16 8q7 18 21 38t33 37t43 28 t54 11q95 0 95 -84q0 -41 -19.5 -79t-49.5 -71t-66 -62t-71 -52h107l76 62h7l-47 -116h-250z" />
<glyph unicode="&#xbe;" horiz-adv-x="675" d="M42 360q0 13 8 22.5t23 9.5q12 0 20 -6t13 -22q7 -20 18.5 -28t31.5 -8q38 0 58 29.5t20 78.5q0 29 -19.5 47t-49.5 23l5 17q40 2 67 30t27 73q0 22 -10.5 34t-30.5 12q-27 0 -49 -17t-39 -48l-21 10q17 35 49 61t78 26q42 0 64 -19t22 -56q0 -43 -24.5 -72.5 t-60.5 -35.5q26 -7 46 -26.5t20 -52.5q0 -36 -12 -62.5t-33.5 -45t-50.5 -27.5t-64 -9q-18 0 -37 3.5t-34.5 11t-25 19.5t-9.5 28zM146 24l411 708l41 -23l-411 -709zM318 117v13l276 279h19l-70 -258h60l-9 -34h-59l-19 -73l36 -36v-8h-158v8l52 36l19 73h-147zM386 151h88 l31 115z" />
<glyph unicode="&#xbf;" horiz-adv-x="441" d="M-29 128q0 47 24.5 77t61.5 52t80.5 38.5t80.5 34.5t61.5 41t24.5 58q0 20 -17.5 34t-55.5 14q-20 0 -36.5 -4t-28.5 -9q-14 -5 -27 -14v53q6 5 18 8t25.5 5t27.5 3t24 1q56 0 89 -24t33 -66q0 -39 -21 -65t-52.5 -46t-68.5 -38t-68.5 -40t-52.5 -50.5t-21 -71.5 q0 -39 27 -60.5t72 -21.5q53 0 87.5 28t34.5 81q0 5 -0.5 11.5t-1.5 12.5l74 22q5 -20 5 -37q0 -35 -16.5 -65.5t-44 -53.5t-65 -35.5t-79.5 -12.5q-90 0 -142 38t-52 102zM243 678q0 28 19.5 47t46.5 19q28 0 47.5 -19t19.5 -47q0 -27 -19.5 -47t-47.5 -20t-47 20t-19 47z " />
<glyph unicode="&#xc0;" horiz-adv-x="670" d="M-97 0v7l84 51l468 698h18l87 -698l54 -51v-7h-239v7l76 51l-23 179h-267l-119 -179l55 -51v-7h-194zM196 288h226l-34 261l3 42l-13 -27zM341 937q0 15 12 26t29 11q15 0 26.5 -5t27.5 -21l131 -138h-23l-161 73q-42 20 -42 54z" />
<glyph unicode="&#xc1;" horiz-adv-x="670" d="M-97 0v7l84 51l468 698h18l87 -698l54 -51v-7h-239v7l76 51l-23 179h-267l-119 -179l55 -51v-7h-194zM196 288h226l-34 261l3 42l-13 -27zM381 810l131 138q16 16 27.5 21t26.5 5q17 0 29 -11t12 -26q0 -33 -42 -54l-160 -73h-24z" />
<glyph unicode="&#xc2;" horiz-adv-x="670" d="M-97 0v7l84 51l468 698h18l87 -698l54 -51v-7h-239v7l76 51l-23 179h-267l-119 -179l55 -51v-7h-194zM196 288h226l-34 261l3 42l-13 -27zM344 799l154 165h34l69 -165h-24l-88 77l-122 -77h-23z" />
<glyph unicode="&#xc3;" horiz-adv-x="670" d="M-97 0v7l84 51l468 698h18l87 -698l54 -51v-7h-239v7l76 51l-23 179h-267l-119 -179l55 -51v-7h-194zM196 288h226l-34 261l3 42l-13 -27zM270 840q15 34 39 60q20 23 49.5 41.5t69.5 18.5q31 0 48 -10t30.5 -22.5t26.5 -22.5t33 -10q26 0 45 9.5t33 22.5q15 13 28 31 l15 -5q-14 -35 -37 -61q-19 -24 -48.5 -42.5t-70.5 -18.5q-32 0 -48.5 10.5t-29.5 22.5t-25.5 22.5t-37.5 10.5q-24 0 -42.5 -10.5t-33.5 -21.5q-16 -14 -30 -32z" />
<glyph unicode="&#xc4;" horiz-adv-x="686" d="M-97 0v7l84 51l468 698h18l87 -698l54 -51v-7h-239v7l76 51l-23 179h-267l-119 -179l55 -51v-7h-194zM196 288h226l-34 261l3 42l-13 -27zM350 879q0 24 16 39.5t39 15.5q24 0 39.5 -15.5t15.5 -39.5t-16 -39.5t-39 -15.5t-39 15.5t-16 39.5zM520 879q0 24 16 39.5 t39 15.5q24 0 39.5 -15.5t15.5 -39.5t-16 -39.5t-39 -15.5t-39 15.5t-16 39.5z" />
<glyph unicode="&#xc5;" horiz-adv-x="670" d="M-97 0v7l84 51l468 698h18l87 -698l54 -51v-7h-239v7l76 51l-23 179h-267l-119 -179l55 -51v-7h-194zM196 288h226l-34 261l3 42l-13 -27zM403 900q0 40 28 67.5t68 27.5t67.5 -27.5t27.5 -67.5t-27.5 -67.5t-67.5 -27.5t-68 27.5t-28 67.5zM454 900q0 -19 12.5 -32 t32.5 -13q19 0 32 12.5t13 32.5q0 19 -13 32t-32 13t-32 -13t-13 -32z" />
<glyph unicode="&#xc6;" horiz-adv-x="1039" d="M-97 0v7l89 51l586 634l-34 33v7h500l-26 -150h-7l-41 99h-250l-9 -7l-72 -250l5 -7h222l52 59h6l-48 -169h-7l-18 59h-222l-9 -8l-86 -300l5 -7h259l132 114h7l-73 -165h-514v7l76 51l52 179l-5 7h-240l-174 -186l43 -51v-7h-199zM279 294h207l10 7l95 331z" />
<glyph unicode="&#xc7;" horiz-adv-x="702" d="M51 255q0 60 17 119.5t47.5 114t74 101.5t97.5 81.5t116.5 53.5t131.5 19q42 0 96 -10.5t97 -34.5l-48 -165h-16q0 30 -6.5 58.5t-23 51t-45 36t-73.5 13.5q-50 0 -95 -20t-83 -54t-68.5 -78.5t-52 -94.5t-33 -101t-11.5 -97q0 -44 10.5 -82t32.5 -66t55.5 -44.5 t81.5 -16.5q43 0 78.5 9t68 29.5t66 53t70.5 79.5l23 -20q-36 -53 -72 -91.5t-76 -63t-84.5 -36t-96.5 -11.5q-10 0 -20 0.5t-20 1.5l-31 -50q18 11 38 14.5t35 3.5q23 0 38 -9.5t15 -30.5q0 -26 -11.5 -44.5t-29 -31t-40.5 -18.5t-47 -6q-20 0 -40.5 4t-38.5 15l11 13 q17 -7 32 -9.5t27 -2.5q27 0 49 15t22 46q0 24 -29 23q-20 0 -40 -7.5t-36 -19.5h-9l45 101q-96 19 -147.5 87t-51.5 172z" />
<glyph unicode="&#xc8;" horiz-adv-x="663" d="M-24 0v7l75 51l177 616l-55 51v7h496l-27 -150h-7l-41 99h-249l-9 -7l-72 -250l5 -7h221l52 59h6l-48 -169h-6l-19 59h-221l-9 -8l-86 -300l5 -7h258l132 114h7l-73 -165h-512zM366 937q0 15 12 26t29 11q15 0 26.5 -5t27.5 -21l131 -138h-23l-161 73q-42 20 -42 54z" />
<glyph unicode="&#xc9;" horiz-adv-x="663" d="M-24 0v7l75 51l177 616l-55 51v7h496l-27 -150h-7l-41 99h-249l-9 -7l-72 -250l5 -7h221l52 59h6l-48 -169h-6l-19 59h-221l-9 -8l-86 -300l5 -7h258l132 114h7l-73 -165h-512zM376 810l131 138q16 16 27.5 21t26.5 5q17 0 29 -11t12 -26q0 -33 -42 -54l-160 -73h-24z " />
<glyph unicode="&#xca;" horiz-adv-x="663" d="M-24 0v7l75 51l177 616l-55 51v7h496l-27 -150h-7l-41 99h-249l-9 -7l-72 -250l5 -7h221l52 59h6l-48 -169h-6l-19 59h-221l-9 -8l-86 -300l5 -7h258l132 114h7l-73 -165h-512zM336 799l154 165h34l69 -165h-24l-88 77l-122 -77h-23z" />
<glyph unicode="&#xcb;" horiz-adv-x="663" d="M-24 0v7l75 51l177 616l-55 51v7h496l-27 -150h-7l-41 99h-249l-9 -7l-72 -250l5 -7h221l52 59h6l-48 -169h-6l-19 59h-221l-9 -8l-86 -300l5 -7h258l132 114h7l-73 -165h-512zM329 879q0 24 16 39.5t39 15.5q24 0 39.5 -15.5t15.5 -39.5t-16 -39.5t-39 -15.5t-39 15.5 t-16 39.5zM499 879q0 24 16 39.5t39 15.5q24 0 39.5 -15.5t15.5 -39.5t-16 -39.5t-39 -15.5t-39 15.5t-16 39.5z" />
<glyph unicode="&#xcc;" horiz-adv-x="343" d="M-26 0v7l75 51l177 616l-55 51v7h239v-7l-76 -51l-177 -616l55 -51v-7h-238zM215 937q0 15 12 26t29 11q15 0 26.5 -5t27.5 -21l131 -138h-23l-161 73q-42 20 -42 54z" />
<glyph unicode="&#xcd;" horiz-adv-x="343" d="M-26 0v7l75 51l177 616l-55 51v7h239v-7l-76 -51l-177 -616l55 -51v-7h-238zM199 810l131 138q16 16 27.5 21t26.5 5q17 0 29 -11t12 -26q0 -33 -42 -54l-160 -73h-24z" />
<glyph unicode="&#xce;" horiz-adv-x="343" d="M-26 0v7l75 51l177 616l-55 51v7h239v-7l-76 -51l-177 -616l55 -51v-7h-238zM185 799l154 165h34l69 -165h-24l-88 77l-122 -77h-23z" />
<glyph unicode="&#xcf;" horiz-adv-x="343" d="M-26 0v7l75 51l177 616l-55 51v7h239v-7l-76 -51l-177 -616l55 -51v-7h-238zM185 879q0 24 16 39.5t39 15.5q24 0 39.5 -15.5t15.5 -39.5t-16 -39.5t-39 -15.5t-39 15.5t-16 39.5zM355 879q0 24 16 39.5t39 15.5q24 0 39.5 -15.5t15.5 -39.5t-16 -39.5t-39 -15.5 t-39 15.5t-16 39.5z" />
<glyph unicode="&#xd0;" horiz-adv-x="760" d="M-24 0v7l75 51l79 275l-5 7h-77l15 53h77l10 7l78 274l-55 51v7h296q67 0 117 -19t83 -52.5t49.5 -79.5t16.5 -101q0 -97 -35 -184t-97.5 -153t-148 -104.5t-186.5 -38.5h-292zM159 58l5 -7h103q86 0 153 40t114 104.5t71.5 146t24.5 165.5q0 39 -9 70.5t-29.5 54.5 t-53.5 36t-82 13h-111l-9 -7l-79 -274l5 -7h75l-15 -53h-75l-9 -7z" />
<glyph unicode="&#xd1;" horiz-adv-x="791" d="M-26 0v7l75 51l177 616l-53 51v7h152l270 -489l-2 -48l138 479l-55 51v7h182v-7l-76 -51l-193 -674h-8l-317 589l2 47l-166 -578l55 -51v-7h-181zM346 840q15 34 39 60q20 23 49.5 41.5t69.5 18.5q31 0 48 -10t30.5 -22.5t26.5 -22.5t33 -10q26 0 45 9.5t33 22.5 q15 13 28 31l15 -5q-14 -35 -37 -61q-19 -24 -48.5 -42.5t-70.5 -18.5q-32 0 -48.5 10.5t-29.5 22.5t-25.5 22.5t-37.5 10.5q-24 0 -42.5 -10.5t-33.5 -21.5q-16 -14 -30 -32z" />
<glyph unicode="&#xd2;" horiz-adv-x="814" d="M56 255q0 57 17 116t47.5 113.5t73.5 102t95.5 82t113.5 55t126 20.5q61 0 109.5 -20.5t82 -56t50.5 -84.5t17 -106q0 -87 -35 -174t-98.5 -157t-150.5 -114t-191 -44q-60 0 -107.5 20.5t-80.5 56t-51 84.5t-18 106zM170 237q0 -41 9 -77t28 -63t49 -42.5t72 -15.5 q55 0 102 20.5t86 56t68.5 81.5t50 97t31 104t10.5 101q0 90 -39 142t-122 52q-53 0 -99.5 -20.5t-85 -55t-68.5 -81t-50.5 -97t-31 -103t-10.5 -99.5zM466 937q0 15 12 26t29 11q15 0 26.5 -5t27.5 -21l131 -138h-23l-161 73q-42 20 -42 54z" />
<glyph unicode="&#xd3;" horiz-adv-x="814" d="M56 255q0 57 17 116t47.5 113.5t73.5 102t95.5 82t113.5 55t126 20.5q61 0 109.5 -20.5t82 -56t50.5 -84.5t17 -106q0 -87 -35 -174t-98.5 -157t-150.5 -114t-191 -44q-60 0 -107.5 20.5t-80.5 56t-51 84.5t-18 106zM170 237q0 -41 9 -77t28 -63t49 -42.5t72 -15.5 q55 0 102 20.5t86 56t68.5 81.5t50 97t31 104t10.5 101q0 90 -39 142t-122 52q-53 0 -99.5 -20.5t-85 -55t-68.5 -81t-50.5 -97t-31 -103t-10.5 -99.5zM459 810l131 138q16 16 27.5 21t26.5 5q17 0 29 -11t12 -26q0 -33 -42 -54l-160 -73h-24z" />
<glyph unicode="&#xd4;" horiz-adv-x="814" d="M56 255q0 57 17 116t47.5 113.5t73.5 102t95.5 82t113.5 55t126 20.5q61 0 109.5 -20.5t82 -56t50.5 -84.5t17 -106q0 -87 -35 -174t-98.5 -157t-150.5 -114t-191 -44q-60 0 -107.5 20.5t-80.5 56t-51 84.5t-18 106zM170 237q0 -41 9 -77t28 -63t49 -42.5t72 -15.5 q55 0 102 20.5t86 56t68.5 81.5t50 97t31 104t10.5 101q0 90 -39 142t-122 52q-53 0 -99.5 -20.5t-85 -55t-68.5 -81t-50.5 -97t-31 -103t-10.5 -99.5zM435 799l154 165h34l69 -165h-24l-88 77l-122 -77h-23z" />
<glyph unicode="&#xd5;" horiz-adv-x="814" d="M56 255q0 57 17 116t47.5 113.5t73.5 102t95.5 82t113.5 55t126 20.5q61 0 109.5 -20.5t82 -56t50.5 -84.5t17 -106q0 -87 -35 -174t-98.5 -157t-150.5 -114t-191 -44q-60 0 -107.5 20.5t-80.5 56t-51 84.5t-18 106zM170 237q0 -41 9 -77t28 -63t49 -42.5t72 -15.5 q55 0 102 20.5t86 56t68.5 81.5t50 97t31 104t10.5 101q0 90 -39 142t-122 52q-53 0 -99.5 -20.5t-85 -55t-68.5 -81t-50.5 -97t-31 -103t-10.5 -99.5zM374 840q15 34 39 60q20 23 49.5 41.5t69.5 18.5q31 0 48 -10t30.5 -22.5t26.5 -22.5t33 -10q26 0 45 9.5t33 22.5 q15 13 28 31l15 -5q-14 -35 -37 -61q-19 -24 -48.5 -42.5t-70.5 -18.5q-32 0 -48.5 10.5t-29.5 22.5t-25.5 22.5t-37.5 10.5q-24 0 -42.5 -10.5t-33.5 -21.5q-16 -14 -30 -32z" />
<glyph unicode="&#xd6;" horiz-adv-x="814" d="M56 255q0 57 17 116t47.5 113.5t73.5 102t95.5 82t113.5 55t126 20.5q61 0 109.5 -20.5t82 -56t50.5 -84.5t17 -106q0 -87 -35 -174t-98.5 -157t-150.5 -114t-191 -44q-60 0 -107.5 20.5t-80.5 56t-51 84.5t-18 106zM170 237q0 -41 9 -77t28 -63t49 -42.5t72 -15.5 q55 0 102 20.5t86 56t68.5 81.5t50 97t31 104t10.5 101q0 90 -39 142t-122 52q-53 0 -99.5 -20.5t-85 -55t-68.5 -81t-50.5 -97t-31 -103t-10.5 -99.5zM443 879q0 24 16 39.5t39 15.5q24 0 39.5 -15.5t15.5 -39.5t-16 -39.5t-39 -15.5t-39 15.5t-16 39.5zM613 879 q0 24 16 39.5t39 15.5q24 0 39.5 -15.5t15.5 -39.5t-16 -39.5t-39 -15.5t-39 15.5t-16 39.5z" />
<glyph unicode="&#xd7;" horiz-adv-x="522" d="M85 166l140 139l-140 139l37 37l139 -140l139 140l37 -37l-140 -139l141 -140l-37 -37l-140 141l-139 -140z" />
<glyph unicode="&#xd8;" horiz-adv-x="814" d="M45 31l59 59q-48 69 -48 165q0 57 17 116t48 113.5t74 102t95 82t113 55t126 20.5q53 0 96.5 -15t75.5 -43l55 54l36 -37l-56 -55q26 -35 39 -78t13 -93q0 -87 -35 -174t-98.5 -157t-150.5 -114t-191 -44q-54 0 -98 16t-77 46l-56 -56zM170 237q0 -19 1.5 -38t6.5 -36 l466 467q-19 30 -51 46.5t-78 16.5q-53 0 -99.5 -20.5t-85 -55t-68.5 -81t-50.5 -97t-31 -103t-10.5 -99.5zM199 111q18 -33 50 -52.5t79 -19.5q55 0 102 20.5t86 56t68.5 81.5t50 97t31 104t10.5 101q0 22 -2.5 41.5t-7.5 37.5z" />
<glyph unicode="&#xd9;" horiz-adv-x="781" d="M92 178q0 40 14 92l116 404l-54 51v7h239v-7l-77 -51l-116 -404q-15 -51 -15 -99q0 -30 7.5 -54t24.5 -41.5t45 -27t69 -9.5q60 0 101.5 13t71 40t49 69.5t36.5 102.5l117 410l-54 51v7h182v-7l-77 -51l-128 -448q-15 -54 -37 -98t-57.5 -75t-88 -48t-130.5 -17 q-112 0 -175 47t-63 143zM454 937q0 15 12 26t29 11q15 0 26.5 -5t27.5 -21l131 -138h-23l-161 73q-42 20 -42 54z" />
<glyph unicode="&#xda;" horiz-adv-x="781" d="M92 178q0 40 14 92l116 404l-54 51v7h239v-7l-77 -51l-116 -404q-15 -51 -15 -99q0 -30 7.5 -54t24.5 -41.5t45 -27t69 -9.5q60 0 101.5 13t71 40t49 69.5t36.5 102.5l117 410l-54 51v7h182v-7l-77 -51l-128 -448q-15 -54 -37 -98t-57.5 -75t-88 -48t-130.5 -17 q-112 0 -175 47t-63 143zM471 810l131 138q16 16 27.5 21t26.5 5q17 0 29 -11t12 -26q0 -33 -42 -54l-160 -73h-24z" />
<glyph unicode="&#xdb;" horiz-adv-x="781" d="M92 178q0 40 14 92l116 404l-54 51v7h239v-7l-77 -51l-116 -404q-15 -51 -15 -99q0 -30 7.5 -54t24.5 -41.5t45 -27t69 -9.5q60 0 101.5 13t71 40t49 69.5t36.5 102.5l117 410l-54 51v7h182v-7l-77 -51l-128 -448q-15 -54 -37 -98t-57.5 -75t-88 -48t-130.5 -17 q-112 0 -175 47t-63 143zM428 799l154 165h34l69 -165h-24l-88 77l-122 -77h-23z" />
<glyph unicode="&#xdc;" horiz-adv-x="781" d="M92 178q0 40 14 92l116 404l-54 51v7h239v-7l-77 -51l-116 -404q-15 -51 -15 -99q0 -30 7.5 -54t24.5 -41.5t45 -27t69 -9.5q60 0 101.5 13t71 40t49 69.5t36.5 102.5l117 410l-54 51v7h182v-7l-77 -51l-128 -448q-15 -54 -37 -98t-57.5 -75t-88 -48t-130.5 -17 q-112 0 -175 47t-63 143zM430 879q0 24 16 39.5t39 15.5q24 0 39.5 -15.5t15.5 -39.5t-16 -39.5t-39 -15.5t-39 15.5t-16 39.5zM600 879q0 24 16 39.5t39 15.5q24 0 39.5 -15.5t15.5 -39.5t-16 -39.5t-39 -15.5t-39 15.5t-16 39.5z" />
<glyph unicode="&#xdd;" horiz-adv-x="636" d="M97 725l2 7h262l-2 -7l-75 -51l83 -232l-3 -61l29 58l208 235l-55 51l2 7h202l-2 -7l-76 -51l-275 -302l-90 -314l55 -51v-7h-238v7l76 51l76 267l-123 349zM393 810l131 138q16 16 27.5 21t26.5 5q17 0 29 -11t12 -26q0 -33 -42 -54l-160 -73h-24z" />
<glyph unicode="&#xde;" horiz-adv-x="628" d="M-26 0v7l75 51l182 640l-47 27v7l176 42l-53 -189h93q43 0 84 -7.5t72.5 -24.5t51 -48t19.5 -77q0 -67 -28 -119t-75.5 -89t-110 -56.5t-130.5 -19.5h-94l-10 -7l-22 -79l55 -51v-7h-238zM198 204l6 -8h74q52 0 97 13t77.5 42.5t51 74.5t18.5 108q0 32 -11.5 51.5 t-31.5 30t-46.5 14.5t-57.5 4h-74l-10 -8z" />
<glyph unicode="&#xdf;" horiz-adv-x="568" d="M-253 -180q0 30 16 43t35 13q22 0 36.5 -11.5t14.5 -35.5q0 -14 -6.5 -23t-6.5 -20t8.5 -19t22.5 -8q17 0 33 10t33 39t36 82.5t41 139.5l131 504q27 102 90 156t168 54q76 0 112 -33.5t36 -82.5q0 -34 -14 -58.5t-34.5 -43.5t-44.5 -34.5t-44.5 -31t-34.5 -32t-14 -38.5 q0 -26 19.5 -48.5t43 -48t43 -56.5t19.5 -74q0 -87 -47.5 -131t-127.5 -44q-22 0 -46.5 6t-46.5 18t-36.5 28.5t-14.5 39.5q0 17 9.5 27t26.5 10q26 0 37 -28q11 -27 30.5 -40.5t50.5 -13.5q81 0 80 95q0 29 -16.5 56t-37.5 54t-38 55.5t-17 60.5t12 55.5t30.5 42.5t40 36 t40 36t31 42t12.5 56q0 36 -18.5 54.5t-53.5 18.5q-54 0 -88 -32.5t-54 -103.5l-150 -521q-31 -104 -59.5 -169t-57 -100t-59 -47t-61.5 -12q-49 0 -79.5 27.5t-30.5 80.5z" />
<glyph unicode="&#xe0;" horiz-adv-x="537" d="M28 124q0 34 11 73t31 77.5t46.5 74t58.5 62.5t67.5 43.5t72.5 16.5q39 0 57.5 -25t18.5 -61l21 78l93 5l-103 -389q-2 -5 -2 -8.5v-8.5q0 -14 7 -21t19 -7q19 0 38.5 16t52.5 67l16 -12q-17 -30 -31.5 -51.5t-30.5 -36.5t-34.5 -22t-42.5 -7q-39 0 -60 23.5t-21 59.5 q0 12 3 27q-24 -53 -66.5 -81.5t-89.5 -28.5q-35 0 -60 10t-40.5 28.5t-23.5 43.5t-8 54zM118 104q0 -30 16 -49.5t45 -19.5q31 0 57 16t47.5 42t38 58.5t28 67t17 67t5.5 57.5q0 37 -11.5 59t-47.5 22q-23 0 -46 -16t-44.5 -42t-41 -60t-33 -69t-22 -70t-8.5 -63zM219 645 q0 15 12 26t29 11q15 0 26.5 -5t27.5 -21l131 -138h-23l-161 73q-42 20 -42 54z" />
<glyph unicode="&#xe1;" horiz-adv-x="537" d="M28 124q0 34 11 73t31 77.5t46.5 74t58.5 62.5t67.5 43.5t72.5 16.5q39 0 57.5 -25t18.5 -61l21 78l93 5l-103 -389q-2 -5 -2 -8.5v-8.5q0 -14 7 -21t19 -7q19 0 38.5 16t52.5 67l16 -12q-17 -30 -31.5 -51.5t-30.5 -36.5t-34.5 -22t-42.5 -7q-39 0 -60 23.5t-21 59.5 q0 12 3 27q-24 -53 -66.5 -81.5t-89.5 -28.5q-35 0 -60 10t-40.5 28.5t-23.5 43.5t-8 54zM118 104q0 -30 16 -49.5t45 -19.5q31 0 57 16t47.5 42t38 58.5t28 67t17 67t5.5 57.5q0 37 -11.5 59t-47.5 22q-23 0 -46 -16t-44.5 -42t-41 -60t-33 -69t-22 -70t-8.5 -63zM229 518 l131 138q16 16 27.5 21t26.5 5q17 0 29 -11t12 -26q0 -33 -42 -54l-160 -73h-24z" />
<glyph unicode="&#xe2;" horiz-adv-x="537" d="M28 124q0 34 11 73t31 77.5t46.5 74t58.5 62.5t67.5 43.5t72.5 16.5q39 0 57.5 -25t18.5 -61l21 78l93 5l-103 -389q-2 -5 -2 -8.5v-8.5q0 -14 7 -21t19 -7q19 0 38.5 16t52.5 67l16 -12q-17 -30 -31.5 -51.5t-30.5 -36.5t-34.5 -22t-42.5 -7q-39 0 -60 23.5t-21 59.5 q0 12 3 27q-24 -53 -66.5 -81.5t-89.5 -28.5q-35 0 -60 10t-40.5 28.5t-23.5 43.5t-8 54zM118 104q0 -30 16 -49.5t45 -19.5q31 0 57 16t47.5 42t38 58.5t28 67t17 67t5.5 57.5q0 37 -11.5 59t-47.5 22q-23 0 -46 -16t-44.5 -42t-41 -60t-33 -69t-22 -70t-8.5 -63zM209 527 l154 165h34l69 -165h-24l-88 77l-122 -77h-23z" />
<glyph unicode="&#xe3;" horiz-adv-x="537" d="M28 124q0 34 11 73t31 77.5t46.5 74t58.5 62.5t67.5 43.5t72.5 16.5q39 0 57.5 -25t18.5 -61l21 78l93 5l-103 -389q-2 -5 -2 -8.5v-8.5q0 -14 7 -21t19 -7q19 0 38.5 16t52.5 67l16 -12q-17 -30 -31.5 -51.5t-30.5 -36.5t-34.5 -22t-42.5 -7q-39 0 -60 23.5t-21 59.5 q0 12 3 27q-24 -53 -66.5 -81.5t-89.5 -28.5q-35 0 -60 10t-40.5 28.5t-23.5 43.5t-8 54zM118 104q0 -30 16 -49.5t45 -19.5q31 0 57 16t47.5 42t38 58.5t28 67t17 67t5.5 57.5q0 37 -11.5 59t-47.5 22q-23 0 -46 -16t-44.5 -42t-41 -60t-33 -69t-22 -70t-8.5 -63zM155 558 q15 34 39 60q20 23 49.5 41.5t69.5 18.5q31 0 48 -10t30.5 -22.5t26.5 -22.5t33 -10q26 0 45 9.5t33 22.5q15 13 28 31l15 -5q-14 -35 -37 -61q-19 -24 -48.5 -42.5t-70.5 -18.5q-32 0 -48.5 10.5t-29.5 22.5t-25.5 22.5t-37.5 10.5q-24 0 -42.5 -10.5t-33.5 -21.5 q-16 -14 -30 -32z" />
<glyph unicode="&#xe4;" horiz-adv-x="537" d="M28 124q0 34 11 73t31 77.5t46.5 74t58.5 62.5t67.5 43.5t72.5 16.5q39 0 57.5 -25t18.5 -61l21 78l93 5l-103 -389q-2 -5 -2 -8.5v-8.5q0 -14 7 -21t19 -7q19 0 38.5 16t52.5 67l16 -12q-17 -30 -31.5 -51.5t-30.5 -36.5t-34.5 -22t-42.5 -7q-39 0 -60 23.5t-21 59.5 q0 12 3 27q-24 -53 -66.5 -81.5t-89.5 -28.5q-35 0 -60 10t-40.5 28.5t-23.5 43.5t-8 54zM118 104q0 -30 16 -49.5t45 -19.5q31 0 57 16t47.5 42t38 58.5t28 67t17 67t5.5 57.5q0 37 -11.5 59t-47.5 22q-23 0 -46 -16t-44.5 -42t-41 -60t-33 -69t-22 -70t-8.5 -63zM239 606 q0 24 16 39.5t39 15.5q24 0 39.5 -15.5t15.5 -39.5t-16 -39.5t-39 -15.5t-39 15.5t-16 39.5zM409 606q0 24 16 39.5t39 15.5q24 0 39.5 -15.5t15.5 -39.5t-16 -39.5t-39 -15.5t-39 15.5t-16 39.5z" />
<glyph unicode="&#xe5;" horiz-adv-x="537" d="M28 124q0 34 11 73t31 77.5t46.5 74t58.5 62.5t67.5 43.5t72.5 16.5q39 0 57.5 -25t18.5 -61l21 78l93 5l-103 -389q-2 -5 -2 -8.5v-8.5q0 -14 7 -21t19 -7q19 0 38.5 16t52.5 67l16 -12q-17 -30 -31.5 -51.5t-30.5 -36.5t-34.5 -22t-42.5 -7q-39 0 -60 23.5t-21 59.5 q0 12 3 27q-24 -53 -66.5 -81.5t-89.5 -28.5q-35 0 -60 10t-40.5 28.5t-23.5 43.5t-8 54zM118 104q0 -30 16 -49.5t45 -19.5q31 0 57 16t47.5 42t38 58.5t28 67t17 67t5.5 57.5q0 37 -11.5 59t-47.5 22q-23 0 -46 -16t-44.5 -42t-41 -60t-33 -69t-22 -70t-8.5 -63zM269 637 q0 40 28 67.5t68 27.5t67.5 -27.5t27.5 -67.5t-27.5 -67.5t-67.5 -27.5t-68 27.5t-28 67.5zM320 637q0 -19 12.5 -32t32.5 -13q19 0 32 12.5t13 32.5q0 19 -13 32t-32 13t-32 -13t-13 -32z" />
<glyph unicode="&#xe6;" horiz-adv-x="776" d="M8 124q0 34 11 73t31 77.5t46.5 74t58.5 62.5t67.5 43.5t72.5 16.5q39 0 57.5 -25t18.5 -61l21 78l93 5l-10 -38q32 19 68.5 30t77.5 11q56 0 91.5 -23t35.5 -79q0 -28 -17 -57.5t-55 -56.5t-99.5 -47.5t-149.5 -28.5q-1 -9 -1.5 -18.5t-0.5 -18.5q0 -54 29.5 -80.5 t83.5 -26.5q46 0 82 22.5t66 63.5l20 -21q-38 -63 -91 -87.5t-109 -24.5q-71 0 -115.5 37t-57.5 99q-25 -40 -50 -66t-50 -41.5t-49 -22t-44 -6.5q-35 0 -60 10t-40.5 28.5t-23.5 43.5t-8 54zM98 104q0 -30 16 -49.5t45 -19.5q31 0 57 16t47.5 42t38 58.5t28 67t17 67 t5.5 57.5q0 37 -11.5 59t-47.5 22q-23 0 -46 -16t-44.5 -42t-41 -60t-33 -69t-22 -70t-8.5 -63zM432 206q69 10 113 29t69.5 41.5t35 46.5t9.5 46q0 30 -13 42.5t-39 12.5q-28 0 -55.5 -19t-51 -49.5t-41.5 -69.5t-27 -80z" />
<glyph unicode="&#xe7;" horiz-adv-x="463" d="M19 155q0 57 25 114t67 102t97.5 72.5t119.5 27.5q42 0 76 -13t58 -42q18 -25 18 -48q0 -29 -14.5 -47t-41.5 -18q-19 0 -30.5 12.5t-11.5 41.5q0 16 -2 28.5t-9 21t-20.5 13t-36.5 4.5q-44 0 -79.5 -26.5t-61 -66.5t-38.5 -87.5t-13 -90.5q0 -56 23 -87t74 -31 q54 0 100 25t89 71l12 -30q-39 -51 -95.5 -82t-118.5 -31h-15.5t-14.5 1l-31 -49q18 11 38.5 14.5t34.5 3.5q23 0 38 -9.5t15 -30.5q0 -26 -11 -44.5t-29 -31t-41 -18.5t-47 -6q-20 0 -40.5 4t-37.5 15l11 13q17 -7 31.5 -9.5t26.5 -2.5q27 0 49.5 15t22.5 46q0 24 -30 23 q-20 0 -39.5 -7.5t-36.5 -19.5h-9l45 101q-55 14 -86 54t-31 105z" />
<glyph unicode="&#xe8;" horiz-adv-x="463" d="M19 174q0 53 21.5 106.5t60.5 95.5t93 68.5t118 26.5q56 0 91.5 -23t35.5 -79q0 -28 -17 -57.5t-54.5 -56.5t-99 -47.5t-149.5 -28.5q-1 -9 -1.5 -18.5t-0.5 -18.5q0 -54 29.5 -80.5t82.5 -26.5q46 0 82.5 22.5t66.5 63.5l19 -21q-38 -63 -90.5 -87.5t-108.5 -24.5 q-42 0 -75.5 13.5t-56.5 38.5t-35 59t-12 75zM124 206q69 10 112.5 29t69.5 41.5t35.5 46.5t9.5 46q0 30 -13 42.5t-39 12.5q-28 0 -55.5 -19t-51 -49.5t-41.5 -69.5t-27 -80zM228 645q0 15 12 26t29 11q15 0 26.5 -5t27.5 -21l131 -138h-23l-161 73q-42 20 -42 54z" />
<glyph unicode="&#xe9;" horiz-adv-x="463" d="M19 174q0 53 21.5 106.5t60.5 95.5t93 68.5t118 26.5q56 0 91.5 -23t35.5 -79q0 -28 -17 -57.5t-54.5 -56.5t-99 -47.5t-149.5 -28.5q-1 -9 -1.5 -18.5t-0.5 -18.5q0 -54 29.5 -80.5t82.5 -26.5q46 0 82.5 22.5t66.5 63.5l19 -21q-38 -63 -90.5 -87.5t-108.5 -24.5 q-42 0 -75.5 13.5t-56.5 38.5t-35 59t-12 75zM124 206q69 10 112.5 29t69.5 41.5t35.5 46.5t9.5 46q0 30 -13 42.5t-39 12.5q-28 0 -55.5 -19t-51 -49.5t-41.5 -69.5t-27 -80zM205 518l131 138q16 16 27.5 21t26.5 5q17 0 29 -11t12 -26q0 -33 -42 -54l-160 -73h-24z" />
<glyph unicode="&#xea;" horiz-adv-x="463" d="M19 174q0 53 21.5 106.5t60.5 95.5t93 68.5t118 26.5q56 0 91.5 -23t35.5 -79q0 -28 -17 -57.5t-54.5 -56.5t-99 -47.5t-149.5 -28.5q-1 -9 -1.5 -18.5t-0.5 -18.5q0 -54 29.5 -80.5t82.5 -26.5q46 0 82.5 22.5t66.5 63.5l19 -21q-38 -63 -90.5 -87.5t-108.5 -24.5 q-42 0 -75.5 13.5t-56.5 38.5t-35 59t-12 75zM124 206q69 10 112.5 29t69.5 41.5t35.5 46.5t9.5 46q0 30 -13 42.5t-39 12.5q-28 0 -55.5 -19t-51 -49.5t-41.5 -69.5t-27 -80zM198 527l154 165h34l69 -165h-24l-88 77l-122 -77h-23z" />
<glyph unicode="&#xeb;" horiz-adv-x="463" d="M19 174q0 53 21.5 106.5t60.5 95.5t93 68.5t118 26.5q56 0 91.5 -23t35.5 -79q0 -28 -17 -57.5t-54.5 -56.5t-99 -47.5t-149.5 -28.5q-1 -9 -1.5 -18.5t-0.5 -18.5q0 -54 29.5 -80.5t82.5 -26.5q46 0 82.5 22.5t66.5 63.5l19 -21q-38 -63 -90.5 -87.5t-108.5 -24.5 q-42 0 -75.5 13.5t-56.5 38.5t-35 59t-12 75zM124 206q69 10 112.5 29t69.5 41.5t35.5 46.5t9.5 46q0 30 -13 42.5t-39 12.5q-28 0 -55.5 -19t-51 -49.5t-41.5 -69.5t-27 -80zM213 606q0 24 16 39.5t39 15.5q24 0 39.5 -15.5t15.5 -39.5t-16 -39.5t-39 -15.5t-39 15.5 t-16 39.5zM383 606q0 24 16 39.5t39 15.5q24 0 39.5 -15.5t15.5 -39.5t-16 -39.5t-39 -15.5t-39 15.5t-16 39.5z" />
<glyph unicode="&#xec;" horiz-adv-x="312" d="M41 67q0 15 5 35l82 302l-48 26v7l162 43l-108 -401q-3 -9 -3 -18q0 -13 7.5 -19t19.5 -6q10 0 19 3t19.5 11.5t23 24.5t29.5 42l16 -12q-17 -30 -31.5 -51.5t-30.5 -36.5t-34 -22t-43 -7q-42 0 -63.5 21.5t-21.5 57.5zM75 645q0 15 12 26t29 11q15 0 26.5 -5t27.5 -21 l131 -138h-23l-161 73q-42 20 -42 54z" />
<glyph unicode="&#xed;" horiz-adv-x="312" d="M41 67q0 15 5 35l82 302l-48 26v7l162 43l-108 -401q-3 -9 -3 -18q0 -13 7.5 -19t19.5 -6q10 0 19 3t19.5 11.5t23 24.5t29.5 42l16 -12q-17 -30 -31.5 -51.5t-30.5 -36.5t-34 -22t-43 -7q-42 0 -63.5 21.5t-21.5 57.5zM98 518l131 138q16 16 27.5 21t26.5 5q17 0 29 -11 t12 -26q0 -33 -42 -54l-160 -73h-24z" />
<glyph unicode="&#xee;" horiz-adv-x="312" d="M41 67q0 15 5 35l82 302l-48 26v7l162 43l-108 -401q-3 -9 -3 -18q0 -13 7.5 -19t19.5 -6q10 0 19 3t19.5 11.5t23 24.5t29.5 42l16 -12q-17 -30 -31.5 -51.5t-30.5 -36.5t-34 -22t-43 -7q-42 0 -63.5 21.5t-21.5 57.5zM70 527l154 165h34l69 -165h-24l-88 77l-122 -77 h-23z" />
<glyph unicode="&#xef;" horiz-adv-x="312" d="M41 67q0 15 5 35l82 302l-48 26v7l162 43l-108 -401q-3 -9 -3 -18q0 -13 7.5 -19t19.5 -6q10 0 19 3t19.5 11.5t23 24.5t29.5 42l16 -12q-17 -30 -31.5 -51.5t-30.5 -36.5t-34 -22t-43 -7q-42 0 -63.5 21.5t-21.5 57.5zM63 606q0 24 16 39.5t39 15.5q24 0 39.5 -15.5 t15.5 -39.5t-16 -39.5t-39 -15.5t-39 15.5t-16 39.5zM233 606q0 24 16 39.5t39 15.5q24 0 39.5 -15.5t15.5 -39.5t-16 -39.5t-39 -15.5t-39 15.5t-16 39.5z" />
<glyph unicode="&#xf0;" d="M19 168q0 61 26.5 116t70.5 96.5t101 66t120 24.5q30 0 56.5 -7.5t48.5 -22.5q-2 43 -12 79.5t-30 70.5l-219 -66l-2 34l204 61q-19 28 -44.5 55t-56.5 57h30q34 -26 63 -50.5t53 -48.5l164 49l2 -34l-141 -42q43 -51 64.5 -113t21.5 -128q0 -72 -22 -140t-64.5 -121 t-104 -84.5t-141.5 -31.5q-42 0 -76.5 12.5t-59 35.5t-38.5 56.5t-14 75.5zM122 143q0 -49 22.5 -78.5t75.5 -29.5q50 0 87.5 28.5t63 71t38.5 91t13 88.5q0 49 -22 79.5t-76 30.5q-49 0 -87 -29t-64 -71.5t-38.5 -91.5t-12.5 -89z" />
<glyph unicode="&#xf1;" horiz-adv-x="567" d="M-29 0v7l54 33l98 364l-48 27v7l162 42l-39 -151q15 26 37 51.5t48.5 45.5t56 32.5t56.5 12.5q47 0 67.5 -21.5t20.5 -59.5q0 -14 -2.5 -30.5t-7.5 -33.5l-66 -247q-3 -9 -4 -18q0 -13 8 -19t19 -6q10 0 19.5 3t19.5 11.5t23 24.5t29 42l17 -12q-17 -30 -31.5 -51.5 t-30.5 -36.5t-34.5 -22t-43.5 -7q-42 0 -63.5 21.5t-21.5 57.5q0 15 5 35l61 224q6 25 6 42q0 25 -13.5 34t-38.5 9q-24 0 -49.5 -18.5t-49 -48t-43 -66.5t-29.5 -74l-44 -164l46 -33v-7h-194zM153 558q15 34 39 60q20 23 49.5 41.5t69.5 18.5q31 0 48 -10t30.5 -22.5 t26.5 -22.5t33 -10q26 0 45 9.5t33 22.5q15 13 28 31l15 -5q-14 -35 -37 -61q-19 -24 -48.5 -42.5t-70.5 -18.5q-32 0 -48.5 10.5t-29.5 22.5t-25.5 22.5t-37.5 10.5q-24 0 -42.5 -10.5t-33.5 -21.5q-16 -14 -30 -32z" />
<glyph unicode="&#xf2;" d="M19 168q0 61 28 116t73 96.5t102 66t115 24.5q40 0 74.5 -14t60 -38.5t39.5 -57.5t14 -73q0 -60 -28 -114.5t-73.5 -96t-102.5 -65.5t-114 -24q-42 0 -76.5 13.5t-59 37.5t-38.5 57t-14 72zM122 143q0 -49 22.5 -78.5t75.5 -29.5q50 0 87.5 28.5t63 71t38.5 91t13 88.5 q0 49 -22 79.5t-76 30.5q-49 0 -87 -29t-64 -71.5t-38.5 -91.5t-12.5 -89zM257 645q0 15 12 26t29 11q15 0 26.5 -5t27.5 -21l131 -138h-23l-161 73q-42 20 -42 54z" />
<glyph unicode="&#xf3;" d="M19 168q0 61 28 116t73 96.5t102 66t115 24.5q40 0 74.5 -14t60 -38.5t39.5 -57.5t14 -73q0 -60 -28 -114.5t-73.5 -96t-102.5 -65.5t-114 -24q-42 0 -76.5 13.5t-59 37.5t-38.5 57t-14 72zM122 143q0 -49 22.5 -78.5t75.5 -29.5q50 0 87.5 28.5t63 71t38.5 91t13 88.5 q0 49 -22 79.5t-76 30.5q-49 0 -87 -29t-64 -71.5t-38.5 -91.5t-12.5 -89zM247 518l131 138q16 16 27.5 21t26.5 5q17 0 29 -11t12 -26q0 -33 -42 -54l-160 -73h-24z" />
<glyph unicode="&#xf4;" d="M19 168q0 61 28 116t73 96.5t102 66t115 24.5q40 0 74.5 -14t60 -38.5t39.5 -57.5t14 -73q0 -60 -28 -114.5t-73.5 -96t-102.5 -65.5t-114 -24q-42 0 -76.5 13.5t-59 37.5t-38.5 57t-14 72zM122 143q0 -49 22.5 -78.5t75.5 -29.5q50 0 87.5 28.5t63 71t38.5 91t13 88.5 q0 49 -22 79.5t-76 30.5q-49 0 -87 -29t-64 -71.5t-38.5 -91.5t-12.5 -89zM237 527l154 165h34l69 -165h-24l-88 77l-122 -77h-23z" />
<glyph unicode="&#xf5;" d="M19 168q0 61 28 116t73 96.5t102 66t115 24.5q40 0 74.5 -14t60 -38.5t39.5 -57.5t14 -73q0 -60 -28 -114.5t-73.5 -96t-102.5 -65.5t-114 -24q-42 0 -76.5 13.5t-59 37.5t-38.5 57t-14 72zM122 143q0 -49 22.5 -78.5t75.5 -29.5q50 0 87.5 28.5t63 71t38.5 91t13 88.5 q0 49 -22 79.5t-76 30.5q-49 0 -87 -29t-64 -71.5t-38.5 -91.5t-12.5 -89zM169 558q15 34 39 60q20 23 49.5 41.5t69.5 18.5q31 0 48 -10t30.5 -22.5t26.5 -22.5t33 -10q26 0 45 9.5t33 22.5q15 13 28 31l15 -5q-14 -35 -37 -61q-19 -24 -48.5 -42.5t-70.5 -18.5 q-32 0 -48.5 10.5t-29.5 22.5t-25.5 22.5t-37.5 10.5q-24 0 -42.5 -10.5t-33.5 -21.5q-16 -14 -30 -32z" />
<glyph unicode="&#xf6;" d="M19 168q0 61 28 116t73 96.5t102 66t115 24.5q40 0 74.5 -14t60 -38.5t39.5 -57.5t14 -73q0 -60 -28 -114.5t-73.5 -96t-102.5 -65.5t-114 -24q-42 0 -76.5 13.5t-59 37.5t-38.5 57t-14 72zM122 143q0 -49 22.5 -78.5t75.5 -29.5q50 0 87.5 28.5t63 71t38.5 91t13 88.5 q0 49 -22 79.5t-76 30.5q-49 0 -87 -29t-64 -71.5t-38.5 -91.5t-12.5 -89zM236 606q0 24 16 39.5t39 15.5q24 0 39.5 -15.5t15.5 -39.5t-16 -39.5t-39 -15.5t-39 15.5t-16 39.5zM406 606q0 24 16 39.5t39 15.5q24 0 39.5 -15.5t15.5 -39.5t-16 -39.5t-39 -15.5t-39 15.5 t-16 39.5z" />
<glyph unicode="&#xf7;" horiz-adv-x="522" d="M83 279v51h356v-51h-356zM198 131q0 26 18 45t45 19q26 0 45 -19t19 -45q0 -27 -19 -45t-45 -18q-27 0 -45 18t-18 45zM198 479q0 26 18 45t45 19q26 0 45 -19t19 -45q0 -27 -19 -45t-45 -18q-27 0 -45 18t-18 45z" />
<glyph unicode="&#xf8;" d="M19 168q0 61 28 116t73 96.5t102 66t115 24.5q32 0 59 -8.5t50 -24.5l29 29l34 -36l-26 -25q20 -24 31 -53.5t11 -64.5q0 -60 -28 -114.5t-73.5 -96t-102.5 -65.5t-114 -24q-33 0 -60 8t-51 22l-26 -26l-35 36l24 24q-40 48 -40 116zM122 129q0 -6 2 -13l276 276 q-23 32 -76 32q-49 0 -87 -29t-64 -71.5t-38.5 -91.5t-12.5 -89v-14zM143 66q25 -31 77 -31q50 0 87.5 28.5t63 71t38.5 91t13 88.5q0 7 -0.5 14t-1.5 14z" />
<glyph unicode="&#xf9;" horiz-adv-x="551" d="M33 72q0 28 9 61l73 271l-48 27v7l161 42l-92 -347q-3 -13 -5 -24t-2 -19q0 -24 12.5 -33t32.5 -9q24 0 49.5 16t48 41.5t40.5 58.5t27 67l60 228l97 5l-104 -385q-2 -5 -2 -8.5v-8.5q0 -14 7 -21t19 -7q19 0 38.5 16t52.5 67l16 -12q-17 -30 -31.5 -51.5t-30.5 -36.5 t-34 -22t-43 -7q-38 0 -59 30t-21 75v16q-33 -52 -83 -86.5t-109 -34.5q-40 0 -59.5 22.5t-19.5 61.5zM219 645q0 15 12 26t29 11q15 0 26.5 -5t27.5 -21l131 -138h-23l-161 73q-42 20 -42 54z" />
<glyph unicode="&#xfa;" horiz-adv-x="551" d="M33 72q0 28 9 61l73 271l-48 27v7l161 42l-92 -347q-3 -13 -5 -24t-2 -19q0 -24 12.5 -33t32.5 -9q24 0 49.5 16t48 41.5t40.5 58.5t27 67l60 228l97 5l-104 -385q-2 -5 -2 -8.5v-8.5q0 -14 7 -21t19 -7q19 0 38.5 16t52.5 67l16 -12q-17 -30 -31.5 -51.5t-30.5 -36.5 t-34 -22t-43 -7q-38 0 -59 30t-21 75v16q-33 -52 -83 -86.5t-109 -34.5q-40 0 -59.5 22.5t-19.5 61.5zM242 518l131 138q16 16 27.5 21t26.5 5q17 0 29 -11t12 -26q0 -33 -42 -54l-160 -73h-24z" />
<glyph unicode="&#xfb;" horiz-adv-x="551" d="M33 72q0 28 9 61l73 271l-48 27v7l161 42l-92 -347q-3 -13 -5 -24t-2 -19q0 -24 12.5 -33t32.5 -9q24 0 49.5 16t48 41.5t40.5 58.5t27 67l60 228l97 5l-104 -385q-2 -5 -2 -8.5v-8.5q0 -14 7 -21t19 -7q19 0 38.5 16t52.5 67l16 -12q-17 -30 -31.5 -51.5t-30.5 -36.5 t-34 -22t-43 -7q-38 0 -59 30t-21 75v16q-33 -52 -83 -86.5t-109 -34.5q-40 0 -59.5 22.5t-19.5 61.5zM192 527l154 165h34l69 -165h-24l-88 77l-122 -77h-23z" />
<glyph unicode="&#xfc;" horiz-adv-x="551" d="M33 72q0 28 9 61l73 271l-48 27v7l161 42l-92 -347q-3 -13 -5 -24t-2 -19q0 -24 12.5 -33t32.5 -9q24 0 49.5 16t48 41.5t40.5 58.5t27 67l60 228l97 5l-104 -385q-2 -5 -2 -8.5v-8.5q0 -14 7 -21t19 -7q19 0 38.5 16t52.5 67l16 -12q-17 -30 -31.5 -51.5t-30.5 -36.5 t-34 -22t-43 -7q-38 0 -59 30t-21 75v16q-33 -52 -83 -86.5t-109 -34.5q-40 0 -59.5 22.5t-19.5 61.5zM209 606q0 24 16 39.5t39 15.5q24 0 39.5 -15.5t15.5 -39.5t-16 -39.5t-39 -15.5t-39 15.5t-16 39.5zM379 606q0 24 16 39.5t39 15.5q24 0 39.5 -15.5t15.5 -39.5 t-16 -39.5t-39 -15.5t-39 15.5t-16 39.5z" />
<glyph unicode="&#xfd;" horiz-adv-x="411" d="M-108 -247q0 17 12.5 32t37.5 19q22 4 36 8t24 9t18.5 13.5t17.5 22.5l96 153l-46 394l-48 27v7l135 37l38 -316l4 -23l13 27l93 147q8 13 14 26.5t6 27.5t-6 21.5t-20 17.5q-22 16 -21 37q0 15 11.5 26t31.5 11q29 0 46 -31q12 -22 12 -45q0 -25 -8 -47t-25 -49 l-311 -498q-25 -34 -42.5 -52.5t-32.5 -28.5t-26.5 -12t-23.5 -2q-18 0 -27 13.5t-9 27.5zM171 537l131 138q16 16 27.5 21t26.5 5q17 0 29 -11t12 -26q0 -33 -42 -54l-160 -73h-24z" />
<glyph unicode="&#xfe;" d="M-89 -268l53 32l250 934l-47 27v7l162 42l-114 -426q12 24 31 46.5t41.5 39.5t47 27t49.5 10q77 0 111.5 -42.5t34.5 -119.5q0 -58 -20.5 -115.5t-58 -103.5t-92 -74t-121.5 -28q-35 0 -63 18t-39 48l-78 -290l46 -32v-7h-193v7zM155 103q0 -36 21 -52t51 -16 q51 0 89.5 29.5t64.5 74t38.5 96.5t12.5 96q0 45 -17 69t-56 24q-28 0 -54.5 -17.5t-50.5 -45t-42 -61.5t-28 -68l-19 -70q-6 -25 -8 -38.5t-2 -20.5z" />
<glyph unicode="&#xff;" horiz-adv-x="411" d="M-108 -247q0 17 12.5 32t37.5 19q22 4 36 8t24 9t18.5 13.5t17.5 22.5l96 153l-46 394l-48 27v7l135 37l38 -316l4 -23l13 27l93 147q8 13 14 26.5t6 27.5t-6 21.5t-20 17.5q-22 16 -21 37q0 15 11.5 26t31.5 11q29 0 46 -31q12 -22 12 -45q0 -25 -8 -47t-25 -49 l-311 -498q-25 -34 -42.5 -52.5t-32.5 -28.5t-26.5 -12t-23.5 -2q-18 0 -27 13.5t-9 27.5zM154 606q0 24 16 39.5t39 15.5q24 0 39.5 -15.5t15.5 -39.5t-16 -39.5t-39 -15.5t-39 15.5t-16 39.5zM324 606q0 24 16 39.5t39 15.5q24 0 39.5 -15.5t15.5 -39.5t-16 -39.5 t-39 -15.5t-39 15.5t-16 39.5z" />
<glyph unicode="&#x152;" horiz-adv-x="1110" d="M56 257q0 89 37 176.5t100.5 156.5t150 111.5t185.5 42.5q51 0 87 -12h499l-26 -150h-8l-41 99h-248l-10 -7l-71 -250l5 -7h221l51 59h6l-48 -169h-6l-18 59h-222l-9 -8l-86 -300l5 -7h258l132 114h8l-73 -165h-527q-43 -12 -95 -12q-61 0 -108.5 19t-80.5 53.5t-50.5 85 t-17.5 111.5zM170 213q0 -77 37.5 -125.5t120.5 -48.5q50 0 85.5 15t65 54.5t56.5 110.5t61 182q19 66 29.5 115t10.5 84q0 52 -27.5 72.5t-93.5 20.5q-55 0 -101.5 -22.5t-85 -60t-68.5 -86.5t-50 -102t-30 -107.5t-10 -101.5z" />
<glyph unicode="&#x153;" horiz-adv-x="857" d="M19 168q0 61 28 116t73 96.5t102 66t115 24.5q53 0 95.5 -23.5t66.5 -63.5q39 39 90.5 63t112.5 24q56 0 91.5 -23t35.5 -79q0 -28 -16.5 -57.5t-54.5 -56.5t-99.5 -47.5t-149.5 -28.5q-1 -9 -1.5 -18.5t-0.5 -18.5q0 -54 29.5 -80.5t83.5 -26.5q46 0 82 22.5t66 63.5 l19 -21q-38 -63 -90.5 -87.5t-108.5 -24.5q-58 0 -98.5 25.5t-61.5 68.5q-46 -43 -104.5 -68.5t-116.5 -25.5q-42 0 -76.5 13.5t-59 37.5t-38.5 57t-14 72zM122 143q0 -49 22.5 -78.5t75.5 -29.5q50 0 87.5 28.5t63 71t38.5 91t13 88.5q0 49 -22 79.5t-76 30.5 q-49 0 -87 -29t-64 -71.5t-38.5 -91.5t-12.5 -89zM514 206q69 10 113 29t69.5 41.5t35 46.5t9.5 46q0 30 -13 42.5t-39 12.5q-28 0 -55.5 -19t-51 -49.5t-41.5 -69.5t-27 -80z" />
<glyph unicode="&#x178;" horiz-adv-x="636" d="M97 725l2 7h262l-2 -7l-75 -51l83 -232l-3 -61l29 58l208 235l-55 51l2 7h202l-2 -7l-76 -51l-275 -302l-90 -314l55 -51v-7h-238v7l76 51l76 267l-123 349zM348 879q0 24 16 39.5t39 15.5q24 0 39.5 -15.5t15.5 -39.5t-16 -39.5t-39 -15.5t-39 15.5t-16 39.5zM518 879 q0 24 16 39.5t39 15.5q24 0 39.5 -15.5t15.5 -39.5t-16 -39.5t-39 -15.5t-39 15.5t-16 39.5z" />
<glyph unicode="&#x2c6;" horiz-adv-x="337" d="M69 567l154 165h34l69 -165h-24l-88 77l-122 -77h-23z" />
<glyph unicode="&#x2dc;" horiz-adv-x="337" d="M49 577q15 34 39 60q20 23 49.5 41.5t69.5 18.5q31 0 48 -10t30.5 -22.5t26.5 -22.5t33 -10q26 0 45 9.5t33 22.5q15 13 28 31l15 -5q-14 -35 -37 -61q-19 -24 -48.5 -42.5t-70.5 -18.5q-32 0 -48.5 10.5t-29.5 22.5t-25.5 22.5t-37.5 10.5q-24 0 -42.5 -10.5 t-33.5 -21.5q-16 -14 -30 -32z" />
<glyph unicode="&#x2000;" horiz-adv-x="497" />
<glyph unicode="&#x2001;" horiz-adv-x="995" />
<glyph unicode="&#x2002;" horiz-adv-x="497" />
<glyph unicode="&#x2003;" horiz-adv-x="995" />
<glyph unicode="&#x2004;" horiz-adv-x="331" />
<glyph unicode="&#x2005;" horiz-adv-x="248" />
<glyph unicode="&#x2006;" horiz-adv-x="165" />
<glyph unicode="&#x2007;" horiz-adv-x="165" />
<glyph unicode="&#x2008;" horiz-adv-x="124" />
<glyph unicode="&#x2009;" horiz-adv-x="199" />
<glyph unicode="&#x200a;" horiz-adv-x="55" />
<glyph unicode="&#x2010;" horiz-adv-x="474" d="M51 298l14 51h356l-13 -51h-357z" />
<glyph unicode="&#x2011;" horiz-adv-x="474" d="M51 298l14 51h356l-13 -51h-357z" />
<glyph unicode="&#x2012;" horiz-adv-x="474" d="M51 298l14 51h356l-13 -51h-357z" />
<glyph unicode="&#x2013;" horiz-adv-x="537" d="M0 298l13 51h525l-14 -51h-524z" />
<glyph unicode="&#x2014;" horiz-adv-x="852" d="M0 298l12 51h841l-13 -51h-840z" />
<glyph unicode="&#x2018;" horiz-adv-x="355" d="M123 531q0 34 12 64.5t32.5 55.5t49 45.5t61.5 35.5l6 -16q-9 -6 -23.5 -16t-28 -21t-22.5 -24.5t-9 -25.5q0 -13 8.5 -22t17.5 -16q28 -21 28 -45q0 -33 -22.5 -53t-53.5 -20q-29 0 -42.5 16t-13.5 42z" />
<glyph unicode="&#x2019;" horiz-adv-x="354" d="M72 495q38 20 60.5 38t22.5 44q0 13 -9 21.5t-18 15.5q-28 22 -28 50q0 29 20 48.5t54 19.5q30 0 43.5 -18.5t13.5 -42.5q0 -67 -37.5 -114.5t-119.5 -82.5z" />
<glyph unicode="&#x201a;" horiz-adv-x="354" d="M72 -120q38 20 60.5 38.5t22.5 43.5q0 13 -9 22t-18 16q-28 21 -28 49q0 29 20 49t54 20q30 0 43.5 -18.5t13.5 -43.5q0 -67 -37.5 -114t-119.5 -82z" />
<glyph unicode="&#x201c;" horiz-adv-x="524" d="M123 531q0 34 12 64.5t32.5 55.5t49 45.5t61.5 35.5l6 -16q-9 -6 -23.5 -16t-28 -21t-22.5 -24.5t-9 -25.5q0 -13 8.5 -22t17.5 -16q28 -21 28 -45q0 -33 -22.5 -53t-53.5 -20q-29 0 -42.5 16t-13.5 42zM292 531q0 34 12 64.5t32.5 55.5t49 45.5t60.5 35.5l7 -16 q-9 -6 -23.5 -16t-28 -21t-22.5 -24.5t-9 -25.5q0 -13 8.5 -22t17.5 -16q28 -21 28 -45q0 -33 -22.5 -53t-53.5 -20q-29 0 -42.5 16t-13.5 42z" />
<glyph unicode="&#x201d;" horiz-adv-x="523" d="M72 495q38 20 60.5 38t22.5 44q0 13 -9 21.5t-18 15.5q-28 22 -28 50q0 29 20 48.5t54 19.5q30 0 43.5 -18.5t13.5 -42.5q0 -67 -37.5 -114.5t-119.5 -82.5zM241 495q38 20 60.5 38t22.5 44q0 13 -9 21.5t-18 15.5q-28 22 -28 50q0 29 20 48.5t54 19.5q30 0 43.5 -18.5 t13.5 -42.5q0 -67 -37.5 -114.5t-119.5 -82.5z" />
<glyph unicode="&#x201e;" horiz-adv-x="523" d="M72 -120q38 20 60.5 38.5t22.5 43.5q0 13 -9 22t-18 16q-28 21 -28 49q0 29 20 49t54 20q30 0 43.5 -18.5t13.5 -43.5q0 -67 -37.5 -114t-119.5 -82zM241 -120q38 20 60.5 38.5t22.5 43.5q0 13 -9 22t-18 16q-28 21 -28 49q0 29 20 49t54 20q30 0 43.5 -18.5t13.5 -43.5 q0 -67 -37.5 -114t-119.5 -82z" />
<glyph unicode="&#x2022;" horiz-adv-x="282" d="M41 307q0 42 29 71.5t71 29.5t71.5 -29.5t29.5 -71.5t-29.5 -71t-71.5 -29t-71 29t-29 71z" />
<glyph unicode="&#x2026;" horiz-adv-x="700" d="M2 54q0 27 19.5 47t47.5 20q27 0 46.5 -20t19.5 -47q0 -28 -20 -47t-46 -19q-28 0 -47.5 19t-19.5 47zM227 54q0 27 19.5 47t47.5 20q27 0 46.5 -20t19.5 -47q0 -28 -19.5 -47t-46.5 -19q-28 0 -47.5 19t-19.5 47zM453 54q0 27 19.5 47t46.5 20t47 -20t20 -47 q0 -28 -20 -47t-47 -19q-28 0 -47 19t-19 47z" />
<glyph unicode="&#x202f;" horiz-adv-x="199" />
<glyph unicode="&#x2039;" horiz-adv-x="335" d="M41 251v18l249 251v-86l-169 -174l169 -174v-86z" />
<glyph unicode="&#x203a;" horiz-adv-x="335" d="M46 0v86l169 174l-169 174v86l249 -251v-18z" />
<glyph unicode="&#x205f;" horiz-adv-x="248" />
<glyph unicode="&#x20ac;" horiz-adv-x="563" d="M-46 276l33 54h69l11 37q2 9 5 18.5t6 18.5h-87l32 54h75q29 68 68.5 121t85.5 90t96 56t101 19q53 0 91 -17t60 -48l-36 -127h-14q-4 76 -34 108.5t-82 32.5q-74 0 -132.5 -63.5t-101.5 -171.5h230l-33 -54h-216q-3 -9 -6 -18.5t-5 -18.5q-3 -10 -5.5 -19.5t-4.5 -17.5 h193l-32 -54h-174q-7 -42 -7 -82q0 -77 28.5 -116t78.5 -39q35 0 64.5 11t56 32.5t53 53t55.5 71.5l17 -11q-26 -45 -52 -83t-56.5 -66t-67.5 -43.5t-85 -15.5q-93 0 -142 57t-49 161q0 17 1 34.5t4 35.5h-92z" />
<glyph unicode="&#x2122;" horiz-adv-x="881" d="M125 649l11 83h281l11 -83h-7l-43 49h-68l-3 -4v-250l30 -17v-8h-120v8l29 17v250l-3 4h-66l-45 -49h-7zM451 419v8l29 17v263l-29 18v7h106l93 -230l6 -29l4 23l95 236h101v-7l-30 -18v-263l30 -17v-8h-118v8l30 17v242l-5 -20l-98 -247h-48l-97 238l-5 29v-242l29 -17 v-8h-93z" />
<glyph unicode="&#x25fc;" horiz-adv-x="471" d="M0 0v471h471v-471h-471z" />
</font>
</defs>
</svg>
