<?xml version="1.0" encoding="UTF-8"?>
<svg width="208px" height="121px" viewBox="0 0 208 121" version="1.1" xmlns="http://www.w3.org/2000/svg" xmlns:xlink="http://www.w3.org/1999/xlink">
    <!-- Generator: Sketch 61 (89581) - https://sketch.com -->
    <title>atom/icons/logo/icon</title>
    <desc>Created with Sketch.</desc>
    <g id="atom/icons/logo/icon" stroke="none" stroke-width="1" fill="none" fill-rule="evenodd">
        <path d="M104,62.855386 L81.7777571,31.512756 L104,0.004114 L126.222243,31.512756 L104,62.855386 Z M208,121 C206.505306,102.722708 198.873063,84.054586 190.635452,71.390484 C179.670658,54.534458 168.110887,39.912334 168.110887,22.770748 C168.110887,11.361416 173.757857,1.25598 174.379418,0.098252 C165.659444,0.08591 104.249639,0 104.0029,0 L104,0 C103.999758,0 103.9971,0 103.9971,0 C103.750602,0 42.3405562,0.08591 33.6203407,0.098252 C34.242143,1.25598 39.8888716,11.361416 39.8888716,22.770748 C39.8888716,39.912334 28.7689294,54.829698 17.3645483,71.390484 C9.41258374,82.938482 1.49445218,102.722708 0,121 L52.6639727,121 C51.0588383,115.893316 50.1893301,110.460658 50.1893301,104.823026 C50.1893301,91.771482 54.8309767,79.808454 62.5492519,70.49218 L97.9644335,121 L110.035566,121 L145.450748,70.49218 C153.169023,79.808454 157.81067,91.771482 157.81067,104.823026 C157.81067,110.460658 156.941162,115.893316 155.336027,121 L208,121 L208,121 Z" id="Fill-1" fill="#000000"></path>
    </g>
</svg>