<svg version="1.0" xmlns="http://www.w3.org/2000/svg" width="346.67" height="346.67" viewBox="0 0 260 260"><path d="M58 67.4c0 .2 1.1 3.3 2.5 6.9 6.8 18.2 3.1 33.1-15 59.7-8.7 12.7-13.5 21.9-17 32.5-2.9 8.4-6.5 25.2-5.7 26 .3.3 12.6.5 27.4.5 25.8 0 26.9-.1 26.3-1.9-2.7-8.6-2-25 1.4-34.1 2.5-6.6 7.8-16 9-16 .5 0 9 11.7 19 26l18.2 26h11.8l18.2-26c10-14.3 18.5-26 19-26 1.2 0 6.5 9.4 9 16 3.4 9.1 4.1 25.5 1.4 34.1-.6 1.8.5 1.9 26.3 1.9 14.8 0 27.1-.2 27.4-.5.8-.8-2.7-17.1-5.2-24.6-3.7-11.1-8.6-20.4-18-34.9-18.2-28-21.3-40.5-14.4-58.8 1.3-3.5 2.4-6.6 2.4-6.8 0-.2-32.4-.4-72-.4s-72 .2-72 .4zM141.8 84L153 99.9l-11.3 16c-6.1 8.8-11.4 16-11.7 16-.3 0-5.6-7.2-11.7-16l-11.3-16L118.2 84c6.2-8.8 11.5-16 11.8-16 .3 0 5.6 7.2 11.8 16z"/></svg>