<?xml version="1.0" encoding="UTF-8" standalone="no"?>
<svg width="51px" height="38px" viewBox="0 0 51 38" version="1.1" xmlns="http://www.w3.org/2000/svg" xmlns:xlink="http://www.w3.org/1999/xlink">
    <!-- Generator: sketchtool 3.8.3 (29802) - http://www.bohemiancoding.com/sketch -->
    <title>E53D8C39-D7B0-4BBB-9620-7E1C46AC2C19</title>
    <desc>Created with sketchtool.</desc>
    <defs></defs>
    <g id="Information-Pages" stroke="none" stroke-width="1" fill="none" fill-rule="evenodd">
        <g id="ContactUs" transform="translate(-207.000000, -511.000000)" stroke-width="2" stroke="#40CBAC">
            <g id="thin-0319_email_mail_post_card" transform="translate(208.000000, 512.000000)">
                <g id="Group">
                    <path d="M43.1809412,4.99828235 L26.3943529,20.0922353 C25.1233412,21.2351294 23.1126353,21.2351294 21.8416235,20.0922353 L5.05524706,4.99828235" id="Shape"></path>
                    <path d="M31.9362353,21.6542118 L43.1813647,31.0080706" id="Shape"></path>
                    <path d="M16.3010118,21.6542118 L5.05567059,31.0080706" id="Shape"></path>
                    <path d="M0,4.85110588 L0,31.1554588 C0,33.8321647 2.17058824,36 4.96016471,36 L43.7300471,36 C46.5192,36 48.7056706,33.8321647 48.7056706,31.1552471 L48.7056706,4.85110588 C48.7058824,2.17397647 46.5194118,0 43.7302588,0 L4.96016471,0 C2.17058824,0 0,2.17397647 0,4.85110588 L0,4.85110588 Z" id="Shape"></path>
                </g>
            </g>
        </g>
    </g>
</svg>