<svg width="26" height="26" viewBox="0 0 26 26" xmlns="http://www.w3.org/2000/svg"><g fill="#E8A50C" fill-rule="evenodd"><path d="M12.92.127l-.226.002C9.291.19 6.088 1.57 3.676 4.016 1.248 6.479-.057 9.705.002 13.1c.121 7.025 5.606 12.528 12.487 12.528l.224-.002c7.121-.125 12.815-5.943 12.694-12.97C25.284 5.63 19.8.127 12.92.127zm-.226 24.39l-.205.002c-6.272 0-11.272-5.024-11.383-11.439-.053-3.093 1.139-6.035 3.356-8.285C6.67 2.555 9.6 1.292 12.713 1.238l.207-.002c6.271 0 11.27 5.024 11.382 11.44.11 6.415-5.096 11.728-11.608 11.842z"/><path d="M12.704 15.092a.553.553 0 0 0 .552-.554v-7.76a.553.553 0 1 0-1.104 0v7.76c0 .306.247.554.552.554M12.705 17.31h-.02c-.61.01-1.096.515-1.086 1.127.01.607.504 1.09 1.105 1.09h.02a1.108 1.108 0 0 0-.02-2.217"/></g></svg>
