<svg xmlns="http://www.w3.org/2000/svg" viewBox="0 0 88 88"><path d="M29 65.47H4V22.15h25zM5.79 63.72H27.3V23.89H5.79zM39.37 75h-29.3a6 6 0 0 1-6-6v-1.28H45.4v1.23A6 6 0 0 1 39.37 75zM5.82 69.46a4.29 4.29 0 0 0 4.25 3.76h29.3a4.29 4.29 0 0 0 4.25-3.76zM58.1 67.21h-10V20.4h31.77A4.11 4.11 0 0 1 84 24.5v14.86a4.1 4.1 0 0 1-4.09 4.09h-8.66a9 9 0 0 0-9 9v10.67a4.1 4.1 0 0 1-4.15 4.09zm-8.23-1.74h8.23a2.35 2.35 0 0 0 2.34-2.35V52.5a10.78 10.78 0 0 1 9.89-10.72h9.53a2.35 2.35 0 0 0 2.35-2.35V24.5a2.37 2.37 0 0 0-2.35-2.35h-30zM57 62.42h-3.5a1.84 1.84 0 0 1-1.84-1.84v-5.73A1.84 1.84 0 0 1 53.53 53H57a1.84 1.84 0 0 1 1.84 1.84v5.73A1.84 1.84 0 0 1 57 62.42zm-3.5-7.66a.09.09 0 0 0-.09.1v5.73a.1.1 0 0 0 .09.09H57a.1.1 0 0 0 .09-.09v-5.74a.1.1 0 0 0-.09-.1zm24.64-20.2h-3.51a1.84 1.84 0 0 1-1.83-1.84V27a1.84 1.84 0 0 1 1.83-1.84h3.51A1.84 1.84 0 0 1 80 27v5.73a1.84 1.84 0 0 1-1.86 1.83zm-3.51-7.66a.09.09 0 0 0-.09.09v5.73a.1.1 0 0 0 .09.1h3.51a.1.1 0 0 0 .09-.1V27a.09.09 0 0 0-.09-.09zm-6.87 7.66h-3.5a1.84 1.84 0 0 1-1.84-1.84V27a1.84 1.84 0 0 1 1.84-1.84h3.5A1.84 1.84 0 0 1 69.59 27v5.73a1.84 1.84 0 0 1-1.83 1.83zm-3.5-7.66a.09.09 0 0 0-.09.09v5.73a.1.1 0 0 0 .09.1h3.5a.1.1 0 0 0 .09-.1V27a.09.09 0 0 0-.09-.09zM57 34.56h-3.5a1.84 1.84 0 0 1-1.84-1.84V27a1.84 1.84 0 0 1 1.84-1.84H57A1.84 1.84 0 0 1 58.87 27v5.73A1.84 1.84 0 0 1 57 34.56zm-3.5-7.66a.09.09 0 0 0-.09.09v5.73a.1.1 0 0 0 .09.1H57a.1.1 0 0 0 .09-.1V27a.09.09 0 0 0-.09-.1zM45.49 65.47H33.75V22.15h11.74zm-10-1.74h8.26V23.89h-8.26zM45.39 19.9H4V19a6.06 6.06 0 0 1 6-6h29.37a6 6 0 0 1 6 6zm-39.5-1.75h37.66a4.29 4.29 0 0 0-4.18-3.38h-29.3a4.31 4.31 0 0 0-4.18 3.38z"/></svg>
