<svg xmlns="http://www.w3.org/2000/svg" viewBox="0 0 100 100"><path d="M98.8 23H49v-4h1.9c1.5 0 2.1-1.7 2.1-3.2v-2.4c0-1.5-.7-2.4-2.1-2.4H3.7c-1.5 0-2.7.9-2.7 2.4v2.4C1 17.3 2.2 19 3.7 19H5v63H3.7c-1.5 0-2.7.7-2.7 2.2v2.4C1 88.1 2.2 90 3.7 90h47.2c1.5 0 2.1-1.9 2.1-3.4v-2.4c0-1.5-.7-2.2-2.1-2.2H49v-3h18.9c.4 0 .1-1 .1-1.4v-8.7C68 61.6 74.5 56 81.8 56h17c.4 0 .2-.7.2-1V22.3c0-.4.1.7-.2.7zM20 79.4c0 1.5-1.2 2.6-2.6 2.6h-2.7c-1.5 0-2.6-1.2-2.6-2.6V21.6c0-1.5 1.2-2.6 2.6-2.6h2.7c1.5 0 2.6 1.2 2.6 2.6v57.8zm42-8.1c0 .4-.3.7-.7.7h-7.7c-.4 0-.7-.3-.7-.7v-9.7c0-.4.3-.7.7-.7h7.7c.4 0 .7.3.7.7v9.7zm0-33c0 .4-.3.7-.7.7h-7.7c-.4 0-.7-.3-.7-.7v-9.7c0-.4.3-.7.7-.7h7.7c.4 0 .7.3.7.7v9.7zm15 0c0 .4-.3.7-.7.7h-7.7c-.4 0-.7-.3-.7-.7v-9.7c0-.4.3-.7.7-.7h7.7c.4 0 .7.3.7.7v9.7zm16 0c0 .4-.3.7-.7.7h-7.7c-.4 0-.7-.3-.7-.7v-9.7c0-.4.3-.7.7-.7h7.7c.4 0 .7.3.7.7v9.7z"/></svg>