<?xml version="1.0" encoding="UTF-8" standalone="no"?>
<svg width="154px" height="155px" viewBox="0 0 154 155" version="1.1" xmlns="http://www.w3.org/2000/svg" xmlns:xlink="http://www.w3.org/1999/xlink">
    <!-- Generator: sketchtool 3.8.3 (29802) - http://www.bohemiancoding.com/sketch -->
    <title>4CF0B558-D6EE-4F81-BF31-A6EFB4F03703</title>
    <desc>Created with sketchtool.</desc>
    <defs>
        <linearGradient x1="50%" y1="0%" x2="50%" y2="100%" id="linearGradient-1">
            <stop stop-color="#57CFE0" offset="0%"></stop>
            <stop stop-color="#36B4D4" offset="100%"></stop>
        </linearGradient>
        <polygon id="path-2" points="152.732657 153.982603 152.732657 0.565933591 0.000283912037 0.565933591 0.000283912037 153.982603"></polygon>
        <path d="M12.1968611,0.708129871 C10.481086,1.18053329 8.89780324,1.87820755 7.44701273,2.80115266 C5.99622222,3.72504827 4.73943827,4.87421473 3.67760725,6.24960255 C2.61482986,7.62499037 1.81798341,9.23515413 1.2870679,11.0810443 L10.8482789,13.2976334 C11.1757242,11.8195905 11.879826,10.6400077 12.9634236,9.75793457 C14.0460748,8.87586139 15.3227326,8.43387429 16.7943434,8.43387429 C18.2243137,8.43387429 19.4905613,8.84734609 20.5940328,9.67238868 C21.6984506,10.4993323 22.24924,11.6969748 22.24924,13.2653161 C22.24924,14.3393923 22.0344132,15.2072078 21.6066524,15.8668617 C21.1769988,16.5284165 20.6034965,17.054999 19.8889846,17.4475596 C19.1735262,17.8401202 18.367216,18.1072135 17.4681613,18.2526415 C16.5691065,18.397119 15.6293576,18.4684072 14.6489147,18.4684072 L11.6460718,18.4684072 L11.6460718,25.9783859 L14.403804,25.9783859 C15.465635,25.9783859 16.5284124,26.0715359 17.5911898,26.2559348 C18.6530208,26.4403337 19.6031798,26.7482989 20.4407203,27.1788799 C21.2782608,27.6104114 21.9520787,28.194975 22.4640667,28.9335212 C22.974162,29.6730179 23.2296829,30.595963 23.2296829,31.703307 C23.2296829,32.7298577 23.0356763,33.5919701 22.6476632,34.2896444 C22.2587037,34.9873187 21.7684823,35.550971 21.1769988,35.9825025 C20.5836227,36.414034 19.9098048,36.7315043 19.1536524,36.935864 C18.3975,37.1421246 17.6527041,37.2447797 16.9164255,37.2447797 C14.9545934,37.2447797 13.3410266,36.701088 12.0747789,35.6127542 C10.8075849,34.5253709 9.97004437,33.2640442 9.56215741,31.8278238 L0,34.3514276 C0.571609568,36.4035784 1.42997029,38.1582197 2.5741358,39.6144008 C3.71830131,41.0715325 5.05741975,42.2615709 6.58959838,43.1854665 C8.12177701,44.1084116 9.81673187,44.7956303 11.6763557,45.2471225 C13.5350332,45.6976642 15.4457612,45.924836 17.4075934,45.924836 C19.4091732,45.924836 21.3804691,45.6472871 23.3214811,45.0950409 C25.2615467,44.5418441 27.0085521,43.7015934 28.5624973,42.5742886 C30.1145498,41.4469839 31.3713337,40.0126645 32.3319028,38.2713304 C33.2915255,36.5290457 33.7722832,34.4702413 33.7722832,32.093016 C33.7722832,30.8630562 33.5669201,29.7053352 33.1590332,28.6198529 C32.7501998,27.5334201 32.1785903,26.5496423 31.4432581,25.6685197 C30.7079259,24.787397 29.8277986,24.0288901 28.807608,23.3939495 C27.7855247,22.7590089 26.6621794,22.2970611 25.4366258,22.0100071 L25.4366258,21.8256082 C27.5602878,21.2505497 29.3072932,20.1298985 30.677642,18.4665062 C32.0451516,16.8012129 32.7293796,14.7566661 32.7293796,12.3309648 C32.7293796,10.2350905 32.2902623,8.4158146 31.4129742,6.87598857 C30.5328468,5.33426152 29.3792176,4.04917215 27.9492473,3.02167095 C26.519277,1.99416976 24.8934074,1.23376184 23.0763704,0.740447207 C21.2574406,0.247132572 19.3892994,0 17.4681613,0 C15.6700517,0 13.9135826,0.236676964 12.1968611,0.708129871 L12.1968611,0.708129871 Z" id="path-4"></path>
        <path d="M9.19401813,1.84684072 C7.02776929,3.07775104 5.25994367,4.73068774 3.89148765,6.80279931 C2.52208526,8.87586139 1.533125,11.2968101 0.919875,14.0675464 C0.305678627,16.8373323 0,19.7611007 0,22.8388517 C0,25.9175533 0.305678627,28.8517773 0.919875,31.6424744 C1.533125,34.4331714 2.52208526,36.8854869 3.89148765,38.9984704 C5.25994367,41.1124044 7.02776929,42.7957574 9.19401813,44.0466285 C11.3593206,45.29845 13.9741505,45.924836 17.0394541,45.924836 C20.1038113,45.924836 22.7082311,45.29845 24.8536597,44.0466285 C27.0000347,42.7957574 28.7460938,41.1124044 30.0946759,38.9984704 C31.4432581,36.8854869 32.423701,34.4331714 33.036951,31.6424744 C33.6492546,28.8517773 33.9558796,25.9175533 33.9558796,22.8388517 C33.9558796,19.7611007 33.6492546,16.8373323 33.036951,14.0675464 C32.423701,11.2968101 31.4432581,8.87586139 30.0946759,6.80279931 C28.7460938,4.73068774 27.0000347,3.07775104 24.8536597,1.84684072 C22.7082311,0.615930411 20.1038113,0 17.0394541,0 C13.9741505,0 11.3593206,0.615930411 9.19401813,1.84684072 L9.19401813,1.84684072 Z M13.7299861,35.6127542 C12.8716254,34.6498877 12.2063248,33.4579483 11.7369236,32.042639 C11.2675224,30.6263793 10.9504873,29.0875038 10.787711,27.425062 C10.6230421,25.7635707 10.5426003,24.2342002 10.5426003,22.8388517 C10.5426003,21.4853256 10.6230421,19.987322 10.787711,18.3457915 C10.9504873,16.7042609 11.2675224,15.1748905 11.7369236,13.7586307 C12.2063248,12.3433215 12.8716254,11.1532831 13.7299861,10.1885155 C14.5874005,9.22469852 15.6908719,8.74183949 17.0394541,8.74183949 C18.3880363,8.74183949 19.4801512,9.22469852 20.3186381,10.1885155 C21.1552323,11.1532831 21.7987662,12.3433215 22.24924,13.7586307 C22.6987674,15.1748905 23.004446,16.7042609 23.1681686,18.3457915 C23.3309448,19.987322 23.4142257,21.4853256 23.4142257,22.8388517 C23.4142257,24.2342002 23.3309448,25.7635707 23.1681686,27.425062 C23.004446,29.0875038 22.6987674,30.6263793 22.24924,32.042639 C21.7987662,33.4579483 21.1552323,34.6498877 20.3186381,35.6127542 C19.4801512,36.5775217 18.3880363,37.0594302 17.0394541,37.0594302 C15.6908719,37.0594302 14.5874005,36.5775217 13.7299861,35.6127542 L13.7299861,35.6127542 Z" id="path-6"></path>
    </defs>
    <g id="Information-Pages" stroke="none" stroke-width="1" fill="none" fill-rule="evenodd">
        <g id="30Day" transform="translate(-86.000000, -82.000000)">
            <g id="new-30-day" transform="translate(86.352941, 82.000000)">
                <g id="Group-48" transform="translate(0.000000, 0.384957)">
                    <path d="M76.1628457,24.7251755 C47.2435656,24.7251755 23.7167215,48.3586535 23.7167215,77.4090873 C23.7167215,106.458571 47.2435656,130.092049 76.1628457,130.092049 C105.084019,130.092049 128.611809,106.458571 128.611809,77.4090873 C128.611809,48.3586535 105.084019,24.7251755 76.1628457,24.7251755 M76.1628457,131.817224 C46.2962458,131.817224 22,107.410031 22,77.4090873 C22,47.4081436 46.2962458,23 76.1628457,23 C106.030392,23 130.32853,47.4081436 130.32853,77.4090873 C130.32853,107.410031 106.030392,131.817224 76.1628457,131.817224" id="Fill-1" fill="#40CBAC"></path>
                    <g id="Group-5">
                        <mask id="mask-3" fill="white">
                            <use xlink:href="#path-2"></use>
                        </mask>
                        <g id="Clip-4"></g>
                        <path d="M76.3669436,2.37095188 C35.2489097,2.37095188 1.79650073,35.9724271 1.79650073,77.273983 C1.79650073,118.576489 35.2489097,152.177965 76.3669436,152.177965 C117.484031,152.177965 150.93644,118.576489 150.93644,77.273983 C150.93644,35.9724271 117.484031,2.37095188 76.3669436,2.37095188 M76.3669436,153.982983 C34.2580567,153.982983 0.000283912037,119.571673 0.000283912037,77.273983 C0.000283912037,34.9772433 34.2580567,0.565933591 76.3669436,0.565933591 C118.474884,0.565933591 152.732657,34.9772433 152.732657,77.273983 C152.732657,119.571673 118.474884,153.982983 76.3669436,153.982983" id="Fill-3" fill="#40CBAC" mask="url(#mask-3)"></path>
                    </g>
                    <path d="M24.0064533,114.407693 L24.0935197,114.334504 C26.4026709,112.375503 29.4064602,112.590319 31.3200274,114.86679 C32.7206601,116.533034 33.207096,118.657423 31.5263368,120.437728 L30.3083541,118.988201 C31.192267,117.940739 31.0503109,116.866663 30.1995212,115.853419 C28.9171852,114.328801 27.0480976,114.402941 25.3455717,115.846765 L25.2585054,115.919955 C23.5995127,117.326709 23.111184,119.066142 24.4843719,120.700069 C25.7108719,122.159102 27.0935235,122.013674 28.2036196,121.146809 L26.555037,119.185907 L27.639581,118.266764 L30.4872187,121.654381 L29.7717604,122.260806 C27.6234927,124.081033 25.1875274,123.8339 23.3383136,121.63442 C21.2411501,119.140282 21.7181223,116.347684 24.0064533,114.407693" id="Fill-6" fill="#40CBAC"></path>
                    <path d="M34.95316,128.101387 L38.6563193,123 L40.1932298,124.125404 L36.5733513,129.111779 C35.4774509,130.620238 35.5077348,131.59451 36.7228783,132.485138 C37.9039524,133.350102 38.8843953,133.256952 40.1222518,131.552688 L43.6673668,126.669919 L45.2033309,127.794372 L41.5664177,132.80451 C40.0030088,134.957414 37.9834478,135.295796 35.817199,133.708444 C33.7645149,132.205688 33.4143567,130.220073 34.95316,128.101387" id="Fill-8" fill="#40CBAC"></path>
                    <path d="M49.307892,136.623217 L52.0589996,137.817057 L52.5605775,132.874406 L49.307892,136.623217 Z M52.1432269,131 L54.4126304,131.984728 L53.4634178,142.683668 L51.6634155,141.903299 L51.9170436,139.262783 L48.3567867,137.718204 L46.6306015,139.719978 L45,139.012798 L52.1432269,131 Z" id="Fill-10" fill="#40CBAC"></path>
                    <path d="M64.3457469,140.263924 C65.5873889,140.496799 66.3416485,140.086178 66.5394406,139.021607 L66.5498507,138.965527 C66.7627847,137.817311 66.1239826,137.291679 64.9381767,137.06926 L63.4457458,136.78981 L62.853316,139.984474 L64.3457469,140.263924 Z M61.8586775,135 L65.2060004,135.626386 C67.3968549,136.036056 68.7643646,137.220391 68.3858152,139.265888 L68.3744587,139.321968 C68.0829757,140.89126 66.958684,141.50624 65.6574205,141.596539 L67.658054,146.450793 L65.6498495,146.074391 L63.7921184,141.537607 L62.6063125,141.315188 L61.854892,145.36436 L60,145.017424 L61.8586775,135 Z" id="Fill-12" fill="#40CBAC"></path>
                    <path d="M76.8722434,142.379822 L79.8637299,142.276217 L78.2123083,137.598758 L76.8722434,142.379822 Z M77.0388052,136.085546 L79.5050544,136 L83.2025355,146.06685 L81.2463816,146.135287 L80.3511123,143.6421 L76.4794985,143.776121 L75.7725575,146.325389 L74,146.387172 L77.0388052,136.085546 Z" id="Fill-14" fill="#40CBAC"></path>
                    <polygon id="Fill-16" fill="#40CBAC" points="88 135.19948 90.176659 134.597807 96.2457519 140.567009 94.297169 133.458146 95.9533225 133 98.6485941 142.831124 96.7596327 143.352954 90.2854919 137.037766 92.3514252 144.572458 90.6952716 145.030604"></polygon>
                    <polygon id="Fill-18" fill="#40CBAC" points="104.194957 131.545402 101.697477 132.873264 101 131.550154 107.676665 128 108.373196 129.32406 105.875716 130.650972 109.929034 138.339647 108.246382 139.234076"></polygon>
                    <polygon id="Fill-20" fill="#40CBAC" points="111 125.019706 115.924927 121 116.864676 122.162474 113.405681 124.985488 115.160258 127.154552 117.936917 124.888536 118.832187 125.994929 116.055527 128.260945 117.926507 130.574486 121.573831 127.597489 122.513579 128.759963 117.402216 132.931751"></polygon>
                    <polygon id="Fill-22" fill="#40CBAC" points="120 116.900829 124.053318 112 125.199376 112.956213 122.351738 116.39896 124.491488 118.184017 126.77698 115.420885 127.868149 116.331474 125.583603 119.094606 127.86531 120.998477 130.86626 117.36943 132.013265 118.325643 127.805688 123.412772"></polygon>
                    <path d="M24.2813699,43.0998996 L25.3696994,41.6389659 C26.2649687,42.1512907 27.1933611,42.3328381 28.222069,40.9517472 C28.8939942,40.0497134 28.8712812,39.0345688 28.120807,38.4709164 C27.3703329,37.9072641 26.8053479,38.0698013 25.6025073,39.2322748 C23.8876786,40.9869161 22.6072353,41.4678741 21.0845204,40.3225097 C19.7548657,39.3235238 19.6053387,37.4301081 20.8725327,35.7296459 C22.1823136,33.9721531 23.7599182,33.5197104 25.4368919,34.5301024 L24.3987202,35.9225994 C23.4353121,35.4302353 22.7066045,35.647902 22.0091273,36.5841543 C21.3201674,37.5080499 21.4062874,38.3207359 22.0308938,38.7912383 C22.6895698,39.2864539 23.2242708,39.2598396 24.4829475,37.998513 C26.1731705,36.2771396 27.4583456,35.694477 29.0842152,36.9158822 C30.4933653,37.9757008 30.7025138,40.0021879 29.3586635,41.8062556 C27.6996709,44.0313993 25.9006149,44.1388069 24.2813699,43.0998996" id="Fill-24" fill="#40CBAC"></path>
                    <path d="M32.9795004,31.5556667 L35.1722477,29.5082684 L30.8738194,27.0597549 L32.9795004,31.5556667 Z M29,26.6881056 L30.8085197,25 L40.1700459,30.1764769 L38.7353438,31.5157453 L36.4318708,30.2202003 L33.5936968,32.8692714 L34.7217739,35.2607543 L33.4224032,36.4736049 L29,26.6881056 Z" id="Fill-26" fill="#40CBAC"></path>
                    <polygon id="Fill-28" fill="#40CBAC" points="38.1760293 20.8619217 35.8205058 22.4236095 35 21.1746395 41.2990617 17 42.1195675 18.24897 39.7630976 19.8106578 44.5290343 27.0649493 42.941966 28.1162132"></polygon>
                    <polygon id="Fill-30" fill="#40CBAC" points="46 14.8259931 47.7148287 14 52.102216 23.1876286 50.3883337 24.0136217"></polygon>
                    <path d="M54.1093759,19.2515813 L55.843132,18.7040876 C56.2708928,19.6450924 56.920105,20.3370636 58.5582775,19.8190357 C59.6286259,19.4816046 60.2002354,18.6432549 59.9191625,17.7450231 C59.6380896,16.8477417 59.0844611,16.6481347 57.4320931,16.8867126 C55.0178944,17.304937 53.6986498,16.9446937 53.1279866,15.1216158 C52.6301941,13.5295117 53.6096907,11.9041398 55.6273589,11.2672981 C57.7141124,10.6076443 59.2576475,11.1665441 60.0317809,12.9706119 L58.3794129,13.4924418 C57.8825668,12.5276743 57.1652157,12.2767397 56.0541733,12.6274778 C54.9573265,12.9744139 54.5541714,13.6844448 54.7879256,14.4324961 C55.0358755,15.2214193 55.4835101,15.5132258 57.2409256,15.2280729 C59.6134839,14.8222052 60.9961355,15.1026056 61.6056,17.0482993 C62.1336764,18.7354544 61.1248423,20.5043533 58.9841455,21.1801658 C56.3428172,22.013763 54.8191559,21.0451934 54.1093759,19.2515813" id="Fill-32" fill="#40CBAC"></path>
                    <polygon id="Fill-34" fill="#40CBAC" points="64 8.8354982 70.2309228 8 70.4296613 9.49800359 66.0697187 10.0825672 66.4690883 13.090931 69.9006385 12.6308842 70.0936987 14.0861148 66.6621485 14.5461616 67.2129379 18.6856322 65.3419576 18.9356163"></polygon>
                    <path d="M77.1324961,14.2752663 L80.1268218,14.3703173 L78.7858106,9.58925254 L77.1324961,14.2752663 Z M77.7126231,8 L80.1826578,8.07794181 L83.2129456,18.3786175 L81.2530062,18.3158839 L80.5242986,15.7666163 L76.6479529,15.6440006 L75.7744502,18.1428911 L74,18.086811 L77.7126231,8 Z" id="Fill-36" fill="#40CBAC"></path>
                    <path d="M86.1802712,13.2327758 L86.2048769,13.1215661 C86.8749093,10.131262 89.3932091,8.5087416 92.1490486,9.13227609 C94.4203449,9.64555143 95.9231859,11.1844269 95.6212928,13.5711573 L93.7512589,13.1481804 C93.840218,11.7794461 93.2581983,10.9315913 91.8320135,10.6093685 C90.0869008,10.2149069 88.6455741,11.3203499 88.1468352,13.546444 L88.1222295,13.6576537 C87.6197052,15.897055 88.3900532,17.4596933 90.2184467,17.8731651 C91.5887955,18.1830313 92.7140335,17.7068258 93.2222361,16.3456957 L95.0231848,16.7534644 C94.1960544,19.0793621 92.2342222,19.9072562 89.8805914,19.3749707 C86.7793256,18.6734944 85.4932041,16.2924671 86.1802712,13.2327758" id="Fill-38" fill="#40CBAC"></path>
                    <polygon id="Fill-40" fill="#40CBAC" points="102.425872 14.49794 99.8309159 13.3753878 100.421453 12 107.35837 15.0017102 106.76878 16.3770981 104.173824 15.2535954 100.747005 23.242631 99 22.4869757"></polygon>
                    <polygon id="Fill-42" fill="#40CBAC" points="111.245748 17 112.875403 17.9875798 107.629655 26.7189637 106 25.7313839"></polygon>
                    <path d="M119.655626,30.3696626 L119.729443,30.2831662 C121.08181,28.6863096 121.197268,26.7444179 119.68307,25.450774 C118.168873,24.15713 116.323445,24.5097692 114.906724,26.1826666 L114.832906,26.269163 C113.399151,27.9639221 113.496627,29.9390817 114.903884,31.1395757 C116.363192,32.3866446 118.230387,32.0530157 119.655626,30.3696626 M113.321548,24.9954797 L113.394419,24.9089833 C115.31745,22.6382152 118.365719,22.3407056 120.658781,24.2997065 C122.962254,26.2672619 123.162886,29.2651702 121.231337,31.5463939 L121.15752,31.6338408 C119.235436,33.9046089 116.244896,34.2886149 113.896943,32.2839896 C111.52817,30.260354 111.425962,27.2339305 113.321548,24.9954797" id="Fill-44" fill="#40CBAC"></path>
                    <polygon id="Fill-46" fill="#40CBAC" points="129.053638 32 130.426826 33.7983647 127.202532 41.6875968 133.025568 37.2040417 134.07131 38.5727759 126.017672 44.7739025 124.825242 43.2131652 128.21799 34.8173113 122.045743 39.5698608 121 38.2011265"></polygon>
                </g>
                <g id="Group-51" transform="translate(40.747685, 47.856124)">
                    <mask id="mask-5" fill="white">
                        <use xlink:href="#path-4"></use>
                    </mask>
                    <g id="Clip-50"></g>
                    <polygon id="Fill-49" fill="#40CBAC" mask="url(#mask-5)" points="-3 49.0262226 35.8524159 49.0262226 35.8524159 -2 -3 -2"></polygon>
                </g>
                <g id="Group-54" transform="translate(78.602623, 47.856124)">
                    <mask id="mask-7" fill="white">
                        <use xlink:href="#path-6"></use>
                    </mask>
                    <g id="Clip-53"></g>
                    <polygon id="Fill-52" fill="#40CBAC" mask="url(#mask-7)" points="-3 49.0262226 36.0360123 49.0262226 36.0360123 -2 -3 -2"></polygon>
                </g>
                <g id="Group-65" transform="translate(5.731867, 74.470401)" fill="#40CBAC">
                    <path d="M54.1949568,36.1713428 C57.3728789,36.1713428 58.9618399,34.2627189 58.9618399,31.2277408 L58.9618399,31.0889664 C58.9618399,28.2269811 57.5801346,26.2147516 54.1769757,26.2147516 L52.502841,26.2147516 L52.502841,36.1713428 L54.1949568,36.1713428 Z M51,25 L54.2640421,25 C58.5123125,25 60.5167315,27.6367144 60.5167315,31.0889664 L60.5167315,31.24485 C60.5167315,34.6790422 58.5473283,37.4032036 54.2290262,37.4032036 L51,37.4032036 L51,25 Z" id="Fill-55"></path>
                    <path d="M69.0217704,32.6325944 L73.3050567,32.6325944 L71.1634136,26.24897 L69.0217704,32.6325944 Z M70.2482704,25 L72.2167272,25 L76.3968588,37.4032036 L74.9119988,37.4032036 L73.7015872,33.8292864 L68.6082052,33.8292864 L67.4157747,37.4032036 L66,37.4032036 L70.2482704,25 Z" id="Fill-57"></path>
                    <polygon id="Fill-59" points="86.1271346 31.9900498 82 25 83.6921157 25 86.9220883 30.7581889 90.0299788 25 91.5328198 25 87.6299757 32.0071589 87.6299757 37.4022531 86.1271346 37.4022531"></polygon>
                    <polygon id="Fill-61" points="0 4.73353927 4.13375926 3.89518954 5.78991281 0 7.86152431 3.68987941 12.0624761 4.06818234 9.20821373 7.18680531 10.1479626 11.3158203 6.31325733 9.55357494 2.69337886 11.7273911 3.17697569 7.51948377"></polygon>
                    <polygon id="Fill-63" points="142.062476 4.73353927 137.928717 3.89518954 136.271617 0 134.200952 3.68987941 130 4.06818234 132.854262 7.18680531 131.914514 11.3158203 135.749219 9.55357494 139.369097 11.7273911 138.8855 7.51948377"></polygon>
                </g>
            </g>
        </g>
    </g>
</svg>