<svg width="21" height="21" xmlns="http://www.w3.org/2000/svg">
  <path d="M10.37 6.894c-2.016 0-3.656 1.62-3.656 3.61 0 1.99 1.64 3.61 3.655 3.61 2.016 0 3.656-1.62 3.656-3.61 0-1.99-1.64-3.61-3.656-3.61zm0 8.79c-2.893 0-5.246-2.324-5.246-5.18s2.353-5.18 5.245-5.18c2.893 0 5.246 2.324 5.246 5.18s-2.353 5.18-5.246 5.18zM6.35 1.798c-2.645 0-4.797 2.124-4.797 4.736v7.938c0 2.611 2.152 4.736 4.796 4.736h8.04c2.645 0 4.797-2.125 4.797-4.736V6.535c0-2.612-2.152-4.736-4.797-4.736h-8.04zm8.039 18.943h-8.04c-3.5 0-6.35-2.813-6.35-6.27V6.536C0 3.078 2.85.265 6.35.265h8.04c3.501 0 6.35 2.813 6.35 6.27v7.938c0 3.456-2.849 6.269-6.35 6.269zM17.552 4.76c0 .745-.612 1.348-1.366 1.348a1.357 1.357 0 01-1.366-1.348c0-.745.611-1.349 1.366-1.349.754 0 1.366.604 1.366 1.349z" fill-rule="evenodd"/>
</svg>
