<?xml version="1.0" encoding="UTF-8" standalone="no"?>
<svg width="47px" height="48px" viewBox="0 0 47 48" version="1.1" xmlns="http://www.w3.org/2000/svg" xmlns:xlink="http://www.w3.org/1999/xlink">
    <!-- Generator: sketchtool 3.8.3 (29802) - http://www.bohemiancoding.com/sketch -->
    <title>AF8F90D2-33DE-460A-98F0-284E7A5775BC</title>
    <desc>Created with sketchtool.</desc>
    <defs></defs>
    <g id="Information-Pages" stroke="none" stroke-width="1" fill="none" fill-rule="evenodd">
        <g id="ContactUs" transform="translate(-211.000000, -367.000000)" stroke="#40CBAC" stroke-width="2">
            <path d="M244.131694,394.53007 C244.131694,394.53007 240.996137,397.625132 240.788552,397.818791 C240.737172,397.870155 240.680516,397.910645 240.616062,397.9435 C237.355265,399.609378 225.585569,386.898959 227.830922,384.508887 L231.185992,381.192632 C231.620658,380.761124 231.622493,380.056133 231.201131,379.626244 L220.220485,368.331821 C220.017259,368.121736 219.738109,368.002348 219.447032,368.000034 C219.154808,367.99772 218.876805,368.113638 218.667157,368.318402 C213.168576,373.763278 204.35392,379.238927 224.94653,400.425427 C245.269854,421.331967 251.096211,413.408634 256.70558,407.323783 C257.108592,406.888572 257.097582,406.211809 256.686083,405.788398 L245.66415,394.558297 C245.246687,394.13211 244.570948,394.119616 244.131694,394.53007 Z" id="Shape"></path>
        </g>
    </g>
</svg>