<?xml version="1.0" encoding="UTF-8" standalone="no"?>
<svg width="56px" height="48px" viewBox="0 0 56 48" version="1.1" xmlns="http://www.w3.org/2000/svg" xmlns:xlink="http://www.w3.org/1999/xlink">
    <!-- Generator: sketchtool 3.8.3 (29802) - http://www.bohemiancoding.com/sketch -->
    <title>16DCF6E7-CD5C-4795-8725-7E27C99E269B</title>
    <desc>Created with sketchtool.</desc>
    <defs></defs>
    <g id="Information-Pages" stroke="none" stroke-width="1" fill="none" fill-rule="evenodd">
        <g id="ContactUs" transform="translate(-60.000000, -507.000000)" stroke-width="2" stroke="#40CBAC">
            <g id="thin-0281_chat_message_discussion_bubble_reply_conversation" transform="translate(61.000000, 508.000000)">
                <g id="Group">
                    <path d="M11.5605,29.3797895 C4.59734211,28.1681053 0.472736842,22.2754737 0.472736842,15.0984474 C0.472736842,7.04534211 6.00726316,0.587368421 13.2250263,0.587368421 L26.4521842,0.587368421 C33.6699474,0.587368421 39.5213684,6.74478947 39.5213684,14.7981316 C39.5213684,22.8507632 33.6699474,29.0084211 26.4521842,29.0084211 L22.2856579,29.0084211 L11.5602632,39.8188421 L11.5602632,29.3797895 L11.5605,29.3797895 Z" id="Shape"></path>
                    <path d="M27.0603947,34.0505526 C28.7471842,36.5838158 31.4471842,38.4821053 34.4939211,38.4821053 L38.0835,38.4821053 L44.0554737,44.4519474 L44.0554737,37.9610526 C48.6975789,37.7865 53.0827105,33.2301316 53.0827105,27.6304737 C53.0827105,21.9209211 48.9621316,17.4199737 43.8446842,17.4199737" id="Shape"></path>
                    <path d="M10.3999737,14.2105263 L28.9683947,14.2105263" id="Shape"></path>
                    <path d="M10.3999737,9.47368421 L28.9683947,9.47368421" id="Shape"></path>
                    <path d="M10.3999737,18.9473684 L19.6841842,18.9473684" id="Shape"></path>
                </g>
            </g>
        </g>
    </g>
</svg>