<svg width="56" height="48" viewBox="0 0 56 48" xmlns="http://www.w3.org/2000/svg"><g stroke-width="2" stroke="#40CBAC" fill="none" fill-rule="evenodd"><path d="M12.56 30.38C5.597 29.168 1.473 23.275 1.473 16.098c0-8.053 5.534-14.51 12.752-14.51h13.227c7.218 0 13.07 6.157 13.07 14.21s-5.852 14.21-13.07 14.21h-4.166L12.56 40.818V30.38zM28.06 35.05c1.687 2.534 4.387 4.432 7.434 4.432h3.59l5.971 5.97v-6.49c4.643-.176 9.028-4.732 9.028-10.332 0-5.71-4.12-10.21-9.238-10.21M11.4 15.21h18.568M11.4 10.474h18.568M11.4 19.947h9.284"/></g></svg>
